<svg xmlns="http://www.w3.org/2000/svg" width="1240" height="638">
<style>text{font-family:-apple-system,Segoe UI,Roboto,sans-serif;fill:#111827;}</style>
<text x="620.0" y="36" text-anchor="middle" font-size="20" font-weight="700">cm4_inter / run_1_big_mes_inter / case 05 (async1_c4_waitall)</text>
<text x="620.0" y="62" text-anchor="middle" font-size="13" fill="#4b5563">size 512_512_512  |  cutoff 250  |  num_cycles 5</text>
<line x1="220.0" y1="92" x2="220.0" y2="488" stroke="#e5e7eb" stroke-dasharray="4 4"/>
<text x="220.0" y="506" text-anchor="middle" font-size="12">0.000s</text>
<line x1="412.0" y1="92" x2="412.0" y2="488" stroke="#e5e7eb" stroke-dasharray="4 4"/>
<text x="412.0" y="506" text-anchor="middle" font-size="12">0.777s</text>
<line x1="604.0" y1="92" x2="604.0" y2="488" stroke="#e5e7eb" stroke-dasharray="4 4"/>
<text x="604.0" y="506" text-anchor="middle" font-size="12">1.555s</text>
<line x1="796.0" y1="92" x2="796.0" y2="488" stroke="#e5e7eb" stroke-dasharray="4 4"/>
<text x="796.0" y="506" text-anchor="middle" font-size="12">2.332s</text>
<line x1="988.0" y1="92" x2="988.0" y2="488" stroke="#e5e7eb" stroke-dasharray="4 4"/>
<text x="988.0" y="506" text-anchor="middle" font-size="12">3.110s</text>
<line x1="1180.0" y1="92" x2="1180.0" y2="488" stroke="#e5e7eb" stroke-dasharray="4 4"/>
<text x="1180.0" y="506" text-anchor="middle" font-size="12">3.887s</text>
<line x1="220" y1="488" x2="1180" y2="488" stroke="#374151"/>
<text x="208" y="129.0" text-anchor="end" font-size="14" font-weight="700">mock seq</text>
<text x="208" y="147.0" text-anchor="end" font-size="11" fill="#374151">compute 1.136s  |  comm-window 0.223s  |  fixed mock 0.000s</text>
<text x="208" y="163.0" text-anchor="end" font-size="11" fill="#6b7280">measured-window 1.432s | ideal 1.136s / serial 1.359s | serialized Δ 0.223s → ratio 1.326x</text>
<rect x="220.00" y="100.00" width="166.19" height="36.00" fill="#94a3b8" stroke="#ffffff" stroke-width="0.5"/>
<text x="303.096217283862" y="116.0" text-anchor="middle" font-size="10" fill="#0f172a">pre-comm</text>
<text x="303.096217283862" y="129.0" text-anchor="middle" font-size="10" fill="#0f172a">0.673s</text>
<rect x="386.19" y="100.00" width="0.16" height="36.00" fill="#38bdf8" stroke="#ffffff" stroke-width="0.5"/>
<rect x="386.36" y="100.00" width="98.41" height="36.00" fill="#0ea5e9" stroke="#ffffff" stroke-width="0.5"/>
<text x="435.56096832184375" y="116.0" text-anchor="middle" font-size="10" fill="#0f172a">post-send</text>
<text x="435.56096832184375" y="129.0" text-anchor="middle" font-size="10" fill="#0f172a">0.399s</text>
<rect x="484.77" y="100.00" width="280.54" height="36.00" fill="#f97316" stroke="#ffffff" stroke-width="0.5"/>
<text x="625.0364760406483" y="116.0" text-anchor="middle" font-size="10" fill="#0f172a">mid-comm</text>
<text x="625.0364760406483" y="129.0" text-anchor="middle" font-size="10" fill="#0f172a">1.136s</text>
<rect x="765.31" y="100.00" width="73.00" height="36.00" fill="#22c55e" stroke="#ffffff" stroke-width="0.5"/>
<text x="801.8092620363166" y="116.0" text-anchor="middle" font-size="10" fill="#0f172a">wait-recv</text>
<text x="801.8092620363166" y="129.0" text-anchor="middle" font-size="10" fill="#0f172a">0.296s</text>
<rect x="838.31" y="100.00" width="1.84" height="36.00" fill="#16a34a" stroke="#ffffff" stroke-width="0.5"/>
<rect x="840.15" y="100.00" width="181.80" height="36.00" fill="#a3a3a3" stroke="#ffffff" stroke-width="0.5"/>
<text x="931.0497387122577" y="116.0" text-anchor="middle" font-size="10" fill="#0f172a">post-comm</text>
<text x="931.0497387122577" y="129.0" text-anchor="middle" font-size="10" fill="#0f172a">0.736s</text>
<text x="1029.951591093995" y="122.0" font-size="11" fill="#374151">with compute  3.265s</text>
<rect x="220.00" y="142.00" width="123.52" height="36.00" fill="#94a3b8" stroke="#ffffff" stroke-width="0.5"/>
<text x="281.7597283183347" y="158.0" text-anchor="middle" font-size="10" fill="#0f172a">pre-comm</text>
<text x="281.7597283183347" y="171.0" text-anchor="middle" font-size="10" fill="#0f172a">0.500s</text>
<rect x="343.52" y="142.00" width="0.12" height="36.00" fill="#38bdf8" stroke="#ffffff" stroke-width="0.5"/>
<rect x="343.64" y="142.00" width="65.73" height="36.00" fill="#0ea5e9" stroke="#ffffff" stroke-width="0.5"/>
<text x="376.50745485722746" y="158.0" text-anchor="middle" font-size="10" fill="#0f172a">post-send</text>
<text x="376.50745485722746" y="171.0" text-anchor="middle" font-size="10" fill="#0f172a">0.266s</text>
<rect x="409.37" y="142.00" width="55.07" height="36.00" fill="#22c55e" stroke="#ffffff" stroke-width="0.5"/>
<text x="436.91092654648173" y="158.0" text-anchor="middle" font-size="10" fill="#0f172a">wait-recv</text>
<text x="436.91092654648173" y="171.0" text-anchor="middle" font-size="10" fill="#0f172a">0.223s</text>
<rect x="464.45" y="142.00" width="0.93" height="36.00" fill="#16a34a" stroke="#ffffff" stroke-width="0.5"/>
<rect x="465.37" y="142.00" width="136.20" height="36.00" fill="#a3a3a3" stroke="#ffffff" stroke-width="0.5"/>
<text x="533.4751908386398" y="158.0" text-anchor="middle" font-size="10" fill="#0f172a">post-comm</text>
<text x="533.4751908386398" y="171.0" text-anchor="middle" font-size="10" fill="#0f172a">0.552s</text>
<text x="609.5767401151269" y="164.0" font-size="11" fill="#374151">no midcomm    1.621s</text>
<text x="208" y="229.0" text-anchor="end" font-size="14" font-weight="700">mock omp</text>
<text x="208" y="247.0" text-anchor="end" font-size="11" fill="#374151">compute 0.281s  |  comm-window 0.205s  |  fixed mock 0.000s</text>
<text x="208" y="263.0" text-anchor="end" font-size="11" fill="#6b7280">measured-window 0.451s | ideal 0.281s / serial 0.486s | serialized Δ 0.205s → ratio 0.827x</text>
<rect x="220.00" y="200.00" width="57.82" height="36.00" fill="#94a3b8" stroke="#ffffff" stroke-width="0.5"/>
<text x="248.91200325713652" y="216.0" text-anchor="middle" font-size="10" fill="#0f172a">pre-comm</text>
<text x="248.91200325713652" y="229.0" text-anchor="middle" font-size="10" fill="#0f172a">0.234s</text>
<rect x="277.82" y="200.00" width="0.16" height="36.00" fill="#38bdf8" stroke="#ffffff" stroke-width="0.5"/>
<rect x="277.99" y="200.00" width="53.38" height="36.00" fill="#0ea5e9" stroke="#ffffff" stroke-width="0.5"/>
<text x="304.68022772424337" y="216.0" text-anchor="middle" font-size="10" fill="#0f172a">post-send</text>
<text x="304.68022772424337" y="229.0" text-anchor="middle" font-size="10" fill="#0f172a">0.216s</text>
<rect x="331.37" y="200.00" width="69.45" height="36.00" fill="#f97316" stroke="#ffffff" stroke-width="0.5"/>
<text x="366.0975986816324" y="216.0" text-anchor="middle" font-size="10" fill="#0f172a">mid-comm</text>
<text x="366.0975986816324" y="229.0" text-anchor="middle" font-size="10" fill="#0f172a">0.281s</text>
<rect x="400.82" y="200.00" width="41.84" height="36.00" fill="#22c55e" stroke="#ffffff" stroke-width="0.5"/>
<text x="421.7417590276697" y="216.0" text-anchor="middle" font-size="10" fill="#0f172a">wait-recv</text>
<text x="421.7417590276697" y="229.0" text-anchor="middle" font-size="10" fill="#0f172a">0.169s</text>
<rect x="442.66" y="200.00" width="1.51" height="36.00" fill="#16a34a" stroke="#ffffff" stroke-width="0.5"/>
<rect x="444.17" y="200.00" width="63.38" height="36.00" fill="#a3a3a3" stroke="#ffffff" stroke-width="0.5"/>
<text x="475.85745861328337" y="216.0" text-anchor="middle" font-size="10" fill="#0f172a">post-comm</text>
<text x="475.85745861328337" y="229.0" text-anchor="middle" font-size="10" fill="#0f172a">0.257s</text>
<text x="515.5489134251579" y="222.0" font-size="11" fill="#374151">with compute  1.181s</text>
<rect x="220.00" y="242.00" width="62.96" height="36.00" fill="#94a3b8" stroke="#ffffff" stroke-width="0.5"/>
<text x="251.48248940896417" y="258.0" text-anchor="middle" font-size="10" fill="#0f172a">pre-comm</text>
<text x="251.48248940896417" y="271.0" text-anchor="middle" font-size="10" fill="#0f172a">0.255s</text>
<rect x="282.96" y="242.00" width="0.20" height="36.00" fill="#38bdf8" stroke="#ffffff" stroke-width="0.5"/>
<rect x="283.16" y="242.00" width="62.96" height="36.00" fill="#0ea5e9" stroke="#ffffff" stroke-width="0.5"/>
<text x="314.64410352457594" y="258.0" text-anchor="middle" font-size="10" fill="#0f172a">post-send</text>
<text x="314.64410352457594" y="271.0" text-anchor="middle" font-size="10" fill="#0f172a">0.255s</text>
<rect x="346.13" y="242.00" width="50.56" height="36.00" fill="#22c55e" stroke="#ffffff" stroke-width="0.5"/>
<text x="371.40624115444444" y="258.0" text-anchor="middle" font-size="10" fill="#0f172a">wait-recv</text>
<text x="371.40624115444444" y="271.0" text-anchor="middle" font-size="10" fill="#0f172a">0.205s</text>
<rect x="396.69" y="242.00" width="1.65" height="36.00" fill="#16a34a" stroke="#ffffff" stroke-width="0.5"/>
<rect x="398.33" y="242.00" width="69.12" height="36.00" fill="#a3a3a3" stroke="#ffffff" stroke-width="0.5"/>
<text x="432.89208086759646" y="258.0" text-anchor="middle" font-size="10" fill="#0f172a">post-comm</text>
<text x="432.89208086759646" y="271.0" text-anchor="middle" font-size="10" fill="#0f172a">0.280s</text>
<text x="475.45115563586097" y="264.0" font-size="11" fill="#374151">no midcomm    1.084s</text>
<text x="208" y="329.0" text-anchor="end" font-size="14" font-weight="700">mpi  seq</text>
<text x="208" y="347.0" text-anchor="end" font-size="11" fill="#374151">compute 1.321s  |  comm-window 0.287s  |  fixed mock 0.223s</text>
<text x="208" y="363.0" text-anchor="end" font-size="11" fill="#6b7280">measured-window 1.348s | ideal 1.321s / serial 1.608s | serialized Δ 0.287s → ratio 0.094x</text>
<rect x="220.00" y="300.00" width="167.91" height="36.00" fill="#94a3b8" stroke="#ffffff" stroke-width="0.5"/>
<text x="303.9545542350188" y="316.0" text-anchor="middle" font-size="10" fill="#0f172a">pre-comm</text>
<text x="303.9545542350188" y="329.0" text-anchor="middle" font-size="10" fill="#0f172a">0.680s</text>
<rect x="387.91" y="300.00" width="0.17" height="36.00" fill="#38bdf8" stroke="#ffffff" stroke-width="0.5"/>
<rect x="388.08" y="300.00" width="97.61" height="36.00" fill="#0ea5e9" stroke="#ffffff" stroke-width="0.5"/>
<text x="436.8802679732004" y="316.0" text-anchor="middle" font-size="10" fill="#0f172a">post-send</text>
<text x="436.8802679732004" y="329.0" text-anchor="middle" font-size="10" fill="#0f172a">0.395s</text>
<rect x="485.69" y="300.00" width="326.29" height="36.00" fill="#f97316" stroke="#ffffff" stroke-width="0.5"/>
<text x="648.8294137362623" y="316.0" text-anchor="middle" font-size="10" fill="#0f172a">mid-comm</text>
<text x="648.8294137362623" y="329.0" text-anchor="middle" font-size="10" fill="#0f172a">1.321s</text>
<rect x="811.97" y="300.00" width="79.70" height="36.00" fill="#22c55e" stroke="#ffffff" stroke-width="0.5"/>
<text x="851.8216721320618" y="316.0" text-anchor="middle" font-size="10" fill="#0f172a">wait-recv</text>
<text x="851.8216721320618" y="329.0" text-anchor="middle" font-size="10" fill="#0f172a">0.323s</text>
<rect x="891.67" y="300.00" width="1.53" height="36.00" fill="#16a34a" stroke="#ffffff" stroke-width="0.5"/>
<rect x="893.20" y="300.00" width="183.94" height="36.00" fill="#a3a3a3" stroke="#ffffff" stroke-width="0.5"/>
<text x="985.1731461570621" y="316.0" text-anchor="middle" font-size="10" fill="#0f172a">post-comm</text>
<text x="985.1731461570621" y="329.0" text-anchor="middle" font-size="10" fill="#0f172a">0.745s</text>
<text x="1085.1428571428569" y="322.0" font-size="11" fill="#374151">with compute  3.477s</text>
<rect x="220.00" y="342.00" width="124.54" height="36.00" fill="#94a3b8" stroke="#ffffff" stroke-width="0.5"/>
<text x="282.27023863144757" y="358.0" text-anchor="middle" font-size="10" fill="#0f172a">pre-comm</text>
<text x="282.27023863144757" y="371.0" text-anchor="middle" font-size="10" fill="#0f172a">0.504s</text>
<rect x="344.54" y="342.00" width="0.13" height="36.00" fill="#38bdf8" stroke="#ffffff" stroke-width="0.5"/>
<rect x="344.68" y="342.00" width="66.83" height="36.00" fill="#0ea5e9" stroke="#ffffff" stroke-width="0.5"/>
<text x="378.08971690696177" y="358.0" text-anchor="middle" font-size="10" fill="#0f172a">post-send</text>
<text x="378.08971690696177" y="371.0" text-anchor="middle" font-size="10" fill="#0f172a">0.271s</text>
<rect x="411.50" y="342.00" width="125.91" height="36.00" fill="#22c55e" stroke="#ffffff" stroke-width="0.5"/>
<text x="474.4596956100532" y="358.0" text-anchor="middle" font-size="10" fill="#0f172a">wait-recv</text>
<text x="474.4596956100532" y="371.0" text-anchor="middle" font-size="10" fill="#0f172a">0.510s</text>
<rect x="537.42" y="342.00" width="0.85" height="36.00" fill="#16a34a" stroke="#ffffff" stroke-width="0.5"/>
<rect x="538.26" y="342.00" width="137.22" height="36.00" fill="#a3a3a3" stroke="#ffffff" stroke-width="0.5"/>
<text x="606.8757145803353" y="358.0" text-anchor="middle" font-size="10" fill="#0f172a">post-comm</text>
<text x="606.8757145803353" y="371.0" text-anchor="middle" font-size="10" fill="#0f172a">0.556s</text>
<text x="683.4874062176664" y="364.0" font-size="11" fill="#374151">no midcomm    1.864s</text>
<text x="208" y="429.0" text-anchor="end" font-size="14" font-weight="700">mpi  omp</text>
<text x="208" y="447.0" text-anchor="end" font-size="11" fill="#374151">compute 0.280s  |  comm-window 0.221s  |  fixed mock 0.205s</text>
<text x="208" y="463.0" text-anchor="end" font-size="11" fill="#6b7280">measured-window 0.306s | ideal 0.280s / serial 0.501s | serialized Δ 0.221s → ratio 0.119x</text>
<rect x="220.00" y="400.00" width="58.59" height="36.00" fill="#94a3b8" stroke="#ffffff" stroke-width="0.5"/>
<text x="249.29473658853317" y="416.0" text-anchor="middle" font-size="10" fill="#0f172a">pre-comm</text>
<text x="249.29473658853317" y="429.0" text-anchor="middle" font-size="10" fill="#0f172a">0.237s</text>
<rect x="278.59" y="400.00" width="0.17" height="36.00" fill="#38bdf8" stroke="#ffffff" stroke-width="0.5"/>
<rect x="278.76" y="400.00" width="54.10" height="36.00" fill="#0ea5e9" stroke="#ffffff" stroke-width="0.5"/>
<text x="305.80873486360997" y="416.0" text-anchor="middle" font-size="10" fill="#0f172a">post-send</text>
<text x="305.80873486360997" y="429.0" text-anchor="middle" font-size="10" fill="#0f172a">0.219s</text>
<rect x="332.86" y="400.00" width="69.17" height="36.00" fill="#f97316" stroke="#ffffff" stroke-width="0.5"/>
<text x="367.44347979757225" y="416.0" text-anchor="middle" font-size="10" fill="#0f172a">mid-comm</text>
<text x="367.44347979757225" y="429.0" text-anchor="middle" font-size="10" fill="#0f172a">0.280s</text>
<rect x="402.03" y="400.00" width="48.33" height="36.00" fill="#22c55e" stroke="#ffffff" stroke-width="0.5"/>
<text x="426.1946272504464" y="416.0" text-anchor="middle" font-size="10" fill="#0f172a">wait-recv</text>
<text x="426.1946272504464" y="429.0" text-anchor="middle" font-size="10" fill="#0f172a">0.196s</text>
<rect x="450.36" y="400.00" width="1.57" height="36.00" fill="#16a34a" stroke="#ffffff" stroke-width="0.5"/>
<rect x="451.93" y="400.00" width="64.02" height="36.00" fill="#a3a3a3" stroke="#ffffff" stroke-width="0.5"/>
<text x="483.93664831939907" y="416.0" text-anchor="middle" font-size="10" fill="#0f172a">post-comm</text>
<text x="483.93664831939907" y="429.0" text-anchor="middle" font-size="10" fill="#0f172a">0.259s</text>
<text x="523.9448149599176" y="422.0" font-size="11" fill="#374151">with compute  1.219s</text>
<rect x="220.00" y="442.00" width="63.16" height="36.00" fill="#94a3b8" stroke="#ffffff" stroke-width="0.5"/>
<text x="251.5789527882761" y="458.0" text-anchor="middle" font-size="10" fill="#0f172a">pre-comm</text>
<text x="251.5789527882761" y="471.0" text-anchor="middle" font-size="10" fill="#0f172a">0.256s</text>
<rect x="283.16" y="442.00" width="0.21" height="36.00" fill="#38bdf8" stroke="#ffffff" stroke-width="0.5"/>
<rect x="283.37" y="442.00" width="43.85" height="36.00" fill="#0ea5e9" stroke="#ffffff" stroke-width="0.5"/>
<text x="305.2901956591253" y="458.0" text-anchor="middle" font-size="10" fill="#0f172a">post-send</text>
<text x="305.2901956591253" y="471.0" text-anchor="middle" font-size="10" fill="#0f172a">0.178s</text>
<rect x="327.22" y="442.00" width="105.04" height="36.00" fill="#22c55e" stroke="#ffffff" stroke-width="0.5"/>
<text x="379.7373435782172" y="458.0" text-anchor="middle" font-size="10" fill="#0f172a">wait-recv</text>
<text x="379.7373435782172" y="471.0" text-anchor="middle" font-size="10" fill="#0f172a">0.425s</text>
<rect x="432.26" y="442.00" width="1.88" height="36.00" fill="#16a34a" stroke="#ffffff" stroke-width="0.5"/>
<rect x="434.14" y="442.00" width="69.18" height="36.00" fill="#a3a3a3" stroke="#ffffff" stroke-width="0.5"/>
<text x="468.73394034611215" y="458.0" text-anchor="middle" font-size="10" fill="#0f172a">post-comm</text>
<text x="468.73394034611215" y="471.0" text-anchor="middle" font-size="10" fill="#0f172a">0.280s</text>
<text x="511.3238607506403" y="464.0" font-size="11" fill="#374151">no midcomm    1.164s</text>
<rect x="220.00" y="534.00" width="14.00" height="14.00" fill="#94a3b8" stroke="#ffffff" stroke-width="0.5"/>
<text x="240" y="546" font-size="12">pre-comm</text>
<rect x="335.00" y="534.00" width="14.00" height="14.00" fill="#38bdf8" stroke="#ffffff" stroke-width="0.5"/>
<text x="355" y="546" font-size="12">post-recv</text>
<rect x="450.00" y="534.00" width="14.00" height="14.00" fill="#0ea5e9" stroke="#ffffff" stroke-width="0.5"/>
<text x="470" y="546" font-size="12">post-send</text>
<rect x="565.00" y="534.00" width="14.00" height="14.00" fill="#f97316" stroke="#ffffff" stroke-width="0.5"/>
<text x="585" y="546" font-size="12">mid-comm</text>
<rect x="680.00" y="534.00" width="14.00" height="14.00" fill="#22c55e" stroke="#ffffff" stroke-width="0.5"/>
<text x="700" y="546" font-size="12">wait-recv</text>
<rect x="795.00" y="534.00" width="14.00" height="14.00" fill="#16a34a" stroke="#ffffff" stroke-width="0.5"/>
<text x="815" y="546" font-size="12">wait-send</text>
<rect x="910.00" y="534.00" width="14.00" height="14.00" fill="#a3a3a3" stroke="#ffffff" stroke-width="0.5"/>
<text x="930" y="546" font-size="12">post-comm</text>
<text x="220" y="574" font-size="11" fill="#6b7280">paper overhead ratio on overlap window: for mpi rows, comm-window = wait-recv(mpi) − wait-recv(mock), measured-window = mid-comm(with) + residual wait-recv(with). 0 = perfect overlap, 1 = serialized.</text>
</svg>