<svg xmlns="http://www.w3.org/2000/svg" width="1240" height="638">
<style>text{font-family:-apple-system,Segoe UI,Roboto,sans-serif;fill:#111827;}</style>
<text x="620.0" y="36" text-anchor="middle" font-size="20" font-weight="700">cm4_inter / run_2_samll_mess_inter / case 01 (async0_c4_waitall)</text>
<text x="620.0" y="62" text-anchor="middle" font-size="13" fill="#4b5563">size 512_512_512  |  cutoff 500000  |  num_cycles 5</text>
<line x1="220.0" y1="92" x2="220.0" y2="488" stroke="#e5e7eb" stroke-dasharray="4 4"/>
<text x="220.0" y="506" text-anchor="middle" font-size="12">0.000s</text>
<line x1="412.0" y1="92" x2="412.0" y2="488" stroke="#e5e7eb" stroke-dasharray="4 4"/>
<text x="412.0" y="506" text-anchor="middle" font-size="12">0.492s</text>
<line x1="604.0" y1="92" x2="604.0" y2="488" stroke="#e5e7eb" stroke-dasharray="4 4"/>
<text x="604.0" y="506" text-anchor="middle" font-size="12">0.985s</text>
<line x1="796.0" y1="92" x2="796.0" y2="488" stroke="#e5e7eb" stroke-dasharray="4 4"/>
<text x="796.0" y="506" text-anchor="middle" font-size="12">1.477s</text>
<line x1="988.0" y1="92" x2="988.0" y2="488" stroke="#e5e7eb" stroke-dasharray="4 4"/>
<text x="988.0" y="506" text-anchor="middle" font-size="12">1.969s</text>
<line x1="1180.0" y1="92" x2="1180.0" y2="488" stroke="#e5e7eb" stroke-dasharray="4 4"/>
<text x="1180.0" y="506" text-anchor="middle" font-size="12">2.461s</text>
<line x1="220" y1="488" x2="1180" y2="488" stroke="#374151"/>
<text x="208" y="129.0" text-anchor="end" font-size="14" font-weight="700">mock seq</text>
<text x="208" y="147.0" text-anchor="end" font-size="11" fill="#374151">compute 0.541s  |  comm-window 0.213s  |  fixed mock 0.000s</text>
<text x="208" y="163.0" text-anchor="end" font-size="11" fill="#6b7280">measured-window 0.757s | ideal 0.541s / serial 0.754s | serialized Δ 0.213s → ratio 1.013x</text>
<rect x="220.00" y="100.00" width="192.45" height="36.00" fill="#94a3b8" stroke="#ffffff" stroke-width="0.5"/>
<text x="316.22606585805204" y="116.0" text-anchor="middle" font-size="10" fill="#0f172a">pre-comm</text>
<text x="316.22606585805204" y="129.0" text-anchor="middle" font-size="10" fill="#0f172a">0.493s</text>
<rect x="412.45" y="100.00" width="0.06" height="36.00" fill="#38bdf8" stroke="#ffffff" stroke-width="0.5"/>
<rect x="412.51" y="100.00" width="94.50" height="36.00" fill="#0ea5e9" stroke="#ffffff" stroke-width="0.5"/>
<text x="459.76196241031266" y="116.0" text-anchor="middle" font-size="10" fill="#0f172a">post-send</text>
<text x="459.76196241031266" y="129.0" text-anchor="middle" font-size="10" fill="#0f172a">0.242s</text>
<rect x="507.01" y="100.00" width="210.99" height="36.00" fill="#f97316" stroke="#ffffff" stroke-width="0.5"/>
<text x="612.5065646919948" y="116.0" text-anchor="middle" font-size="10" fill="#0f172a">mid-comm</text>
<text x="612.5065646919948" y="129.0" text-anchor="middle" font-size="10" fill="#0f172a">0.541s</text>
<rect x="718.00" y="100.00" width="84.17" height="36.00" fill="#22c55e" stroke="#ffffff" stroke-width="0.5"/>
<text x="760.0876497950023" y="116.0" text-anchor="middle" font-size="10" fill="#0f172a">wait-recv</text>
<text x="760.0876497950023" y="129.0" text-anchor="middle" font-size="10" fill="#0f172a">0.216s</text>
<rect x="802.18" y="100.00" width="1.38" height="36.00" fill="#16a34a" stroke="#ffffff" stroke-width="0.5"/>
<rect x="803.56" y="100.00" width="209.26" height="36.00" fill="#a3a3a3" stroke="#ffffff" stroke-width="0.5"/>
<text x="908.188013226196" y="116.0" text-anchor="middle" font-size="10" fill="#0f172a">post-comm</text>
<text x="908.188013226196" y="129.0" text-anchor="middle" font-size="10" fill="#0f172a">0.537s</text>
<text x="1020.8177310220174" y="122.0" font-size="11" fill="#374151">with compute  2.049s</text>
<rect x="220.00" y="142.00" width="186.19" height="36.00" fill="#94a3b8" stroke="#ffffff" stroke-width="0.5"/>
<text x="313.09339842169106" y="158.0" text-anchor="middle" font-size="10" fill="#0f172a">pre-comm</text>
<text x="313.09339842169106" y="171.0" text-anchor="middle" font-size="10" fill="#0f172a">0.477s</text>
<rect x="406.19" y="142.00" width="0.17" height="36.00" fill="#38bdf8" stroke="#ffffff" stroke-width="0.5"/>
<rect x="406.36" y="142.00" width="97.37" height="36.00" fill="#0ea5e9" stroke="#ffffff" stroke-width="0.5"/>
<text x="455.0470202191898" y="158.0" text-anchor="middle" font-size="10" fill="#0f172a">post-send</text>
<text x="455.0470202191898" y="171.0" text-anchor="middle" font-size="10" fill="#0f172a">0.250s</text>
<rect x="503.73" y="142.00" width="83.13" height="36.00" fill="#22c55e" stroke="#ffffff" stroke-width="0.5"/>
<text x="545.3012585509239" y="158.0" text-anchor="middle" font-size="10" fill="#0f172a">wait-recv</text>
<text x="545.3012585509239" y="171.0" text-anchor="middle" font-size="10" fill="#0f172a">0.213s</text>
<rect x="586.87" y="142.00" width="1.17" height="36.00" fill="#16a34a" stroke="#ffffff" stroke-width="0.5"/>
<rect x="588.04" y="142.00" width="205.91" height="36.00" fill="#a3a3a3" stroke="#ffffff" stroke-width="0.5"/>
<text x="690.9954229612549" y="158.0" text-anchor="middle" font-size="10" fill="#0f172a">post-comm</text>
<text x="690.9954229612549" y="171.0" text-anchor="middle" font-size="10" fill="#0f172a">0.528s</text>
<text x="801.9495578730258" y="164.0" font-size="11" fill="#374151">no midcomm    1.482s</text>
<text x="208" y="229.0" text-anchor="end" font-size="14" font-weight="700">mock omp</text>
<text x="208" y="247.0" text-anchor="end" font-size="11" fill="#374151">compute 0.214s  |  comm-window 0.142s  |  fixed mock 0.000s</text>
<text x="208" y="263.0" text-anchor="end" font-size="11" fill="#6b7280">measured-window 0.343s | ideal 0.214s / serial 0.355s | serialized Δ 0.142s → ratio 0.912x</text>
<rect x="220.00" y="200.00" width="71.35" height="36.00" fill="#94a3b8" stroke="#ffffff" stroke-width="0.5"/>
<text x="255.67545973423316" y="216.0" text-anchor="middle" font-size="10" fill="#0f172a">pre-comm</text>
<text x="255.67545973423316" y="229.0" text-anchor="middle" font-size="10" fill="#0f172a">0.183s</text>
<rect x="291.35" y="200.00" width="0.06" height="36.00" fill="#38bdf8" stroke="#ffffff" stroke-width="0.5"/>
<rect x="291.41" y="200.00" width="64.33" height="36.00" fill="#0ea5e9" stroke="#ffffff" stroke-width="0.5"/>
<text x="323.5782967682665" y="216.0" text-anchor="middle" font-size="10" fill="#0f172a">post-send</text>
<text x="323.5782967682665" y="229.0" text-anchor="middle" font-size="10" fill="#0f172a">0.165s</text>
<rect x="355.74" y="200.00" width="83.27" height="36.00" fill="#f97316" stroke="#ffffff" stroke-width="0.5"/>
<text x="397.38055365868024" y="216.0" text-anchor="middle" font-size="10" fill="#0f172a">mid-comm</text>
<text x="397.38055365868024" y="229.0" text-anchor="middle" font-size="10" fill="#0f172a">0.214s</text>
<rect x="439.02" y="200.00" width="50.46" height="36.00" fill="#22c55e" stroke="#ffffff" stroke-width="0.5"/>
<text x="464.2446224577039" y="216.0" text-anchor="middle" font-size="10" fill="#0f172a">wait-recv</text>
<text x="464.2446224577039" y="229.0" text-anchor="middle" font-size="10" fill="#0f172a">0.129s</text>
<rect x="489.47" y="200.00" width="1.75" height="36.00" fill="#16a34a" stroke="#ffffff" stroke-width="0.5"/>
<rect x="491.23" y="200.00" width="78.35" height="36.00" fill="#a3a3a3" stroke="#ffffff" stroke-width="0.5"/>
<text x="530.3980551634415" y="216.0" text-anchor="middle" font-size="10" fill="#0f172a">post-comm</text>
<text x="530.3980551634415" y="229.0" text-anchor="middle" font-size="10" fill="#0f172a">0.201s</text>
<text x="577.5708941796904" y="222.0" font-size="11" fill="#374151">with compute  0.905s</text>
<rect x="220.00" y="242.00" width="71.31" height="36.00" fill="#94a3b8" stroke="#ffffff" stroke-width="0.5"/>
<text x="255.65250881462768" y="258.0" text-anchor="middle" font-size="10" fill="#0f172a">pre-comm</text>
<text x="255.65250881462768" y="271.0" text-anchor="middle" font-size="10" fill="#0f172a">0.183s</text>
<rect x="291.31" y="242.00" width="0.06" height="36.00" fill="#38bdf8" stroke="#ffffff" stroke-width="0.5"/>
<rect x="291.36" y="242.00" width="60.87" height="36.00" fill="#0ea5e9" stroke="#ffffff" stroke-width="0.5"/>
<text x="321.79566874374075" y="258.0" text-anchor="middle" font-size="10" fill="#0f172a">post-send</text>
<text x="321.79566874374075" y="271.0" text-anchor="middle" font-size="10" fill="#0f172a">0.156s</text>
<rect x="352.23" y="242.00" width="55.33" height="36.00" fill="#22c55e" stroke="#ffffff" stroke-width="0.5"/>
<text x="379.8950924732777" y="258.0" text-anchor="middle" font-size="10" fill="#0f172a">wait-recv</text>
<text x="379.8950924732777" y="271.0" text-anchor="middle" font-size="10" fill="#0f172a">0.142s</text>
<rect x="407.56" y="242.00" width="2.15" height="36.00" fill="#16a34a" stroke="#ffffff" stroke-width="0.5"/>
<rect x="409.71" y="242.00" width="80.97" height="36.00" fill="#a3a3a3" stroke="#ffffff" stroke-width="0.5"/>
<text x="450.19685002803106" y="258.0" text-anchor="middle" font-size="10" fill="#0f172a">post-comm</text>
<text x="450.19685002803106" y="271.0" text-anchor="middle" font-size="10" fill="#0f172a">0.208s</text>
<text x="498.6807160853579" y="264.0" font-size="11" fill="#374151">no midcomm    0.697s</text>
<text x="208" y="329.0" text-anchor="end" font-size="14" font-weight="700">mpi  seq</text>
<text x="208" y="347.0" text-anchor="end" font-size="11" fill="#374151">compute 0.564s  |  comm-window 0.161s  |  fixed mock 0.213s</text>
<text x="208" y="363.0" text-anchor="end" font-size="11" fill="#6b7280">measured-window 0.707s | ideal 0.564s / serial 0.725s | serialized Δ 0.161s → ratio 0.889x</text>
<rect x="220.00" y="300.00" width="192.71" height="36.00" fill="#94a3b8" stroke="#ffffff" stroke-width="0.5"/>
<text x="316.3567210294652" y="316.0" text-anchor="middle" font-size="10" fill="#0f172a">pre-comm</text>
<text x="316.3567210294652" y="329.0" text-anchor="middle" font-size="10" fill="#0f172a">0.494s</text>
<rect x="412.71" y="300.00" width="0.05" height="36.00" fill="#38bdf8" stroke="#ffffff" stroke-width="0.5"/>
<rect x="412.77" y="300.00" width="92.06" height="36.00" fill="#0ea5e9" stroke="#ffffff" stroke-width="0.5"/>
<text x="458.79449325118003" y="316.0" text-anchor="middle" font-size="10" fill="#0f172a">post-send</text>
<text x="458.79449325118003" y="329.0" text-anchor="middle" font-size="10" fill="#0f172a">0.236s</text>
<rect x="504.82" y="300.00" width="220.06" height="36.00" fill="#f97316" stroke="#ffffff" stroke-width="0.5"/>
<text x="614.8526061535413" y="316.0" text-anchor="middle" font-size="10" fill="#0f172a">mid-comm</text>
<text x="614.8526061535413" y="329.0" text-anchor="middle" font-size="10" fill="#0f172a">0.564s</text>
<rect x="724.88" y="300.00" width="140.01" height="36.00" fill="#22c55e" stroke="#ffffff" stroke-width="0.5"/>
<text x="794.8870481917187" y="316.0" text-anchor="middle" font-size="10" fill="#0f172a">wait-recv</text>
<text x="794.8870481917187" y="329.0" text-anchor="middle" font-size="10" fill="#0f172a">0.359s</text>
<rect x="864.89" y="300.00" width="0.78" height="36.00" fill="#16a34a" stroke="#ffffff" stroke-width="0.5"/>
<rect x="865.67" y="300.00" width="211.47" height="36.00" fill="#a3a3a3" stroke="#ffffff" stroke-width="0.5"/>
<text x="971.4084424284844" y="316.0" text-anchor="middle" font-size="10" fill="#0f172a">post-comm</text>
<text x="971.4084424284844" y="329.0" text-anchor="middle" font-size="10" fill="#0f172a">0.542s</text>
<text x="1085.142857142857" y="322.0" font-size="11" fill="#374151">with compute  2.218s</text>
<rect x="220.00" y="342.00" width="183.53" height="36.00" fill="#94a3b8" stroke="#ffffff" stroke-width="0.5"/>
<text x="311.76280084412815" y="358.0" text-anchor="middle" font-size="10" fill="#0f172a">pre-comm</text>
<text x="311.76280084412815" y="371.0" text-anchor="middle" font-size="10" fill="#0f172a">0.471s</text>
<rect x="403.53" y="342.00" width="0.06" height="36.00" fill="#38bdf8" stroke="#ffffff" stroke-width="0.5"/>
<rect x="403.58" y="342.00" width="98.48" height="36.00" fill="#0ea5e9" stroke="#ffffff" stroke-width="0.5"/>
<text x="452.8200692552197" y="358.0" text-anchor="middle" font-size="10" fill="#0f172a">post-send</text>
<text x="452.8200692552197" y="371.0" text-anchor="middle" font-size="10" fill="#0f172a">0.253s</text>
<rect x="502.06" y="342.00" width="145.92" height="36.00" fill="#22c55e" stroke="#ffffff" stroke-width="0.5"/>
<text x="575.0168766399175" y="358.0" text-anchor="middle" font-size="10" fill="#0f172a">wait-recv</text>
<text x="575.0168766399175" y="371.0" text-anchor="middle" font-size="10" fill="#0f172a">0.374s</text>
<rect x="647.97" y="342.00" width="0.79" height="36.00" fill="#16a34a" stroke="#ffffff" stroke-width="0.5"/>
<rect x="648.76" y="342.00" width="202.67" height="36.00" fill="#a3a3a3" stroke="#ffffff" stroke-width="0.5"/>
<text x="750.0952528912258" y="358.0" text-anchor="middle" font-size="10" fill="#0f172a">post-comm</text>
<text x="750.0952528912258" y="371.0" text-anchor="middle" font-size="10" fill="#0f172a">0.520s</text>
<text x="859.428065576874" y="364.0" font-size="11" fill="#374151">no midcomm    1.633s</text>
<text x="208" y="429.0" text-anchor="end" font-size="14" font-weight="700">mpi  omp</text>
<text x="208" y="447.0" text-anchor="end" font-size="11" fill="#374151">compute 0.207s  |  comm-window 0.155s  |  fixed mock 0.142s</text>
<text x="208" y="463.0" text-anchor="end" font-size="11" fill="#6b7280">measured-window 0.366s | ideal 0.207s / serial 0.363s | serialized Δ 0.155s → ratio 1.022x</text>
<rect x="220.00" y="400.00" width="71.15" height="36.00" fill="#94a3b8" stroke="#ffffff" stroke-width="0.5"/>
<text x="255.57397901442948" y="416.0" text-anchor="middle" font-size="10" fill="#0f172a">pre-comm</text>
<text x="255.57397901442948" y="429.0" text-anchor="middle" font-size="10" fill="#0f172a">0.182s</text>
<rect x="291.15" y="400.00" width="0.06" height="36.00" fill="#38bdf8" stroke="#ffffff" stroke-width="0.5"/>
<rect x="291.21" y="400.00" width="65.85" height="36.00" fill="#0ea5e9" stroke="#ffffff" stroke-width="0.5"/>
<text x="324.13316515836846" y="416.0" text-anchor="middle" font-size="10" fill="#0f172a">post-send</text>
<text x="324.13316515836846" y="429.0" text-anchor="middle" font-size="10" fill="#0f172a">0.169s</text>
<rect x="357.06" y="400.00" width="80.85" height="36.00" fill="#f97316" stroke="#ffffff" stroke-width="0.5"/>
<text x="397.48601634694774" y="416.0" text-anchor="middle" font-size="10" fill="#0f172a">mid-comm</text>
<text x="397.48601634694774" y="429.0" text-anchor="middle" font-size="10" fill="#0f172a">0.207s</text>
<rect x="437.91" y="400.00" width="112.35" height="36.00" fill="#22c55e" stroke="#ffffff" stroke-width="0.5"/>
<text x="494.08745975903497" y="416.0" text-anchor="middle" font-size="10" fill="#0f172a">wait-recv</text>
<text x="494.08745975903497" y="429.0" text-anchor="middle" font-size="10" fill="#0f172a">0.288s</text>
<rect x="550.26" y="400.00" width="1.02" height="36.00" fill="#16a34a" stroke="#ffffff" stroke-width="0.5"/>
<rect x="551.28" y="400.00" width="77.54" height="36.00" fill="#a3a3a3" stroke="#ffffff" stroke-width="0.5"/>
<text x="590.0542228337774" y="416.0" text-anchor="middle" font-size="10" fill="#0f172a">post-comm</text>
<text x="590.0542228337774" y="429.0" text-anchor="middle" font-size="10" fill="#0f172a">0.199s</text>
<text x="636.8264284367559" y="422.0" font-size="11" fill="#374151">with compute  1.066s</text>
<rect x="220.00" y="442.00" width="72.10" height="36.00" fill="#94a3b8" stroke="#ffffff" stroke-width="0.5"/>
<text x="256.0503497798864" y="458.0" text-anchor="middle" font-size="10" fill="#0f172a">pre-comm</text>
<text x="256.0503497798864" y="471.0" text-anchor="middle" font-size="10" fill="#0f172a">0.185s</text>
<rect x="292.10" y="442.00" width="0.06" height="36.00" fill="#38bdf8" stroke="#ffffff" stroke-width="0.5"/>
<rect x="292.16" y="442.00" width="67.58" height="36.00" fill="#0ea5e9" stroke="#ffffff" stroke-width="0.5"/>
<text x="325.947687931275" y="458.0" text-anchor="middle" font-size="10" fill="#0f172a">post-send</text>
<text x="325.947687931275" y="471.0" text-anchor="middle" font-size="10" fill="#0f172a">0.173s</text>
<rect x="359.74" y="442.00" width="115.89" height="36.00" fill="#22c55e" stroke="#ffffff" stroke-width="0.5"/>
<text x="417.6822942156415" y="458.0" text-anchor="middle" font-size="10" fill="#0f172a">wait-recv</text>
<text x="417.6822942156415" y="471.0" text-anchor="middle" font-size="10" fill="#0f172a">0.297s</text>
<rect x="475.63" y="442.00" width="1.38" height="36.00" fill="#16a34a" stroke="#ffffff" stroke-width="0.5"/>
<rect x="477.00" y="442.00" width="82.10" height="36.00" fill="#a3a3a3" stroke="#ffffff" stroke-width="0.5"/>
<text x="518.0569598774367" y="458.0" text-anchor="middle" font-size="10" fill="#0f172a">post-comm</text>
<text x="518.0569598774367" y="471.0" text-anchor="middle" font-size="10" fill="#0f172a">0.211s</text>
<text x="567.1092100072467" y="464.0" font-size="11" fill="#374151">no midcomm    0.886s</text>
<rect x="220.00" y="534.00" width="14.00" height="14.00" fill="#94a3b8" stroke="#ffffff" stroke-width="0.5"/>
<text x="240" y="546" font-size="12">pre-comm</text>
<rect x="335.00" y="534.00" width="14.00" height="14.00" fill="#38bdf8" stroke="#ffffff" stroke-width="0.5"/>
<text x="355" y="546" font-size="12">post-recv</text>
<rect x="450.00" y="534.00" width="14.00" height="14.00" fill="#0ea5e9" stroke="#ffffff" stroke-width="0.5"/>
<text x="470" y="546" font-size="12">post-send</text>
<rect x="565.00" y="534.00" width="14.00" height="14.00" fill="#f97316" stroke="#ffffff" stroke-width="0.5"/>
<text x="585" y="546" font-size="12">mid-comm</text>
<rect x="680.00" y="534.00" width="14.00" height="14.00" fill="#22c55e" stroke="#ffffff" stroke-width="0.5"/>
<text x="700" y="546" font-size="12">wait-recv</text>
<rect x="795.00" y="534.00" width="14.00" height="14.00" fill="#16a34a" stroke="#ffffff" stroke-width="0.5"/>
<text x="815" y="546" font-size="12">wait-send</text>
<rect x="910.00" y="534.00" width="14.00" height="14.00" fill="#a3a3a3" stroke="#ffffff" stroke-width="0.5"/>
<text x="930" y="546" font-size="12">post-comm</text>
<text x="220" y="574" font-size="11" fill="#6b7280">paper overhead ratio on overlap window: for mpi rows, comm-window = wait-recv(mpi) − wait-recv(mock), measured-window = mid-comm(with) + residual wait-recv(with). 0 = perfect overlap, 1 = serialized.</text>
</svg>