<svg xmlns="http://www.w3.org/2000/svg" width="1240" height="638">
<style>text{font-family:-apple-system,Segoe UI,Roboto,sans-serif;fill:#111827;}</style>
<text x="620.0" y="36" text-anchor="middle" font-size="20" font-weight="700">cm4_inter / run_2_samll_mess_inter / case 03 (async0_c4_testall)</text>
<text x="620.0" y="62" text-anchor="middle" font-size="13" fill="#4b5563">size 512_512_512  |  cutoff 500000  |  num_cycles 5</text>
<line x1="220.0" y1="92" x2="220.0" y2="488" stroke="#e5e7eb" stroke-dasharray="4 4"/>
<text x="220.0" y="506" text-anchor="middle" font-size="12">0.000s</text>
<line x1="412.0" y1="92" x2="412.0" y2="488" stroke="#e5e7eb" stroke-dasharray="4 4"/>
<text x="412.0" y="506" text-anchor="middle" font-size="12">0.549s</text>
<line x1="604.0" y1="92" x2="604.0" y2="488" stroke="#e5e7eb" stroke-dasharray="4 4"/>
<text x="604.0" y="506" text-anchor="middle" font-size="12">1.098s</text>
<line x1="796.0" y1="92" x2="796.0" y2="488" stroke="#e5e7eb" stroke-dasharray="4 4"/>
<text x="796.0" y="506" text-anchor="middle" font-size="12">1.647s</text>
<line x1="988.0" y1="92" x2="988.0" y2="488" stroke="#e5e7eb" stroke-dasharray="4 4"/>
<text x="988.0" y="506" text-anchor="middle" font-size="12">2.196s</text>
<line x1="1180.0" y1="92" x2="1180.0" y2="488" stroke="#e5e7eb" stroke-dasharray="4 4"/>
<text x="1180.0" y="506" text-anchor="middle" font-size="12">2.745s</text>
<line x1="220" y1="488" x2="1180" y2="488" stroke="#374151"/>
<text x="208" y="129.0" text-anchor="end" font-size="14" font-weight="700">mock seq</text>
<text x="208" y="147.0" text-anchor="end" font-size="11" fill="#374151">compute 0.561s  |  comm-window 0.223s  |  fixed mock 0.000s</text>
<text x="208" y="163.0" text-anchor="end" font-size="11" fill="#6b7280">measured-window 0.787s | ideal 0.561s / serial 0.785s | serialized Δ 0.223s → ratio 1.009x</text>
<rect x="220.00" y="100.00" width="179.34" height="36.00" fill="#94a3b8" stroke="#ffffff" stroke-width="0.5"/>
<text x="309.66756031337377" y="116.0" text-anchor="middle" font-size="10" fill="#0f172a">pre-comm</text>
<text x="309.66756031337377" y="129.0" text-anchor="middle" font-size="10" fill="#0f172a">0.513s</text>
<rect x="399.34" y="100.00" width="0.16" height="36.00" fill="#38bdf8" stroke="#ffffff" stroke-width="0.5"/>
<rect x="399.50" y="100.00" width="88.84" height="36.00" fill="#0ea5e9" stroke="#ffffff" stroke-width="0.5"/>
<text x="443.9155067146768" y="116.0" text-anchor="middle" font-size="10" fill="#0f172a">post-send</text>
<text x="443.9155067146768" y="129.0" text-anchor="middle" font-size="10" fill="#0f172a">0.254s</text>
<rect x="488.33" y="100.00" width="196.34" height="36.00" fill="#f97316" stroke="#ffffff" stroke-width="0.5"/>
<text x="586.5024330841236" y="116.0" text-anchor="middle" font-size="10" fill="#0f172a">mid-comm</text>
<text x="586.5024330841236" y="129.0" text-anchor="middle" font-size="10" fill="#0f172a">0.561s</text>
<rect x="684.67" y="100.00" width="78.86" height="36.00" fill="#22c55e" stroke="#ffffff" stroke-width="0.5"/>
<text x="724.0996859570452" y="116.0" text-anchor="middle" font-size="10" fill="#0f172a">wait-recv</text>
<text x="724.0996859570452" y="129.0" text-anchor="middle" font-size="10" fill="#0f172a">0.226s</text>
<rect x="763.53" y="100.00" width="1.16" height="36.00" fill="#16a34a" stroke="#ffffff" stroke-width="0.5"/>
<rect x="764.69" y="100.00" width="195.61" height="36.00" fill="#a3a3a3" stroke="#ffffff" stroke-width="0.5"/>
<text x="862.493668371173" y="116.0" text-anchor="middle" font-size="10" fill="#0f172a">post-comm</text>
<text x="862.493668371173" y="129.0" text-anchor="middle" font-size="10" fill="#0f172a">0.559s</text>
<text x="968.2984454038974" y="122.0" font-size="11" fill="#374151">with compute  2.219s</text>
<rect x="220.00" y="142.00" width="174.62" height="36.00" fill="#94a3b8" stroke="#ffffff" stroke-width="0.5"/>
<text x="307.3101376630037" y="158.0" text-anchor="middle" font-size="10" fill="#0f172a">pre-comm</text>
<text x="307.3101376630037" y="171.0" text-anchor="middle" font-size="10" fill="#0f172a">0.499s</text>
<rect x="394.62" y="142.00" width="0.16" height="36.00" fill="#38bdf8" stroke="#ffffff" stroke-width="0.5"/>
<rect x="394.78" y="142.00" width="91.88" height="36.00" fill="#0ea5e9" stroke="#ffffff" stroke-width="0.5"/>
<text x="440.71782187536155" y="158.0" text-anchor="middle" font-size="10" fill="#0f172a">post-send</text>
<text x="440.71782187536155" y="171.0" text-anchor="middle" font-size="10" fill="#0f172a">0.263s</text>
<rect x="486.66" y="142.00" width="78.15" height="36.00" fill="#22c55e" stroke="#ffffff" stroke-width="0.5"/>
<text x="525.7282499698758" y="158.0" text-anchor="middle" font-size="10" fill="#0f172a">wait-recv</text>
<text x="525.7282499698758" y="171.0" text-anchor="middle" font-size="10" fill="#0f172a">0.223s</text>
<rect x="564.80" y="142.00" width="1.16" height="36.00" fill="#16a34a" stroke="#ffffff" stroke-width="0.5"/>
<rect x="565.96" y="142.00" width="192.49" height="36.00" fill="#a3a3a3" stroke="#ffffff" stroke-width="0.5"/>
<text x="662.2065030257583" y="158.0" text-anchor="middle" font-size="10" fill="#0f172a">post-comm</text>
<text x="662.2065030257583" y="171.0" text-anchor="middle" font-size="10" fill="#0f172a">0.550s</text>
<text x="766.4511210868728" y="164.0" font-size="11" fill="#374151">no midcomm    1.626s</text>
<text x="208" y="229.0" text-anchor="end" font-size="14" font-weight="700">mock omp</text>
<text x="208" y="247.0" text-anchor="end" font-size="11" fill="#374151">compute 0.222s  |  comm-window 0.151s  |  fixed mock 0.000s</text>
<text x="208" y="263.0" text-anchor="end" font-size="11" fill="#6b7280">measured-window 0.357s | ideal 0.222s / serial 0.373s | serialized Δ 0.151s → ratio 0.895x</text>
<rect x="220.00" y="200.00" width="66.77" height="36.00" fill="#94a3b8" stroke="#ffffff" stroke-width="0.5"/>
<text x="253.38314515218067" y="216.0" text-anchor="middle" font-size="10" fill="#0f172a">pre-comm</text>
<text x="253.38314515218067" y="229.0" text-anchor="middle" font-size="10" fill="#0f172a">0.191s</text>
<rect x="286.77" y="200.00" width="0.21" height="36.00" fill="#38bdf8" stroke="#ffffff" stroke-width="0.5"/>
<rect x="286.97" y="200.00" width="61.09" height="36.00" fill="#0ea5e9" stroke="#ffffff" stroke-width="0.5"/>
<text x="317.51906064834196" y="216.0" text-anchor="middle" font-size="10" fill="#0f172a">post-send</text>
<text x="317.51906064834196" y="229.0" text-anchor="middle" font-size="10" fill="#0f172a">0.175s</text>
<rect x="348.07" y="200.00" width="77.47" height="36.00" fill="#f97316" stroke="#ffffff" stroke-width="0.5"/>
<text x="386.80185218027714" y="216.0" text-anchor="middle" font-size="10" fill="#0f172a">mid-comm</text>
<text x="386.80185218027714" y="229.0" text-anchor="middle" font-size="10" fill="#0f172a">0.222s</text>
<rect x="425.54" y="200.00" width="47.24" height="36.00" fill="#22c55e" stroke="#ffffff" stroke-width="0.5"/>
<text x="449.15791469438784" y="216.0" text-anchor="middle" font-size="10" fill="#0f172a">wait-recv</text>
<text x="449.15791469438784" y="229.0" text-anchor="middle" font-size="10" fill="#0f172a">0.135s</text>
<rect x="472.78" y="200.00" width="1.72" height="36.00" fill="#16a34a" stroke="#ffffff" stroke-width="0.5"/>
<rect x="474.50" y="200.00" width="73.30" height="36.00" fill="#a3a3a3" stroke="#ffffff" stroke-width="0.5"/>
<text x="511.1457457511718" y="216.0" text-anchor="middle" font-size="10" fill="#0f172a">post-comm</text>
<text x="511.1457457511718" y="229.0" text-anchor="middle" font-size="10" fill="#0f172a">0.210s</text>
<text x="555.7961639874475" y="222.0" font-size="11" fill="#374151">with compute  0.993s</text>
<rect x="220.00" y="242.00" width="72.42" height="36.00" fill="#94a3b8" stroke="#ffffff" stroke-width="0.5"/>
<text x="256.2107347350452" y="258.0" text-anchor="middle" font-size="10" fill="#0f172a">pre-comm</text>
<text x="256.2107347350452" y="271.0" text-anchor="middle" font-size="10" fill="#0f172a">0.207s</text>
<rect x="292.42" y="242.00" width="0.34" height="36.00" fill="#38bdf8" stroke="#ffffff" stroke-width="0.5"/>
<rect x="292.76" y="242.00" width="65.61" height="36.00" fill="#0ea5e9" stroke="#ffffff" stroke-width="0.5"/>
<text x="325.5669356496453" y="258.0" text-anchor="middle" font-size="10" fill="#0f172a">post-send</text>
<text x="325.5669356496453" y="271.0" text-anchor="middle" font-size="10" fill="#0f172a">0.188s</text>
<rect x="358.37" y="242.00" width="52.78" height="36.00" fill="#22c55e" stroke="#ffffff" stroke-width="0.5"/>
<text x="384.76159971001283" y="258.0" text-anchor="middle" font-size="10" fill="#0f172a">wait-recv</text>
<text x="384.76159971001283" y="271.0" text-anchor="middle" font-size="10" fill="#0f172a">0.151s</text>
<rect x="411.15" y="242.00" width="2.08" height="36.00" fill="#16a34a" stroke="#ffffff" stroke-width="0.5"/>
<rect x="413.24" y="242.00" width="85.41" height="36.00" fill="#a3a3a3" stroke="#ffffff" stroke-width="0.5"/>
<text x="455.94188037096154" y="258.0" text-anchor="middle" font-size="10" fill="#0f172a">post-comm</text>
<text x="455.94188037096154" y="271.0" text-anchor="middle" font-size="10" fill="#0f172a">0.244s</text>
<text x="506.6482531561796" y="264.0" font-size="11" fill="#374151">no midcomm    1.003s</text>
<text x="208" y="329.0" text-anchor="end" font-size="14" font-weight="700">mpi  seq</text>
<text x="208" y="347.0" text-anchor="end" font-size="11" fill="#374151">compute 0.600s  |  comm-window 0.221s  |  fixed mock 0.223s</text>
<text x="208" y="363.0" text-anchor="end" font-size="11" fill="#6b7280">measured-window 0.752s | ideal 0.600s / serial 0.821s | serialized Δ 0.221s → ratio 0.685x</text>
<rect x="220.00" y="300.00" width="186.32" height="36.00" fill="#94a3b8" stroke="#ffffff" stroke-width="0.5"/>
<text x="313.1619887238212" y="316.0" text-anchor="middle" font-size="10" fill="#0f172a">pre-comm</text>
<text x="313.1619887238212" y="329.0" text-anchor="middle" font-size="10" fill="#0f172a">0.533s</text>
<rect x="406.32" y="300.00" width="0.05" height="36.00" fill="#38bdf8" stroke="#ffffff" stroke-width="0.5"/>
<rect x="406.37" y="300.00" width="87.69" height="36.00" fill="#0ea5e9" stroke="#ffffff" stroke-width="0.5"/>
<text x="450.2183543275992" y="316.0" text-anchor="middle" font-size="10" fill="#0f172a">post-send</text>
<text x="450.2183543275992" y="329.0" text-anchor="middle" font-size="10" fill="#0f172a">0.251s</text>
<rect x="494.06" y="300.00" width="209.86" height="36.00" fill="#f97316" stroke="#ffffff" stroke-width="0.5"/>
<text x="598.9927974342485" y="316.0" text-anchor="middle" font-size="10" fill="#0f172a">mid-comm</text>
<text x="598.9927974342485" y="329.0" text-anchor="middle" font-size="10" fill="#0f172a">0.600s</text>
<rect x="703.92" y="300.00" width="131.80" height="36.00" fill="#22c55e" stroke="#ffffff" stroke-width="0.5"/>
<text x="769.8235923599636" y="316.0" text-anchor="middle" font-size="10" fill="#0f172a">wait-recv</text>
<text x="769.8235923599636" y="329.0" text-anchor="middle" font-size="10" fill="#0f172a">0.377s</text>
<rect x="835.73" y="300.00" width="40.98" height="36.00" fill="#16a34a" stroke="#ffffff" stroke-width="0.5"/>
<text x="856.2159601913697" y="316.0" text-anchor="middle" font-size="10" fill="#0f172a">wait-send</text>
<text x="856.2159601913697" y="329.0" text-anchor="middle" font-size="10" fill="#0f172a">0.117s</text>
<rect x="876.71" y="300.00" width="200.44" height="36.00" fill="#a3a3a3" stroke="#ffffff" stroke-width="0.5"/>
<text x="976.9245537841609" y="316.0" text-anchor="middle" font-size="10" fill="#0f172a">post-comm</text>
<text x="976.9245537841609" y="329.0" text-anchor="middle" font-size="10" fill="#0f172a">0.573s</text>
<text x="1085.1428571428569" y="322.0" font-size="11" fill="#374151">with compute  2.490s</text>
<rect x="220.00" y="342.00" width="172.53" height="36.00" fill="#94a3b8" stroke="#ffffff" stroke-width="0.5"/>
<text x="306.2660421144184" y="358.0" text-anchor="middle" font-size="10" fill="#0f172a">pre-comm</text>
<text x="306.2660421144184" y="371.0" text-anchor="middle" font-size="10" fill="#0f172a">0.493s</text>
<rect x="392.53" y="342.00" width="0.16" height="36.00" fill="#38bdf8" stroke="#ffffff" stroke-width="0.5"/>
<rect x="392.69" y="342.00" width="91.78" height="36.00" fill="#0ea5e9" stroke="#ffffff" stroke-width="0.5"/>
<text x="438.584010535561" y="358.0" text-anchor="middle" font-size="10" fill="#0f172a">post-send</text>
<text x="438.584010535561" y="371.0" text-anchor="middle" font-size="10" fill="#0f172a">0.262s</text>
<rect x="484.48" y="342.00" width="155.41" height="36.00" fill="#22c55e" stroke="#ffffff" stroke-width="0.5"/>
<text x="562.1828407904034" y="358.0" text-anchor="middle" font-size="10" fill="#0f172a">wait-recv</text>
<text x="562.1828407904034" y="371.0" text-anchor="middle" font-size="10" fill="#0f172a">0.444s</text>
<rect x="639.89" y="342.00" width="0.71" height="36.00" fill="#16a34a" stroke="#ffffff" stroke-width="0.5"/>
<rect x="640.60" y="342.00" width="190.41" height="36.00" fill="#a3a3a3" stroke="#ffffff" stroke-width="0.5"/>
<text x="735.8027883759603" y="358.0" text-anchor="middle" font-size="10" fill="#0f172a">post-comm</text>
<text x="735.8027883759603" y="371.0" text-anchor="middle" font-size="10" fill="#0f172a">0.545s</text>
<text x="839.0061599135108" y="364.0" font-size="11" fill="#374151">no midcomm    1.771s</text>
<text x="208" y="429.0" text-anchor="end" font-size="14" font-weight="700">mpi  omp</text>
<text x="208" y="447.0" text-anchor="end" font-size="11" fill="#374151">compute 0.208s  |  comm-window 0.215s  |  fixed mock 0.151s</text>
<text x="208" y="463.0" text-anchor="end" font-size="11" fill="#6b7280">measured-window 0.360s | ideal 0.215s / serial 0.423s | serialized Δ 0.208s → ratio 0.701x</text>
<rect x="220.00" y="400.00" width="63.57" height="36.00" fill="#94a3b8" stroke="#ffffff" stroke-width="0.5"/>
<text x="251.7857416693702" y="416.0" text-anchor="middle" font-size="10" fill="#0f172a">pre-comm</text>
<text x="251.7857416693702" y="429.0" text-anchor="middle" font-size="10" fill="#0f172a">0.182s</text>
<rect x="283.57" y="400.00" width="0.18" height="36.00" fill="#38bdf8" stroke="#ffffff" stroke-width="0.5"/>
<rect x="283.75" y="400.00" width="59.14" height="36.00" fill="#0ea5e9" stroke="#ffffff" stroke-width="0.5"/>
<text x="313.323741485603" y="416.0" text-anchor="middle" font-size="10" fill="#0f172a">post-send</text>
<text x="313.323741485603" y="429.0" text-anchor="middle" font-size="10" fill="#0f172a">0.169s</text>
<rect x="342.90" y="400.00" width="72.65" height="36.00" fill="#f97316" stroke="#ffffff" stroke-width="0.5"/>
<text x="379.22232839346617" y="416.0" text-anchor="middle" font-size="10" fill="#0f172a">mid-comm</text>
<text x="379.22232839346617" y="429.0" text-anchor="middle" font-size="10" fill="#0f172a">0.208s</text>
<rect x="415.55" y="400.00" width="100.62" height="36.00" fill="#22c55e" stroke="#ffffff" stroke-width="0.5"/>
<text x="465.8585330779059" y="416.0" text-anchor="middle" font-size="10" fill="#0f172a">wait-recv</text>
<text x="465.8585330779059" y="429.0" text-anchor="middle" font-size="10" fill="#0f172a">0.288s</text>
<rect x="516.17" y="400.00" width="1.55" height="36.00" fill="#16a34a" stroke="#ffffff" stroke-width="0.5"/>
<rect x="517.72" y="400.00" width="69.27" height="36.00" fill="#a3a3a3" stroke="#ffffff" stroke-width="0.5"/>
<text x="552.3557361132293" y="416.0" text-anchor="middle" font-size="10" fill="#0f172a">post-comm</text>
<text x="552.3557361132293" y="429.0" text-anchor="middle" font-size="10" fill="#0f172a">0.198s</text>
<text x="594.9920501417167" y="422.0" font-size="11" fill="#374151">with compute  1.072s</text>
<rect x="220.00" y="442.00" width="71.97" height="36.00" fill="#94a3b8" stroke="#ffffff" stroke-width="0.5"/>
<text x="255.98705960771383" y="458.0" text-anchor="middle" font-size="10" fill="#0f172a">pre-comm</text>
<text x="255.98705960771383" y="471.0" text-anchor="middle" font-size="10" fill="#0f172a">0.206s</text>
<rect x="291.97" y="442.00" width="0.05" height="36.00" fill="#38bdf8" stroke="#ffffff" stroke-width="0.5"/>
<rect x="292.03" y="442.00" width="58.79" height="36.00" fill="#0ea5e9" stroke="#ffffff" stroke-width="0.5"/>
<text x="321.4212379530779" y="458.0" text-anchor="middle" font-size="10" fill="#0f172a">post-send</text>
<text x="321.4212379530779" y="471.0" text-anchor="middle" font-size="10" fill="#0f172a">0.168s</text>
<rect x="350.82" y="442.00" width="127.90" height="36.00" fill="#22c55e" stroke="#ffffff" stroke-width="0.5"/>
<text x="414.7648115901478" y="458.0" text-anchor="middle" font-size="10" fill="#0f172a">wait-recv</text>
<text x="414.7648115901478" y="471.0" text-anchor="middle" font-size="10" fill="#0f172a">0.366s</text>
<rect x="478.71" y="442.00" width="1.06" height="36.00" fill="#16a34a" stroke="#ffffff" stroke-width="0.5"/>
<rect x="479.77" y="442.00" width="80.45" height="36.00" fill="#a3a3a3" stroke="#ffffff" stroke-width="0.5"/>
<text x="519.9973482824189" y="458.0" text-anchor="middle" font-size="10" fill="#0f172a">post-comm</text>
<text x="519.9973482824189" y="471.0" text-anchor="middle" font-size="10" fill="#0f172a">0.230s</text>
<text x="568.2205251960795" y="464.0" font-size="11" fill="#374151">no midcomm    0.992s</text>
<rect x="220.00" y="534.00" width="14.00" height="14.00" fill="#94a3b8" stroke="#ffffff" stroke-width="0.5"/>
<text x="240" y="546" font-size="12">pre-comm</text>
<rect x="335.00" y="534.00" width="14.00" height="14.00" fill="#38bdf8" stroke="#ffffff" stroke-width="0.5"/>
<text x="355" y="546" font-size="12">post-recv</text>
<rect x="450.00" y="534.00" width="14.00" height="14.00" fill="#0ea5e9" stroke="#ffffff" stroke-width="0.5"/>
<text x="470" y="546" font-size="12">post-send</text>
<rect x="565.00" y="534.00" width="14.00" height="14.00" fill="#f97316" stroke="#ffffff" stroke-width="0.5"/>
<text x="585" y="546" font-size="12">mid-comm</text>
<rect x="680.00" y="534.00" width="14.00" height="14.00" fill="#22c55e" stroke="#ffffff" stroke-width="0.5"/>
<text x="700" y="546" font-size="12">wait-recv</text>
<rect x="795.00" y="534.00" width="14.00" height="14.00" fill="#16a34a" stroke="#ffffff" stroke-width="0.5"/>
<text x="815" y="546" font-size="12">wait-send</text>
<rect x="910.00" y="534.00" width="14.00" height="14.00" fill="#a3a3a3" stroke="#ffffff" stroke-width="0.5"/>
<text x="930" y="546" font-size="12">post-comm</text>
<text x="220" y="574" font-size="11" fill="#6b7280">paper overhead ratio on overlap window: for mpi rows, comm-window = wait-recv(mpi) − wait-recv(mock), measured-window = mid-comm(with) + residual wait-recv(with). 0 = perfect overlap, 1 = serialized.</text>
</svg>