<svg xmlns="http://www.w3.org/2000/svg" width="1240" height="638">
<style>text{font-family:-apple-system,Segoe UI,Roboto,sans-serif;fill:#111827;}</style>
<text x="620.0" y="36" text-anchor="middle" font-size="20" font-weight="700">cm4_inter / run_2_samll_mess_inter / case 04 (async1_c1_waitall)</text>
<text x="620.0" y="62" text-anchor="middle" font-size="13" fill="#4b5563">size 512_512_512  |  cutoff 500000  |  num_cycles 5</text>
<line x1="220.0" y1="92" x2="220.0" y2="488" stroke="#e5e7eb" stroke-dasharray="4 4"/>
<text x="220.0" y="506" text-anchor="middle" font-size="12">0.000s</text>
<line x1="412.0" y1="92" x2="412.0" y2="488" stroke="#e5e7eb" stroke-dasharray="4 4"/>
<text x="412.0" y="506" text-anchor="middle" font-size="12">0.996s</text>
<line x1="604.0" y1="92" x2="604.0" y2="488" stroke="#e5e7eb" stroke-dasharray="4 4"/>
<text x="604.0" y="506" text-anchor="middle" font-size="12">1.992s</text>
<line x1="796.0" y1="92" x2="796.0" y2="488" stroke="#e5e7eb" stroke-dasharray="4 4"/>
<text x="796.0" y="506" text-anchor="middle" font-size="12">2.988s</text>
<line x1="988.0" y1="92" x2="988.0" y2="488" stroke="#e5e7eb" stroke-dasharray="4 4"/>
<text x="988.0" y="506" text-anchor="middle" font-size="12">3.984s</text>
<line x1="1180.0" y1="92" x2="1180.0" y2="488" stroke="#e5e7eb" stroke-dasharray="4 4"/>
<text x="1180.0" y="506" text-anchor="middle" font-size="12">4.980s</text>
<line x1="220" y1="488" x2="1180" y2="488" stroke="#374151"/>
<text x="208" y="129.0" text-anchor="end" font-size="14" font-weight="700">mock seq</text>
<text x="208" y="147.0" text-anchor="end" font-size="11" fill="#374151">compute 1.077s  |  comm-window 0.421s  |  fixed mock 0.000s</text>
<text x="208" y="163.0" text-anchor="end" font-size="11" fill="#6b7280">measured-window 1.506s | ideal 1.077s / serial 1.497s | serialized Δ 0.421s → ratio 1.019x</text>
<rect x="220.00" y="100.00" width="187.22" height="36.00" fill="#94a3b8" stroke="#ffffff" stroke-width="0.5"/>
<text x="313.6094232917034" y="116.0" text-anchor="middle" font-size="10" fill="#0f172a">pre-comm</text>
<text x="313.6094232917034" y="129.0" text-anchor="middle" font-size="10" fill="#0f172a">0.971s</text>
<rect x="407.22" y="100.00" width="0.02" height="36.00" fill="#38bdf8" stroke="#ffffff" stroke-width="0.5"/>
<rect x="407.24" y="100.00" width="91.86" height="36.00" fill="#0ea5e9" stroke="#ffffff" stroke-width="0.5"/>
<text x="453.1684178762335" y="116.0" text-anchor="middle" font-size="10" fill="#0f172a">post-send</text>
<text x="453.1684178762335" y="129.0" text-anchor="middle" font-size="10" fill="#0f172a">0.476s</text>
<rect x="499.10" y="100.00" width="207.59" height="36.00" fill="#f97316" stroke="#ffffff" stroke-width="0.5"/>
<text x="602.8912740814909" y="116.0" text-anchor="middle" font-size="10" fill="#0f172a">mid-comm</text>
<text x="602.8912740814909" y="129.0" text-anchor="middle" font-size="10" fill="#0f172a">1.077s</text>
<rect x="706.69" y="100.00" width="82.66" height="36.00" fill="#22c55e" stroke="#ffffff" stroke-width="0.5"/>
<text x="748.0140869270408" y="116.0" text-anchor="middle" font-size="10" fill="#0f172a">wait-recv</text>
<text x="748.0140869270408" y="129.0" text-anchor="middle" font-size="10" fill="#0f172a">0.429s</text>
<rect x="789.34" y="100.00" width="1.23" height="36.00" fill="#16a34a" stroke="#ffffff" stroke-width="0.5"/>
<rect x="790.57" y="100.00" width="204.84" height="36.00" fill="#a3a3a3" stroke="#ffffff" stroke-width="0.5"/>
<text x="892.9914970380216" y="116.0" text-anchor="middle" font-size="10" fill="#0f172a">post-comm</text>
<text x="892.9914970380216" y="129.0" text-anchor="middle" font-size="10" fill="#0f172a">1.063s</text>
<text x="1003.411254538849" y="122.0" font-size="11" fill="#374151">with compute  4.042s</text>
<rect x="220.00" y="142.00" width="182.53" height="36.00" fill="#94a3b8" stroke="#ffffff" stroke-width="0.5"/>
<text x="311.2642730105178" y="158.0" text-anchor="middle" font-size="10" fill="#0f172a">pre-comm</text>
<text x="311.2642730105178" y="171.0" text-anchor="middle" font-size="10" fill="#0f172a">0.947s</text>
<rect x="402.53" y="142.00" width="0.03" height="36.00" fill="#38bdf8" stroke="#ffffff" stroke-width="0.5"/>
<rect x="402.56" y="142.00" width="96.81" height="36.00" fill="#0ea5e9" stroke="#ffffff" stroke-width="0.5"/>
<text x="450.96274841916124" y="158.0" text-anchor="middle" font-size="10" fill="#0f172a">post-send</text>
<text x="450.96274841916124" y="171.0" text-anchor="middle" font-size="10" fill="#0f172a">0.502s</text>
<rect x="499.37" y="142.00" width="81.10" height="36.00" fill="#22c55e" stroke="#ffffff" stroke-width="0.5"/>
<text x="539.9204640562683" y="158.0" text-anchor="middle" font-size="10" fill="#0f172a">wait-recv</text>
<text x="539.9204640562683" y="171.0" text-anchor="middle" font-size="10" fill="#0f172a">0.421s</text>
<rect x="580.47" y="142.00" width="0.65" height="36.00" fill="#16a34a" stroke="#ffffff" stroke-width="0.5"/>
<rect x="581.12" y="142.00" width="201.59" height="36.00" fill="#a3a3a3" stroke="#ffffff" stroke-width="0.5"/>
<text x="681.9140053342129" y="158.0" text-anchor="middle" font-size="10" fill="#0f172a">post-comm</text>
<text x="681.9140053342129" y="171.0" text-anchor="middle" font-size="10" fill="#0f172a">1.046s</text>
<text x="790.7074742617415" y="164.0" font-size="11" fill="#374151">no midcomm    2.944s</text>
<text x="208" y="229.0" text-anchor="end" font-size="14" font-weight="700">mock omp</text>
<text x="208" y="247.0" text-anchor="end" font-size="11" fill="#374151">compute 1.091s  |  comm-window 0.441s  |  fixed mock 0.000s</text>
<text x="208" y="263.0" text-anchor="end" font-size="11" fill="#6b7280">measured-window 1.528s | ideal 1.091s / serial 1.531s | serialized Δ 0.441s → ratio 0.993x</text>
<rect x="220.00" y="200.00" width="183.15" height="36.00" fill="#94a3b8" stroke="#ffffff" stroke-width="0.5"/>
<text x="311.5770397209537" y="216.0" text-anchor="middle" font-size="10" fill="#0f172a">pre-comm</text>
<text x="311.5770397209537" y="229.0" text-anchor="middle" font-size="10" fill="#0f172a">0.950s</text>
<rect x="403.15" y="200.00" width="0.02" height="36.00" fill="#38bdf8" stroke="#ffffff" stroke-width="0.5"/>
<rect x="403.18" y="200.00" width="93.42" height="36.00" fill="#0ea5e9" stroke="#ffffff" stroke-width="0.5"/>
<text x="449.88827904889035" y="216.0" text-anchor="middle" font-size="10" fill="#0f172a">post-send</text>
<text x="449.88827904889035" y="229.0" text-anchor="middle" font-size="10" fill="#0f172a">0.485s</text>
<rect x="496.60" y="200.00" width="210.25" height="36.00" fill="#f97316" stroke="#ffffff" stroke-width="0.5"/>
<text x="601.7216801386782" y="216.0" text-anchor="middle" font-size="10" fill="#0f172a">mid-comm</text>
<text x="601.7216801386782" y="229.0" text-anchor="middle" font-size="10" fill="#0f172a">1.091s</text>
<rect x="706.84" y="200.00" width="84.34" height="36.00" fill="#22c55e" stroke="#ffffff" stroke-width="0.5"/>
<text x="749.0141480491059" y="216.0" text-anchor="middle" font-size="10" fill="#0f172a">wait-recv</text>
<text x="749.0141480491059" y="229.0" text-anchor="middle" font-size="10" fill="#0f172a">0.437s</text>
<rect x="791.18" y="200.00" width="1.21" height="36.00" fill="#16a34a" stroke="#ffffff" stroke-width="0.5"/>
<rect x="792.39" y="200.00" width="208.38" height="36.00" fill="#a3a3a3" stroke="#ffffff" stroke-width="0.5"/>
<text x="896.5817985160471" y="216.0" text-anchor="middle" font-size="10" fill="#0f172a">post-comm</text>
<text x="896.5817985160471" y="229.0" text-anchor="middle" font-size="10" fill="#0f172a">1.081s</text>
<text x="1008.7733138359853" y="222.0" font-size="11" fill="#374151">with compute  4.120s</text>
<rect x="220.00" y="242.00" width="181.22" height="36.00" fill="#94a3b8" stroke="#ffffff" stroke-width="0.5"/>
<text x="310.6093878889255" y="258.0" text-anchor="middle" font-size="10" fill="#0f172a">pre-comm</text>
<text x="310.6093878889255" y="271.0" text-anchor="middle" font-size="10" fill="#0f172a">0.940s</text>
<rect x="401.22" y="242.00" width="0.02" height="36.00" fill="#38bdf8" stroke="#ffffff" stroke-width="0.5"/>
<rect x="401.24" y="242.00" width="96.73" height="36.00" fill="#0ea5e9" stroke="#ffffff" stroke-width="0.5"/>
<text x="449.6056115677105" y="258.0" text-anchor="middle" font-size="10" fill="#0f172a">post-send</text>
<text x="449.6056115677105" y="271.0" text-anchor="middle" font-size="10" fill="#0f172a">0.502s</text>
<rect x="497.97" y="242.00" width="84.95" height="36.00" fill="#22c55e" stroke="#ffffff" stroke-width="0.5"/>
<text x="540.4449456925217" y="258.0" text-anchor="middle" font-size="10" fill="#0f172a">wait-recv</text>
<text x="540.4449456925217" y="271.0" text-anchor="middle" font-size="10" fill="#0f172a">0.441s</text>
<rect x="582.92" y="242.00" width="2.32" height="36.00" fill="#16a34a" stroke="#ffffff" stroke-width="0.5"/>
<rect x="585.24" y="242.00" width="201.20" height="36.00" fill="#a3a3a3" stroke="#ffffff" stroke-width="0.5"/>
<text x="685.8408315314642" y="258.0" text-anchor="middle" font-size="10" fill="#0f172a">post-comm</text>
<text x="685.8408315314642" y="271.0" text-anchor="middle" font-size="10" fill="#0f172a">1.044s</text>
<text x="794.4393535958972" y="264.0" font-size="11" fill="#374151">no midcomm    3.000s</text>
<text x="208" y="329.0" text-anchor="end" font-size="14" font-weight="700">mpi  seq</text>
<text x="208" y="347.0" text-anchor="end" font-size="11" fill="#374151">compute 1.147s  |  comm-window 0.382s  |  fixed mock 0.421s</text>
<text x="208" y="363.0" text-anchor="end" font-size="11" fill="#6b7280">measured-window 1.342s | ideal 1.147s / serial 1.529s | serialized Δ 0.382s → ratio 0.510x</text>
<rect x="220.00" y="300.00" width="197.79" height="36.00" fill="#94a3b8" stroke="#ffffff" stroke-width="0.5"/>
<text x="318.8951681669665" y="316.0" text-anchor="middle" font-size="10" fill="#0f172a">pre-comm</text>
<text x="318.8951681669665" y="329.0" text-anchor="middle" font-size="10" fill="#0f172a">1.026s</text>
<rect x="417.79" y="300.00" width="0.03" height="36.00" fill="#38bdf8" stroke="#ffffff" stroke-width="0.5"/>
<rect x="417.82" y="300.00" width="99.21" height="36.00" fill="#0ea5e9" stroke="#ffffff" stroke-width="0.5"/>
<text x="467.42598336686024" y="316.0" text-anchor="middle" font-size="10" fill="#0f172a">post-send</text>
<text x="467.42598336686024" y="329.0" text-anchor="middle" font-size="10" fill="#0f172a">0.515s</text>
<rect x="517.03" y="300.00" width="221.11" height="36.00" fill="#f97316" stroke="#ffffff" stroke-width="0.5"/>
<text x="627.586534245877" y="316.0" text-anchor="middle" font-size="10" fill="#0f172a">mid-comm</text>
<text x="627.586534245877" y="329.0" text-anchor="middle" font-size="10" fill="#0f172a">1.147s</text>
<rect x="738.14" y="300.00" width="120.29" height="36.00" fill="#22c55e" stroke="#ffffff" stroke-width="0.5"/>
<text x="798.2893229415641" y="316.0" text-anchor="middle" font-size="10" fill="#0f172a">wait-recv</text>
<text x="798.2893229415641" y="329.0" text-anchor="middle" font-size="10" fill="#0f172a">0.624s</text>
<rect x="858.43" y="300.00" width="1.28" height="36.00" fill="#16a34a" stroke="#ffffff" stroke-width="0.5"/>
<rect x="859.71" y="300.00" width="217.43" height="36.00" fill="#a3a3a3" stroke="#ffffff" stroke-width="0.5"/>
<text x="968.428648147041" y="316.0" text-anchor="middle" font-size="10" fill="#0f172a">post-comm</text>
<text x="968.428648147041" y="329.0" text-anchor="middle" font-size="10" fill="#0f172a">1.128s</text>
<text x="1085.142857142857" y="322.0" font-size="11" fill="#374151">with compute  4.588s</text>
<rect x="220.00" y="342.00" width="181.67" height="36.00" fill="#94a3b8" stroke="#ffffff" stroke-width="0.5"/>
<text x="310.83577673724113" y="358.0" text-anchor="middle" font-size="10" fill="#0f172a">pre-comm</text>
<text x="310.83577673724113" y="371.0" text-anchor="middle" font-size="10" fill="#0f172a">0.942s</text>
<rect x="401.67" y="342.00" width="0.66" height="36.00" fill="#38bdf8" stroke="#ffffff" stroke-width="0.5"/>
<rect x="402.34" y="342.00" width="94.24" height="36.00" fill="#0ea5e9" stroke="#ffffff" stroke-width="0.5"/>
<text x="449.4560470607979" y="358.0" text-anchor="middle" font-size="10" fill="#0f172a">post-send</text>
<text x="449.4560470607979" y="371.0" text-anchor="middle" font-size="10" fill="#0f172a">0.489s</text>
<rect x="496.58" y="342.00" width="154.84" height="36.00" fill="#22c55e" stroke="#ffffff" stroke-width="0.5"/>
<text x="573.9957412031757" y="358.0" text-anchor="middle" font-size="10" fill="#0f172a">wait-recv</text>
<text x="573.9957412031757" y="371.0" text-anchor="middle" font-size="10" fill="#0f172a">0.803s</text>
<rect x="651.42" y="342.00" width="1.72" height="36.00" fill="#16a34a" stroke="#ffffff" stroke-width="0.5"/>
<rect x="653.13" y="342.00" width="202.86" height="36.00" fill="#a3a3a3" stroke="#ffffff" stroke-width="0.5"/>
<text x="754.5631256275547" y="358.0" text-anchor="middle" font-size="10" fill="#0f172a">post-comm</text>
<text x="754.5631256275547" y="371.0" text-anchor="middle" font-size="10" fill="#0f172a">1.052s</text>
<text x="863.9950928486869" y="364.0" font-size="11" fill="#374151">no midcomm    3.332s</text>
<text x="208" y="429.0" text-anchor="end" font-size="14" font-weight="700">mpi  omp</text>
<text x="208" y="447.0" text-anchor="end" font-size="11" fill="#374151">compute 1.106s  |  comm-window 0.535s  |  fixed mock 0.441s</text>
<text x="208" y="463.0" text-anchor="end" font-size="11" fill="#6b7280">measured-window 1.235s | ideal 1.106s / serial 1.641s | serialized Δ 0.535s → ratio 0.241x</text>
<rect x="220.00" y="400.00" width="193.60" height="36.00" fill="#94a3b8" stroke="#ffffff" stroke-width="0.5"/>
<text x="316.80067273455427" y="416.0" text-anchor="middle" font-size="10" fill="#0f172a">pre-comm</text>
<text x="316.80067273455427" y="429.0" text-anchor="middle" font-size="10" fill="#0f172a">1.004s</text>
<rect x="413.60" y="400.00" width="0.09" height="36.00" fill="#38bdf8" stroke="#ffffff" stroke-width="0.5"/>
<rect x="413.70" y="400.00" width="95.99" height="36.00" fill="#0ea5e9" stroke="#ffffff" stroke-width="0.5"/>
<text x="461.69167124582776" y="416.0" text-anchor="middle" font-size="10" fill="#0f172a">post-send</text>
<text x="461.69167124582776" y="429.0" text-anchor="middle" font-size="10" fill="#0f172a">0.498s</text>
<rect x="509.69" y="400.00" width="213.24" height="36.00" fill="#f97316" stroke="#ffffff" stroke-width="0.5"/>
<text x="616.3078531007849" y="416.0" text-anchor="middle" font-size="10" fill="#0f172a">mid-comm</text>
<text x="616.3078531007849" y="429.0" text-anchor="middle" font-size="10" fill="#0f172a">1.106s</text>
<rect x="722.93" y="400.00" width="109.24" height="36.00" fill="#22c55e" stroke="#ffffff" stroke-width="0.5"/>
<text x="777.5481103875115" y="416.0" text-anchor="middle" font-size="10" fill="#0f172a">wait-recv</text>
<text x="777.5481103875115" y="429.0" text-anchor="middle" font-size="10" fill="#0f172a">0.567s</text>
<rect x="832.17" y="400.00" width="0.65" height="36.00" fill="#16a34a" stroke="#ffffff" stroke-width="0.5"/>
<rect x="832.82" y="400.00" width="215.25" height="36.00" fill="#a3a3a3" stroke="#ffffff" stroke-width="0.5"/>
<text x="940.4405030949299" y="416.0" text-anchor="middle" font-size="10" fill="#0f172a">post-comm</text>
<text x="940.4405030949299" y="429.0" text-anchor="middle" font-size="10" fill="#0f172a">1.117s</text>
<text x="1056.0653205857293" y="422.0" font-size="11" fill="#374151">with compute  4.441s</text>
<rect x="220.00" y="442.00" width="196.50" height="36.00" fill="#94a3b8" stroke="#ffffff" stroke-width="0.5"/>
<text x="318.25216831532117" y="458.0" text-anchor="middle" font-size="10" fill="#0f172a">pre-comm</text>
<text x="318.25216831532117" y="471.0" text-anchor="middle" font-size="10" fill="#0f172a">1.019s</text>
<rect x="416.50" y="442.00" width="0.10" height="36.00" fill="#38bdf8" stroke="#ffffff" stroke-width="0.5"/>
<rect x="416.60" y="442.00" width="101.03" height="36.00" fill="#0ea5e9" stroke="#ffffff" stroke-width="0.5"/>
<text x="467.1140003323746" y="458.0" text-anchor="middle" font-size="10" fill="#0f172a">post-send</text>
<text x="467.1140003323746" y="471.0" text-anchor="middle" font-size="10" fill="#0f172a">0.524s</text>
<rect x="517.63" y="442.00" width="188.07" height="36.00" fill="#22c55e" stroke="#ffffff" stroke-width="0.5"/>
<text x="611.6649417990595" y="458.0" text-anchor="middle" font-size="10" fill="#0f172a">wait-recv</text>
<text x="611.6649417990595" y="471.0" text-anchor="middle" font-size="10" fill="#0f172a">0.976s</text>
<rect x="705.70" y="442.00" width="0.66" height="36.00" fill="#16a34a" stroke="#ffffff" stroke-width="0.5"/>
<rect x="706.36" y="442.00" width="216.32" height="36.00" fill="#a3a3a3" stroke="#ffffff" stroke-width="0.5"/>
<text x="814.5233278541535" y="458.0" text-anchor="middle" font-size="10" fill="#0f172a">post-comm</text>
<text x="814.5233278541535" y="471.0" text-anchor="middle" font-size="10" fill="#0f172a">1.122s</text>
<text x="930.684181140835" y="464.0" font-size="11" fill="#374151">no midcomm    3.684s</text>
<rect x="220.00" y="534.00" width="14.00" height="14.00" fill="#94a3b8" stroke="#ffffff" stroke-width="0.5"/>
<text x="240" y="546" font-size="12">pre-comm</text>
<rect x="335.00" y="534.00" width="14.00" height="14.00" fill="#38bdf8" stroke="#ffffff" stroke-width="0.5"/>
<text x="355" y="546" font-size="12">post-recv</text>
<rect x="450.00" y="534.00" width="14.00" height="14.00" fill="#0ea5e9" stroke="#ffffff" stroke-width="0.5"/>
<text x="470" y="546" font-size="12">post-send</text>
<rect x="565.00" y="534.00" width="14.00" height="14.00" fill="#f97316" stroke="#ffffff" stroke-width="0.5"/>
<text x="585" y="546" font-size="12">mid-comm</text>
<rect x="680.00" y="534.00" width="14.00" height="14.00" fill="#22c55e" stroke="#ffffff" stroke-width="0.5"/>
<text x="700" y="546" font-size="12">wait-recv</text>
<rect x="795.00" y="534.00" width="14.00" height="14.00" fill="#16a34a" stroke="#ffffff" stroke-width="0.5"/>
<text x="815" y="546" font-size="12">wait-send</text>
<rect x="910.00" y="534.00" width="14.00" height="14.00" fill="#a3a3a3" stroke="#ffffff" stroke-width="0.5"/>
<text x="930" y="546" font-size="12">post-comm</text>
<text x="220" y="574" font-size="11" fill="#6b7280">paper overhead ratio on overlap window: for mpi rows, comm-window = wait-recv(mpi) − wait-recv(mock), measured-window = mid-comm(with) + residual wait-recv(with). 0 = perfect overlap, 1 = serialized.</text>
</svg>