<svg xmlns="http://www.w3.org/2000/svg" width="1240" height="638">
<style>text{font-family:-apple-system,Segoe UI,Roboto,sans-serif;fill:#111827;}</style>
<text x="620.0" y="36" text-anchor="middle" font-size="20" font-weight="700">cm4_inter / run_2_samll_mess_inter / case 02 (async0_c1_testall)</text>
<text x="620.0" y="62" text-anchor="middle" font-size="13" fill="#4b5563">size 512_512_512  |  cutoff 500000  |  num_cycles 5</text>
<line x1="220.0" y1="92" x2="220.0" y2="488" stroke="#e5e7eb" stroke-dasharray="4 4"/>
<text x="220.0" y="506" text-anchor="middle" font-size="12">0.000s</text>
<line x1="412.0" y1="92" x2="412.0" y2="488" stroke="#e5e7eb" stroke-dasharray="4 4"/>
<text x="412.0" y="506" text-anchor="middle" font-size="12">0.545s</text>
<line x1="604.0" y1="92" x2="604.0" y2="488" stroke="#e5e7eb" stroke-dasharray="4 4"/>
<text x="604.0" y="506" text-anchor="middle" font-size="12">1.089s</text>
<line x1="796.0" y1="92" x2="796.0" y2="488" stroke="#e5e7eb" stroke-dasharray="4 4"/>
<text x="796.0" y="506" text-anchor="middle" font-size="12">1.634s</text>
<line x1="988.0" y1="92" x2="988.0" y2="488" stroke="#e5e7eb" stroke-dasharray="4 4"/>
<text x="988.0" y="506" text-anchor="middle" font-size="12">2.179s</text>
<line x1="1180.0" y1="92" x2="1180.0" y2="488" stroke="#e5e7eb" stroke-dasharray="4 4"/>
<text x="1180.0" y="506" text-anchor="middle" font-size="12">2.724s</text>
<line x1="220" y1="488" x2="1180" y2="488" stroke="#374151"/>
<text x="208" y="129.0" text-anchor="end" font-size="14" font-weight="700">mock seq</text>
<text x="208" y="147.0" text-anchor="end" font-size="11" fill="#374151">compute 0.543s  |  comm-window 0.215s  |  fixed mock 0.000s</text>
<text x="208" y="163.0" text-anchor="end" font-size="11" fill="#6b7280">measured-window 0.758s | ideal 0.543s / serial 0.758s | serialized Δ 0.215s → ratio 0.999x</text>
<rect x="220.00" y="100.00" width="173.18" height="36.00" fill="#94a3b8" stroke="#ffffff" stroke-width="0.5"/>
<text x="306.5891360154989" y="116.0" text-anchor="middle" font-size="10" fill="#0f172a">pre-comm</text>
<text x="306.5891360154989" y="129.0" text-anchor="middle" font-size="10" fill="#0f172a">0.491s</text>
<rect x="393.18" y="100.00" width="0.05" height="36.00" fill="#38bdf8" stroke="#ffffff" stroke-width="0.5"/>
<rect x="393.23" y="100.00" width="84.81" height="36.00" fill="#0ea5e9" stroke="#ffffff" stroke-width="0.5"/>
<text x="435.63129449625325" y="116.0" text-anchor="middle" font-size="10" fill="#0f172a">post-send</text>
<text x="435.63129449625325" y="129.0" text-anchor="middle" font-size="10" fill="#0f172a">0.241s</text>
<rect x="478.04" y="100.00" width="191.32" height="36.00" fill="#f97316" stroke="#ffffff" stroke-width="0.5"/>
<text x="573.6966988573984" y="116.0" text-anchor="middle" font-size="10" fill="#0f172a">mid-comm</text>
<text x="573.6966988573984" y="129.0" text-anchor="middle" font-size="10" fill="#0f172a">0.543s</text>
<rect x="669.36" y="100.00" width="75.82" height="36.00" fill="#22c55e" stroke="#ffffff" stroke-width="0.5"/>
<text x="707.2679192625191" y="116.0" text-anchor="middle" font-size="10" fill="#0f172a">wait-recv</text>
<text x="707.2679192625191" y="129.0" text-anchor="middle" font-size="10" fill="#0f172a">0.215s</text>
<rect x="745.18" y="100.00" width="1.16" height="36.00" fill="#16a34a" stroke="#ffffff" stroke-width="0.5"/>
<rect x="746.34" y="100.00" width="189.66" height="36.00" fill="#a3a3a3" stroke="#ffffff" stroke-width="0.5"/>
<text x="841.1700150923261" y="116.0" text-anchor="middle" font-size="10" fill="#0f172a">post-comm</text>
<text x="841.1700150923261" y="129.0" text-anchor="middle" font-size="10" fill="#0f172a">0.538s</text>
<text x="943.9998457050848" y="122.0" font-size="11" fill="#374151">with compute  2.036s</text>
<rect x="220.00" y="142.00" width="170.46" height="36.00" fill="#94a3b8" stroke="#ffffff" stroke-width="0.5"/>
<text x="305.2306832086602" y="158.0" text-anchor="middle" font-size="10" fill="#0f172a">pre-comm</text>
<text x="305.2306832086602" y="171.0" text-anchor="middle" font-size="10" fill="#0f172a">0.484s</text>
<rect x="390.46" y="142.00" width="0.05" height="36.00" fill="#38bdf8" stroke="#ffffff" stroke-width="0.5"/>
<rect x="390.51" y="142.00" width="89.26" height="36.00" fill="#0ea5e9" stroke="#ffffff" stroke-width="0.5"/>
<text x="435.1391353446399" y="158.0" text-anchor="middle" font-size="10" fill="#0f172a">post-send</text>
<text x="435.1391353446399" y="171.0" text-anchor="middle" font-size="10" fill="#0f172a">0.253s</text>
<rect x="479.77" y="142.00" width="75.90" height="36.00" fill="#22c55e" stroke="#ffffff" stroke-width="0.5"/>
<text x="517.7205222686548" y="158.0" text-anchor="middle" font-size="10" fill="#0f172a">wait-recv</text>
<text x="517.7205222686548" y="171.0" text-anchor="middle" font-size="10" fill="#0f172a">0.215s</text>
<rect x="555.67" y="142.00" width="1.18" height="36.00" fill="#16a34a" stroke="#ffffff" stroke-width="0.5"/>
<rect x="556.86" y="142.00" width="187.84" height="36.00" fill="#a3a3a3" stroke="#ffffff" stroke-width="0.5"/>
<text x="650.7779235812362" y="158.0" text-anchor="middle" font-size="10" fill="#0f172a">post-comm</text>
<text x="650.7779235812362" y="171.0" text-anchor="middle" font-size="10" fill="#0f172a">0.533s</text>
<text x="752.6998167027939" y="164.0" font-size="11" fill="#374151">no midcomm    1.506s</text>
<text x="208" y="229.0" text-anchor="end" font-size="14" font-weight="700">mock omp</text>
<text x="208" y="247.0" text-anchor="end" font-size="11" fill="#374151">compute 0.561s  |  comm-window 0.231s  |  fixed mock 0.000s</text>
<text x="208" y="263.0" text-anchor="end" font-size="11" fill="#6b7280">measured-window 0.789s | ideal 0.561s / serial 0.792s | serialized Δ 0.231s → ratio 0.990x</text>
<rect x="220.00" y="200.00" width="178.58" height="36.00" fill="#94a3b8" stroke="#ffffff" stroke-width="0.5"/>
<text x="309.28847751434563" y="216.0" text-anchor="middle" font-size="10" fill="#0f172a">pre-comm</text>
<text x="309.28847751434563" y="229.0" text-anchor="middle" font-size="10" fill="#0f172a">0.507s</text>
<rect x="398.58" y="200.00" width="0.28" height="36.00" fill="#38bdf8" stroke="#ffffff" stroke-width="0.5"/>
<rect x="398.86" y="200.00" width="88.80" height="36.00" fill="#0ea5e9" stroke="#ffffff" stroke-width="0.5"/>
<text x="443.2571816279084" y="216.0" text-anchor="middle" font-size="10" fill="#0f172a">post-send</text>
<text x="443.2571816279084" y="229.0" text-anchor="middle" font-size="10" fill="#0f172a">0.252s</text>
<rect x="487.65" y="200.00" width="197.81" height="36.00" fill="#f97316" stroke="#ffffff" stroke-width="0.5"/>
<text x="586.5603773946331" y="216.0" text-anchor="middle" font-size="10" fill="#0f172a">mid-comm</text>
<text x="586.5603773946331" y="229.0" text-anchor="middle" font-size="10" fill="#0f172a">0.561s</text>
<rect x="685.47" y="200.00" width="80.44" height="36.00" fill="#22c55e" stroke="#ffffff" stroke-width="0.5"/>
<text x="725.6845387022018" y="216.0" text-anchor="middle" font-size="10" fill="#0f172a">wait-recv</text>
<text x="725.6845387022018" y="229.0" text-anchor="middle" font-size="10" fill="#0f172a">0.228s</text>
<rect x="765.90" y="200.00" width="1.21" height="36.00" fill="#16a34a" stroke="#ffffff" stroke-width="0.5"/>
<rect x="767.12" y="200.00" width="197.31" height="36.00" fill="#a3a3a3" stroke="#ffffff" stroke-width="0.5"/>
<text x="865.7693201522435" y="216.0" text-anchor="middle" font-size="10" fill="#0f172a">post-comm</text>
<text x="865.7693201522435" y="229.0" text-anchor="middle" font-size="10" fill="#0f172a">0.560s</text>
<text x="972.4235869650672" y="222.0" font-size="11" fill="#374151">with compute  2.210s</text>
<rect x="220.00" y="242.00" width="179.56" height="36.00" fill="#94a3b8" stroke="#ffffff" stroke-width="0.5"/>
<text x="309.77986561435966" y="258.0" text-anchor="middle" font-size="10" fill="#0f172a">pre-comm</text>
<text x="309.77986561435966" y="271.0" text-anchor="middle" font-size="10" fill="#0f172a">0.509s</text>
<rect x="399.56" y="242.00" width="0.18" height="36.00" fill="#38bdf8" stroke="#ffffff" stroke-width="0.5"/>
<rect x="399.74" y="242.00" width="95.63" height="36.00" fill="#0ea5e9" stroke="#ffffff" stroke-width="0.5"/>
<text x="447.5558965132999" y="258.0" text-anchor="middle" font-size="10" fill="#0f172a">post-send</text>
<text x="447.5558965132999" y="271.0" text-anchor="middle" font-size="10" fill="#0f172a">0.271s</text>
<rect x="495.37" y="242.00" width="81.27" height="36.00" fill="#22c55e" stroke="#ffffff" stroke-width="0.5"/>
<text x="536.0054954424832" y="258.0" text-anchor="middle" font-size="10" fill="#0f172a">wait-recv</text>
<text x="536.0054954424832" y="271.0" text-anchor="middle" font-size="10" fill="#0f172a">0.231s</text>
<rect x="576.64" y="242.00" width="1.35" height="36.00" fill="#16a34a" stroke="#ffffff" stroke-width="0.5"/>
<rect x="577.99" y="242.00" width="197.79" height="36.00" fill="#a3a3a3" stroke="#ffffff" stroke-width="0.5"/>
<text x="676.8908399410149" y="258.0" text-anchor="middle" font-size="10" fill="#0f172a">post-comm</text>
<text x="676.8908399410149" y="271.0" text-anchor="middle" font-size="10" fill="#0f172a">0.561s</text>
<text x="783.7878646393555" y="264.0" font-size="11" fill="#374151">no midcomm    1.682s</text>
<text x="208" y="329.0" text-anchor="end" font-size="14" font-weight="700">mpi  seq</text>
<text x="208" y="347.0" text-anchor="end" font-size="11" fill="#374151">compute 0.594s  |  comm-window 0.270s  |  fixed mock 0.215s</text>
<text x="208" y="363.0" text-anchor="end" font-size="11" fill="#6b7280">measured-window 0.762s | ideal 0.594s / serial 0.864s | serialized Δ 0.270s → ratio 0.623x</text>
<rect x="220.00" y="300.00" width="185.05" height="36.00" fill="#94a3b8" stroke="#ffffff" stroke-width="0.5"/>
<text x="312.5269497470319" y="316.0" text-anchor="middle" font-size="10" fill="#0f172a">pre-comm</text>
<text x="312.5269497470319" y="329.0" text-anchor="middle" font-size="10" fill="#0f172a">0.525s</text>
<rect x="405.05" y="300.00" width="0.06" height="36.00" fill="#38bdf8" stroke="#ffffff" stroke-width="0.5"/>
<rect x="405.11" y="300.00" width="88.88" height="36.00" fill="#0ea5e9" stroke="#ffffff" stroke-width="0.5"/>
<text x="449.55368415741674" y="316.0" text-anchor="middle" font-size="10" fill="#0f172a">post-send</text>
<text x="449.55368415741674" y="329.0" text-anchor="middle" font-size="10" fill="#0f172a">0.252s</text>
<rect x="494.00" y="300.00" width="209.44" height="36.00" fill="#f97316" stroke="#ffffff" stroke-width="0.5"/>
<text x="598.7145880035231" y="316.0" text-anchor="middle" font-size="10" fill="#0f172a">mid-comm</text>
<text x="598.7145880035231" y="329.0" text-anchor="middle" font-size="10" fill="#0f172a">0.594s</text>
<rect x="703.43" y="300.00" width="135.12" height="36.00" fill="#22c55e" stroke="#ffffff" stroke-width="0.5"/>
<text x="770.9957181469115" y="316.0" text-anchor="middle" font-size="10" fill="#0f172a">wait-recv</text>
<text x="770.9957181469115" y="329.0" text-anchor="middle" font-size="10" fill="#0f172a">0.383s</text>
<rect x="838.56" y="300.00" width="36.19" height="36.00" fill="#16a34a" stroke="#ffffff" stroke-width="0.5"/>
<rect x="874.75" y="300.00" width="202.39" height="36.00" fill="#a3a3a3" stroke="#ffffff" stroke-width="0.5"/>
<text x="975.9472033776084" y="316.0" text-anchor="middle" font-size="10" fill="#0f172a">post-comm</text>
<text x="975.9472033776084" y="329.0" text-anchor="middle" font-size="10" fill="#0f172a">0.574s</text>
<text x="1085.1428571428569" y="322.0" font-size="11" fill="#374151">with compute  2.471s</text>
<rect x="220.00" y="342.00" width="178.03" height="36.00" fill="#94a3b8" stroke="#ffffff" stroke-width="0.5"/>
<text x="309.01465638319877" y="358.0" text-anchor="middle" font-size="10" fill="#0f172a">pre-comm</text>
<text x="309.01465638319877" y="371.0" text-anchor="middle" font-size="10" fill="#0f172a">0.505s</text>
<rect x="398.03" y="342.00" width="0.06" height="36.00" fill="#38bdf8" stroke="#ffffff" stroke-width="0.5"/>
<rect x="398.09" y="342.00" width="92.43" height="36.00" fill="#0ea5e9" stroke="#ffffff" stroke-width="0.5"/>
<text x="444.30211956726936" y="358.0" text-anchor="middle" font-size="10" fill="#0f172a">post-send</text>
<text x="444.30211956726936" y="371.0" text-anchor="middle" font-size="10" fill="#0f172a">0.262s</text>
<rect x="490.52" y="342.00" width="171.06" height="36.00" fill="#22c55e" stroke="#ffffff" stroke-width="0.5"/>
<text x="576.0505493180437" y="358.0" text-anchor="middle" font-size="10" fill="#0f172a">wait-recv</text>
<text x="576.0505493180437" y="371.0" text-anchor="middle" font-size="10" fill="#0f172a">0.485s</text>
<rect x="661.58" y="342.00" width="0.60" height="36.00" fill="#16a34a" stroke="#ffffff" stroke-width="0.5"/>
<rect x="662.18" y="342.00" width="196.42" height="36.00" fill="#a3a3a3" stroke="#ffffff" stroke-width="0.5"/>
<text x="760.3966419492078" y="358.0" text-anchor="middle" font-size="10" fill="#0f172a">post-comm</text>
<text x="760.3966419492078" y="371.0" text-anchor="middle" font-size="10" fill="#0f172a">0.557s</text>
<text x="866.6091235129015" y="364.0" font-size="11" fill="#374151">no midcomm    1.839s</text>
<text x="208" y="429.0" text-anchor="end" font-size="14" font-weight="700">mpi  omp</text>
<text x="208" y="447.0" text-anchor="end" font-size="11" fill="#374151">compute 0.572s  |  comm-window 0.238s  |  fixed mock 0.231s</text>
<text x="208" y="463.0" text-anchor="end" font-size="11" fill="#6b7280">measured-window 0.726s | ideal 0.572s / serial 0.809s | serialized Δ 0.238s → ratio 0.650x</text>
<rect x="220.00" y="400.00" width="183.39" height="36.00" fill="#94a3b8" stroke="#ffffff" stroke-width="0.5"/>
<text x="311.69645051004954" y="416.0" text-anchor="middle" font-size="10" fill="#0f172a">pre-comm</text>
<text x="311.69645051004954" y="429.0" text-anchor="middle" font-size="10" fill="#0f172a">0.520s</text>
<rect x="403.39" y="400.00" width="0.05" height="36.00" fill="#38bdf8" stroke="#ffffff" stroke-width="0.5"/>
<rect x="403.44" y="400.00" width="88.68" height="36.00" fill="#0ea5e9" stroke="#ffffff" stroke-width="0.5"/>
<text x="447.78427847219893" y="416.0" text-anchor="middle" font-size="10" fill="#0f172a">post-send</text>
<text x="447.78427847219893" y="429.0" text-anchor="middle" font-size="10" fill="#0f172a">0.252s</text>
<rect x="492.12" y="400.00" width="201.46" height="36.00" fill="#f97316" stroke="#ffffff" stroke-width="0.5"/>
<text x="592.8521716627757" y="416.0" text-anchor="middle" font-size="10" fill="#0f172a">mid-comm</text>
<text x="592.8521716627757" y="429.0" text-anchor="middle" font-size="10" fill="#0f172a">0.572s</text>
<rect x="693.58" y="400.00" width="134.86" height="36.00" fill="#22c55e" stroke="#ffffff" stroke-width="0.5"/>
<text x="761.0118997089465" y="416.0" text-anchor="middle" font-size="10" fill="#0f172a">wait-recv</text>
<text x="761.0118997089465" y="429.0" text-anchor="middle" font-size="10" fill="#0f172a">0.383s</text>
<rect x="828.44" y="400.00" width="36.66" height="36.00" fill="#16a34a" stroke="#ffffff" stroke-width="0.5"/>
<rect x="865.11" y="400.00" width="201.81" height="36.00" fill="#a3a3a3" stroke="#ffffff" stroke-width="0.5"/>
<text x="966.0108737873426" y="416.0" text-anchor="middle" font-size="10" fill="#0f172a">post-comm</text>
<text x="966.0108737873426" y="429.0" text-anchor="middle" font-size="10" fill="#0f172a">0.573s</text>
<text x="1074.9154947873446" y="422.0" font-size="11" fill="#374151">with compute  2.439s</text>
<rect x="220.00" y="442.00" width="179.53" height="36.00" fill="#94a3b8" stroke="#ffffff" stroke-width="0.5"/>
<text x="309.7635765985737" y="458.0" text-anchor="middle" font-size="10" fill="#0f172a">pre-comm</text>
<text x="309.7635765985737" y="471.0" text-anchor="middle" font-size="10" fill="#0f172a">0.509s</text>
<rect x="399.53" y="442.00" width="0.05" height="36.00" fill="#38bdf8" stroke="#ffffff" stroke-width="0.5"/>
<rect x="399.58" y="442.00" width="91.87" height="36.00" fill="#0ea5e9" stroke="#ffffff" stroke-width="0.5"/>
<text x="445.51291643344695" y="458.0" text-anchor="middle" font-size="10" fill="#0f172a">post-send</text>
<text x="445.51291643344695" y="471.0" text-anchor="middle" font-size="10" fill="#0f172a">0.261s</text>
<rect x="491.45" y="442.00" width="165.03" height="36.00" fill="#22c55e" stroke="#ffffff" stroke-width="0.5"/>
<text x="573.9623292175562" y="458.0" text-anchor="middle" font-size="10" fill="#0f172a">wait-recv</text>
<text x="573.9623292175562" y="471.0" text-anchor="middle" font-size="10" fill="#0f172a">0.468s</text>
<rect x="656.48" y="442.00" width="0.60" height="36.00" fill="#16a34a" stroke="#ffffff" stroke-width="0.5"/>
<rect x="657.08" y="442.00" width="197.74" height="36.00" fill="#a3a3a3" stroke="#ffffff" stroke-width="0.5"/>
<text x="755.9485069570962" y="458.0" text-anchor="middle" font-size="10" fill="#0f172a">post-comm</text>
<text x="755.9485069570962" y="471.0" text-anchor="middle" font-size="10" fill="#0f172a">0.561s</text>
<text x="862.8176892024874" y="464.0" font-size="11" fill="#374151">no midcomm    1.826s</text>
<rect x="220.00" y="534.00" width="14.00" height="14.00" fill="#94a3b8" stroke="#ffffff" stroke-width="0.5"/>
<text x="240" y="546" font-size="12">pre-comm</text>
<rect x="335.00" y="534.00" width="14.00" height="14.00" fill="#38bdf8" stroke="#ffffff" stroke-width="0.5"/>
<text x="355" y="546" font-size="12">post-recv</text>
<rect x="450.00" y="534.00" width="14.00" height="14.00" fill="#0ea5e9" stroke="#ffffff" stroke-width="0.5"/>
<text x="470" y="546" font-size="12">post-send</text>
<rect x="565.00" y="534.00" width="14.00" height="14.00" fill="#f97316" stroke="#ffffff" stroke-width="0.5"/>
<text x="585" y="546" font-size="12">mid-comm</text>
<rect x="680.00" y="534.00" width="14.00" height="14.00" fill="#22c55e" stroke="#ffffff" stroke-width="0.5"/>
<text x="700" y="546" font-size="12">wait-recv</text>
<rect x="795.00" y="534.00" width="14.00" height="14.00" fill="#16a34a" stroke="#ffffff" stroke-width="0.5"/>
<text x="815" y="546" font-size="12">wait-send</text>
<rect x="910.00" y="534.00" width="14.00" height="14.00" fill="#a3a3a3" stroke="#ffffff" stroke-width="0.5"/>
<text x="930" y="546" font-size="12">post-comm</text>
<text x="220" y="574" font-size="11" fill="#6b7280">paper overhead ratio on overlap window: for mpi rows, comm-window = wait-recv(mpi) − wait-recv(mock), measured-window = mid-comm(with) + residual wait-recv(with). 0 = perfect overlap, 1 = serialized.</text>
</svg>