<svg xmlns="http://www.w3.org/2000/svg" width="1240" height="638">
<style>text{font-family:-apple-system,Segoe UI,Roboto,sans-serif;fill:#111827;}</style>
<text x="620.0" y="36" text-anchor="middle" font-size="20" font-weight="700">cm4_inter / run_1_big_mes_inter / case 02 (async0_c1_testall)</text>
<text x="620.0" y="62" text-anchor="middle" font-size="13" fill="#4b5563">size 512_512_512  |  cutoff 250  |  num_cycles 5</text>
<line x1="220.0" y1="92" x2="220.0" y2="488" stroke="#e5e7eb" stroke-dasharray="4 4"/>
<text x="220.0" y="506" text-anchor="middle" font-size="12">0.000s</text>
<line x1="412.0" y1="92" x2="412.0" y2="488" stroke="#e5e7eb" stroke-dasharray="4 4"/>
<text x="412.0" y="506" text-anchor="middle" font-size="12">0.529s</text>
<line x1="604.0" y1="92" x2="604.0" y2="488" stroke="#e5e7eb" stroke-dasharray="4 4"/>
<text x="604.0" y="506" text-anchor="middle" font-size="12">1.059s</text>
<line x1="796.0" y1="92" x2="796.0" y2="488" stroke="#e5e7eb" stroke-dasharray="4 4"/>
<text x="796.0" y="506" text-anchor="middle" font-size="12">1.588s</text>
<line x1="988.0" y1="92" x2="988.0" y2="488" stroke="#e5e7eb" stroke-dasharray="4 4"/>
<text x="988.0" y="506" text-anchor="middle" font-size="12">2.117s</text>
<line x1="1180.0" y1="92" x2="1180.0" y2="488" stroke="#e5e7eb" stroke-dasharray="4 4"/>
<text x="1180.0" y="506" text-anchor="middle" font-size="12">2.646s</text>
<line x1="220" y1="488" x2="1180" y2="488" stroke="#374151"/>
<text x="208" y="129.0" text-anchor="end" font-size="14" font-weight="700">mock seq</text>
<text x="208" y="147.0" text-anchor="end" font-size="11" fill="#374151">compute 0.576s  |  comm-window 0.225s  |  fixed mock 0.000s</text>
<text x="208" y="163.0" text-anchor="end" font-size="11" fill="#6b7280">measured-window 0.809s | ideal 0.576s / serial 0.801s | serialized Δ 0.225s → ratio 1.036x</text>
<rect x="220.00" y="100.00" width="190.83" height="36.00" fill="#94a3b8" stroke="#ffffff" stroke-width="0.5"/>
<text x="315.4141505337617" y="116.0" text-anchor="middle" font-size="10" fill="#0f172a">pre-comm</text>
<text x="315.4141505337617" y="129.0" text-anchor="middle" font-size="10" fill="#0f172a">0.526s</text>
<rect x="410.83" y="100.00" width="0.17" height="36.00" fill="#38bdf8" stroke="#ffffff" stroke-width="0.5"/>
<rect x="411.00" y="100.00" width="93.09" height="36.00" fill="#0ea5e9" stroke="#ffffff" stroke-width="0.5"/>
<text x="457.54622842886874" y="116.0" text-anchor="middle" font-size="10" fill="#0f172a">post-send</text>
<text x="457.54622842886874" y="129.0" text-anchor="middle" font-size="10" fill="#0f172a">0.257s</text>
<rect x="504.09" y="100.00" width="208.83" height="36.00" fill="#f97316" stroke="#ffffff" stroke-width="0.5"/>
<text x="608.5057081550276" y="116.0" text-anchor="middle" font-size="10" fill="#0f172a">mid-comm</text>
<text x="608.5057081550276" y="129.0" text-anchor="middle" font-size="10" fill="#0f172a">0.576s</text>
<rect x="712.92" y="100.00" width="84.59" height="36.00" fill="#22c55e" stroke="#ffffff" stroke-width="0.5"/>
<text x="755.2138317068303" y="116.0" text-anchor="middle" font-size="10" fill="#0f172a">wait-recv</text>
<text x="755.2138317068303" y="129.0" text-anchor="middle" font-size="10" fill="#0f172a">0.233s</text>
<rect x="797.51" y="100.00" width="1.25" height="36.00" fill="#16a34a" stroke="#ffffff" stroke-width="0.5"/>
<rect x="798.75" y="100.00" width="208.29" height="36.00" fill="#a3a3a3" stroke="#ffffff" stroke-width="0.5"/>
<text x="902.8978810900899" y="116.0" text-anchor="middle" font-size="10" fill="#0f172a">post-comm</text>
<text x="902.8978810900899" y="129.0" text-anchor="middle" font-size="10" fill="#0f172a">0.574s</text>
<text x="1015.0408007183341" y="122.0" font-size="11" fill="#374151">with compute  2.313s</text>
<rect x="220.00" y="142.00" width="183.61" height="36.00" fill="#94a3b8" stroke="#ffffff" stroke-width="0.5"/>
<text x="311.8054412124255" y="158.0" text-anchor="middle" font-size="10" fill="#0f172a">pre-comm</text>
<text x="311.8054412124255" y="171.0" text-anchor="middle" font-size="10" fill="#0f172a">0.506s</text>
<rect x="403.61" y="142.00" width="0.18" height="36.00" fill="#38bdf8" stroke="#ffffff" stroke-width="0.5"/>
<rect x="403.79" y="142.00" width="95.63" height="36.00" fill="#0ea5e9" stroke="#ffffff" stroke-width="0.5"/>
<text x="451.60176113637203" y="158.0" text-anchor="middle" font-size="10" fill="#0f172a">post-send</text>
<text x="451.60176113637203" y="171.0" text-anchor="middle" font-size="10" fill="#0f172a">0.264s</text>
<rect x="499.42" y="142.00" width="81.64" height="36.00" fill="#22c55e" stroke="#ffffff" stroke-width="0.5"/>
<text x="540.2337667171303" y="158.0" text-anchor="middle" font-size="10" fill="#0f172a">wait-recv</text>
<text x="540.2337667171303" y="171.0" text-anchor="middle" font-size="10" fill="#0f172a">0.225s</text>
<rect x="581.05" y="142.00" width="1.18" height="36.00" fill="#16a34a" stroke="#ffffff" stroke-width="0.5"/>
<rect x="582.23" y="142.00" width="201.99" height="36.00" fill="#a3a3a3" stroke="#ffffff" stroke-width="0.5"/>
<text x="683.2209960158868" y="158.0" text-anchor="middle" font-size="10" fill="#0f172a">post-comm</text>
<text x="683.2209960158868" y="171.0" text-anchor="middle" font-size="10" fill="#0f172a">0.557s</text>
<text x="792.2143475838701" y="164.0" font-size="11" fill="#374151">no midcomm    1.645s</text>
<text x="208" y="229.0" text-anchor="end" font-size="14" font-weight="700">mock omp</text>
<text x="208" y="247.0" text-anchor="end" font-size="11" fill="#374151">compute 0.560s  |  comm-window 0.231s  |  fixed mock 0.000s</text>
<text x="208" y="263.0" text-anchor="end" font-size="11" fill="#6b7280">measured-window 0.787s | ideal 0.560s / serial 0.791s | serialized Δ 0.231s → ratio 0.984x</text>
<rect x="220.00" y="200.00" width="184.60" height="36.00" fill="#94a3b8" stroke="#ffffff" stroke-width="0.5"/>
<text x="312.3015533116805" y="216.0" text-anchor="middle" font-size="10" fill="#0f172a">pre-comm</text>
<text x="312.3015533116805" y="229.0" text-anchor="middle" font-size="10" fill="#0f172a">0.509s</text>
<rect x="404.60" y="200.00" width="0.16" height="36.00" fill="#38bdf8" stroke="#ffffff" stroke-width="0.5"/>
<rect x="404.76" y="200.00" width="92.85" height="36.00" fill="#0ea5e9" stroke="#ffffff" stroke-width="0.5"/>
<text x="451.1878981555893" y="216.0" text-anchor="middle" font-size="10" fill="#0f172a">post-send</text>
<text x="451.1878981555893" y="229.0" text-anchor="middle" font-size="10" fill="#0f172a">0.256s</text>
<rect x="497.61" y="200.00" width="203.20" height="36.00" fill="#f97316" stroke="#ffffff" stroke-width="0.5"/>
<text x="599.2160026119565" y="216.0" text-anchor="middle" font-size="10" fill="#0f172a">mid-comm</text>
<text x="599.2160026119565" y="229.0" text-anchor="middle" font-size="10" fill="#0f172a">0.560s</text>
<rect x="700.82" y="200.00" width="82.45" height="36.00" fill="#22c55e" stroke="#ffffff" stroke-width="0.5"/>
<text x="742.0445579525071" y="216.0" text-anchor="middle" font-size="10" fill="#0f172a">wait-recv</text>
<text x="742.0445579525071" y="229.0" text-anchor="middle" font-size="10" fill="#0f172a">0.227s</text>
<rect x="783.27" y="200.00" width="1.36" height="36.00" fill="#16a34a" stroke="#ffffff" stroke-width="0.5"/>
<rect x="784.63" y="200.00" width="202.76" height="36.00" fill="#a3a3a3" stroke="#ffffff" stroke-width="0.5"/>
<text x="886.0138738310033" y="216.0" text-anchor="middle" font-size="10" fill="#0f172a">post-comm</text>
<text x="886.0138738310033" y="229.0" text-anchor="middle" font-size="10" fill="#0f172a">0.559s</text>
<text x="995.3952146880624" y="222.0" font-size="11" fill="#374151">with compute  2.209s</text>
<rect x="220.00" y="242.00" width="185.55" height="36.00" fill="#94a3b8" stroke="#ffffff" stroke-width="0.5"/>
<text x="312.7728854719784" y="258.0" text-anchor="middle" font-size="10" fill="#0f172a">pre-comm</text>
<text x="312.7728854719784" y="271.0" text-anchor="middle" font-size="10" fill="#0f172a">0.511s</text>
<rect x="405.55" y="242.00" width="0.06" height="36.00" fill="#38bdf8" stroke="#ffffff" stroke-width="0.5"/>
<rect x="405.61" y="242.00" width="99.08" height="36.00" fill="#0ea5e9" stroke="#ffffff" stroke-width="0.5"/>
<text x="455.1485246914825" y="258.0" text-anchor="middle" font-size="10" fill="#0f172a">post-send</text>
<text x="455.1485246914825" y="271.0" text-anchor="middle" font-size="10" fill="#0f172a">0.273s</text>
<rect x="504.69" y="242.00" width="83.80" height="36.00" fill="#22c55e" stroke="#ffffff" stroke-width="0.5"/>
<text x="546.5905425192544" y="258.0" text-anchor="middle" font-size="10" fill="#0f172a">wait-recv</text>
<text x="546.5905425192544" y="271.0" text-anchor="middle" font-size="10" fill="#0f172a">0.231s</text>
<rect x="588.49" y="242.00" width="1.52" height="36.00" fill="#16a34a" stroke="#ffffff" stroke-width="0.5"/>
<rect x="590.02" y="242.00" width="204.72" height="36.00" fill="#a3a3a3" stroke="#ffffff" stroke-width="0.5"/>
<text x="692.3768093535612" y="258.0" text-anchor="middle" font-size="10" fill="#0f172a">post-comm</text>
<text x="692.3768093535612" y="271.0" text-anchor="middle" font-size="10" fill="#0f172a">0.564s</text>
<text x="802.7375695210092" y="264.0" font-size="11" fill="#374151">no midcomm    1.703s</text>
<text x="208" y="329.0" text-anchor="end" font-size="14" font-weight="700">mpi  seq</text>
<text x="208" y="347.0" text-anchor="end" font-size="11" fill="#374151">compute 0.589s  |  comm-window 0.262s  |  fixed mock 0.225s</text>
<text x="208" y="363.0" text-anchor="end" font-size="11" fill="#6b7280">measured-window 0.727s | ideal 0.589s / serial 0.850s | serialized Δ 0.262s → ratio 0.528x</text>
<rect x="220.00" y="300.00" width="187.37" height="36.00" fill="#94a3b8" stroke="#ffffff" stroke-width="0.5"/>
<text x="313.68310995666474" y="316.0" text-anchor="middle" font-size="10" fill="#0f172a">pre-comm</text>
<text x="313.68310995666474" y="329.0" text-anchor="middle" font-size="10" fill="#0f172a">0.516s</text>
<rect x="407.37" y="300.00" width="0.04" height="36.00" fill="#38bdf8" stroke="#ffffff" stroke-width="0.5"/>
<rect x="407.41" y="300.00" width="89.22" height="36.00" fill="#0ea5e9" stroke="#ffffff" stroke-width="0.5"/>
<text x="452.02280606410795" y="316.0" text-anchor="middle" font-size="10" fill="#0f172a">post-send</text>
<text x="452.02280606410795" y="329.0" text-anchor="middle" font-size="10" fill="#0f172a">0.246s</text>
<rect x="496.63" y="300.00" width="213.51" height="36.00" fill="#f97316" stroke="#ffffff" stroke-width="0.5"/>
<text x="603.3885378481007" y="316.0" text-anchor="middle" font-size="10" fill="#0f172a">mid-comm</text>
<text x="603.3885378481007" y="329.0" text-anchor="middle" font-size="10" fill="#0f172a">0.589s</text>
<rect x="710.14" y="300.00" width="134.73" height="36.00" fill="#22c55e" stroke="#ffffff" stroke-width="0.5"/>
<text x="777.505298145273" y="316.0" text-anchor="middle" font-size="10" fill="#0f172a">wait-recv</text>
<text x="777.505298145273" y="329.0" text-anchor="middle" font-size="10" fill="#0f172a">0.371s</text>
<rect x="844.87" y="300.00" width="27.68" height="36.00" fill="#16a34a" stroke="#ffffff" stroke-width="0.5"/>
<rect x="872.55" y="300.00" width="204.59" height="36.00" fill="#a3a3a3" stroke="#ffffff" stroke-width="0.5"/>
<text x="974.8456951607974" y="316.0" text-anchor="middle" font-size="10" fill="#0f172a">post-comm</text>
<text x="974.8456951607974" y="329.0" text-anchor="middle" font-size="10" fill="#0f172a">0.564s</text>
<text x="1085.142857142857" y="322.0" font-size="11" fill="#374151">with compute  2.396s</text>
<rect x="220.00" y="342.00" width="183.47" height="36.00" fill="#94a3b8" stroke="#ffffff" stroke-width="0.5"/>
<text x="311.7334748208827" y="358.0" text-anchor="middle" font-size="10" fill="#0f172a">pre-comm</text>
<text x="311.7334748208827" y="371.0" text-anchor="middle" font-size="10" fill="#0f172a">0.506s</text>
<rect x="403.47" y="342.00" width="0.06" height="36.00" fill="#38bdf8" stroke="#ffffff" stroke-width="0.5"/>
<rect x="403.53" y="342.00" width="95.07" height="36.00" fill="#0ea5e9" stroke="#ffffff" stroke-width="0.5"/>
<text x="451.06171572807483" y="358.0" text-anchor="middle" font-size="10" fill="#0f172a">post-send</text>
<text x="451.06171572807483" y="371.0" text-anchor="middle" font-size="10" fill="#0f172a">0.262s</text>
<rect x="498.60" y="342.00" width="176.56" height="36.00" fill="#22c55e" stroke="#ffffff" stroke-width="0.5"/>
<text x="586.8792043906337" y="358.0" text-anchor="middle" font-size="10" fill="#0f172a">wait-recv</text>
<text x="586.8792043906337" y="371.0" text-anchor="middle" font-size="10" fill="#0f172a">0.487s</text>
<rect x="675.16" y="342.00" width="0.62" height="36.00" fill="#16a34a" stroke="#ffffff" stroke-width="0.5"/>
<rect x="675.78" y="342.00" width="202.24" height="36.00" fill="#a3a3a3" stroke="#ffffff" stroke-width="0.5"/>
<text x="776.902598661548" y="358.0" text-anchor="middle" font-size="10" fill="#0f172a">post-comm</text>
<text x="776.902598661548" y="371.0" text-anchor="middle" font-size="10" fill="#0f172a">0.557s</text>
<text x="886.0247246515391" y="364.0" font-size="11" fill="#374151">no midcomm    1.842s</text>
<text x="208" y="429.0" text-anchor="end" font-size="14" font-weight="700">mpi  omp</text>
<text x="208" y="447.0" text-anchor="end" font-size="11" fill="#374151">compute 0.538s  |  comm-window 0.204s  |  fixed mock 0.231s</text>
<text x="208" y="463.0" text-anchor="end" font-size="11" fill="#6b7280">measured-window 0.661s | ideal 0.538s / serial 0.742s | serialized Δ 0.204s → ratio 0.606x</text>
<rect x="220.00" y="400.00" width="175.98" height="36.00" fill="#94a3b8" stroke="#ffffff" stroke-width="0.5"/>
<text x="307.9923488627434" y="416.0" text-anchor="middle" font-size="10" fill="#0f172a">pre-comm</text>
<text x="307.9923488627434" y="429.0" text-anchor="middle" font-size="10" fill="#0f172a">0.485s</text>
<rect x="395.98" y="400.00" width="0.04" height="36.00" fill="#38bdf8" stroke="#ffffff" stroke-width="0.5"/>
<rect x="396.02" y="400.00" width="83.91" height="36.00" fill="#0ea5e9" stroke="#ffffff" stroke-width="0.5"/>
<text x="437.9803684489518" y="416.0" text-anchor="middle" font-size="10" fill="#0f172a">post-send</text>
<text x="437.9803684489518" y="429.0" text-anchor="middle" font-size="10" fill="#0f172a">0.231s</text>
<rect x="479.94" y="400.00" width="195.11" height="36.00" fill="#f97316" stroke="#ffffff" stroke-width="0.5"/>
<text x="577.4930055494154" y="416.0" text-anchor="middle" font-size="10" fill="#0f172a">mid-comm</text>
<text x="577.4930055494154" y="429.0" text-anchor="middle" font-size="10" fill="#0f172a">0.538s</text>
<rect x="675.05" y="400.00" width="127.29" height="36.00" fill="#22c55e" stroke="#ffffff" stroke-width="0.5"/>
<text x="738.6964628850491" y="416.0" text-anchor="middle" font-size="10" fill="#0f172a">wait-recv</text>
<text x="738.6964628850491" y="429.0" text-anchor="middle" font-size="10" fill="#0f172a">0.351s</text>
<rect x="802.34" y="400.00" width="0.57" height="36.00" fill="#16a34a" stroke="#ffffff" stroke-width="0.5"/>
<rect x="802.91" y="400.00" width="194.78" height="36.00" fill="#a3a3a3" stroke="#ffffff" stroke-width="0.5"/>
<text x="900.3035031953139" y="416.0" text-anchor="middle" font-size="10" fill="#0f172a">post-comm</text>
<text x="900.3035031953139" y="429.0" text-anchor="middle" font-size="10" fill="#0f172a">0.537s</text>
<text x="1005.6926265633015" y="422.0" font-size="11" fill="#374151">with compute  2.151s</text>
<rect x="220.00" y="442.00" width="181.47" height="36.00" fill="#94a3b8" stroke="#ffffff" stroke-width="0.5"/>
<text x="310.7357882071057" y="458.0" text-anchor="middle" font-size="10" fill="#0f172a">pre-comm</text>
<text x="310.7357882071057" y="471.0" text-anchor="middle" font-size="10" fill="#0f172a">0.500s</text>
<rect x="401.47" y="442.00" width="0.05" height="36.00" fill="#38bdf8" stroke="#ffffff" stroke-width="0.5"/>
<rect x="401.52" y="442.00" width="93.23" height="36.00" fill="#0ea5e9" stroke="#ffffff" stroke-width="0.5"/>
<text x="448.13624817421356" y="458.0" text-anchor="middle" font-size="10" fill="#0f172a">post-send</text>
<text x="448.13624817421356" y="471.0" text-anchor="middle" font-size="10" fill="#0f172a">0.257s</text>
<rect x="494.75" y="442.00" width="157.77" height="36.00" fill="#22c55e" stroke="#ffffff" stroke-width="0.5"/>
<text x="573.6370781780709" y="458.0" text-anchor="middle" font-size="10" fill="#0f172a">wait-recv</text>
<text x="573.6370781780709" y="471.0" text-anchor="middle" font-size="10" fill="#0f172a">0.435s</text>
<rect x="652.52" y="442.00" width="0.63" height="36.00" fill="#16a34a" stroke="#ffffff" stroke-width="0.5"/>
<rect x="653.15" y="442.00" width="200.34" height="36.00" fill="#a3a3a3" stroke="#ffffff" stroke-width="0.5"/>
<text x="753.318405351612" y="458.0" text-anchor="middle" font-size="10" fill="#0f172a">post-comm</text>
<text x="753.318405351612" y="471.0" text-anchor="middle" font-size="10" fill="#0f172a">0.552s</text>
<text x="861.4894289815513" y="464.0" font-size="11" fill="#374151">no midcomm    1.764s</text>
<rect x="220.00" y="534.00" width="14.00" height="14.00" fill="#94a3b8" stroke="#ffffff" stroke-width="0.5"/>
<text x="240" y="546" font-size="12">pre-comm</text>
<rect x="335.00" y="534.00" width="14.00" height="14.00" fill="#38bdf8" stroke="#ffffff" stroke-width="0.5"/>
<text x="355" y="546" font-size="12">post-recv</text>
<rect x="450.00" y="534.00" width="14.00" height="14.00" fill="#0ea5e9" stroke="#ffffff" stroke-width="0.5"/>
<text x="470" y="546" font-size="12">post-send</text>
<rect x="565.00" y="534.00" width="14.00" height="14.00" fill="#f97316" stroke="#ffffff" stroke-width="0.5"/>
<text x="585" y="546" font-size="12">mid-comm</text>
<rect x="680.00" y="534.00" width="14.00" height="14.00" fill="#22c55e" stroke="#ffffff" stroke-width="0.5"/>
<text x="700" y="546" font-size="12">wait-recv</text>
<rect x="795.00" y="534.00" width="14.00" height="14.00" fill="#16a34a" stroke="#ffffff" stroke-width="0.5"/>
<text x="815" y="546" font-size="12">wait-send</text>
<rect x="910.00" y="534.00" width="14.00" height="14.00" fill="#a3a3a3" stroke="#ffffff" stroke-width="0.5"/>
<text x="930" y="546" font-size="12">post-comm</text>
<text x="220" y="574" font-size="11" fill="#6b7280">paper overhead ratio on overlap window: for mpi rows, comm-window = wait-recv(mpi) − wait-recv(mock), measured-window = mid-comm(with) + residual wait-recv(with). 0 = perfect overlap, 1 = serialized.</text>
</svg>