<svg xmlns="http://www.w3.org/2000/svg" width="1240" height="638">
<style>text{font-family:-apple-system,Segoe UI,Roboto,sans-serif;fill:#111827;}</style>
<text x="620.0" y="36" text-anchor="middle" font-size="20" font-weight="700">cm4_inter / run_1_big_mes_inter / case 04 (async1_c1_waitall)</text>
<text x="620.0" y="62" text-anchor="middle" font-size="13" fill="#4b5563">size 512_512_512  |  cutoff 250  |  num_cycles 5</text>
<line x1="220.0" y1="92" x2="220.0" y2="488" stroke="#e5e7eb" stroke-dasharray="4 4"/>
<text x="220.0" y="506" text-anchor="middle" font-size="12">0.000s</text>
<line x1="412.0" y1="92" x2="412.0" y2="488" stroke="#e5e7eb" stroke-dasharray="4 4"/>
<text x="412.0" y="506" text-anchor="middle" font-size="12">0.982s</text>
<line x1="604.0" y1="92" x2="604.0" y2="488" stroke="#e5e7eb" stroke-dasharray="4 4"/>
<text x="604.0" y="506" text-anchor="middle" font-size="12">1.965s</text>
<line x1="796.0" y1="92" x2="796.0" y2="488" stroke="#e5e7eb" stroke-dasharray="4 4"/>
<text x="796.0" y="506" text-anchor="middle" font-size="12">2.947s</text>
<line x1="988.0" y1="92" x2="988.0" y2="488" stroke="#e5e7eb" stroke-dasharray="4 4"/>
<text x="988.0" y="506" text-anchor="middle" font-size="12">3.929s</text>
<line x1="1180.0" y1="92" x2="1180.0" y2="488" stroke="#e5e7eb" stroke-dasharray="4 4"/>
<text x="1180.0" y="506" text-anchor="middle" font-size="12">4.911s</text>
<line x1="220" y1="488" x2="1180" y2="488" stroke="#374151"/>
<text x="208" y="129.0" text-anchor="end" font-size="14" font-weight="700">mock seq</text>
<text x="208" y="147.0" text-anchor="end" font-size="11" fill="#374151">compute 1.070s  |  comm-window 0.428s  |  fixed mock 0.000s</text>
<text x="208" y="163.0" text-anchor="end" font-size="11" fill="#6b7280">measured-window 1.506s | ideal 1.070s / serial 1.498s | serialized Δ 0.428s → ratio 1.020x</text>
<rect x="220.00" y="100.00" width="189.84" height="36.00" fill="#94a3b8" stroke="#ffffff" stroke-width="0.5"/>
<text x="314.9204204181187" y="116.0" text-anchor="middle" font-size="10" fill="#0f172a">pre-comm</text>
<text x="314.9204204181187" y="129.0" text-anchor="middle" font-size="10" fill="#0f172a">0.971s</text>
<rect x="409.84" y="100.00" width="0.03" height="36.00" fill="#38bdf8" stroke="#ffffff" stroke-width="0.5"/>
<rect x="409.87" y="100.00" width="96.61" height="36.00" fill="#0ea5e9" stroke="#ffffff" stroke-width="0.5"/>
<text x="458.17511057393256" y="116.0" text-anchor="middle" font-size="10" fill="#0f172a">post-send</text>
<text x="458.17511057393256" y="129.0" text-anchor="middle" font-size="10" fill="#0f172a">0.494s</text>
<rect x="506.48" y="100.00" width="209.13" height="36.00" fill="#f97316" stroke="#ffffff" stroke-width="0.5"/>
<text x="611.0474019992246" y="116.0" text-anchor="middle" font-size="10" fill="#0f172a">mid-comm</text>
<text x="611.0474019992246" y="129.0" text-anchor="middle" font-size="10" fill="#0f172a">1.070s</text>
<rect x="715.61" y="100.00" width="85.28" height="36.00" fill="#22c55e" stroke="#ffffff" stroke-width="0.5"/>
<text x="758.2502092213581" y="116.0" text-anchor="middle" font-size="10" fill="#0f172a">wait-recv</text>
<text x="758.2502092213581" y="129.0" text-anchor="middle" font-size="10" fill="#0f172a">0.436s</text>
<rect x="800.89" y="100.00" width="1.25" height="36.00" fill="#16a34a" stroke="#ffffff" stroke-width="0.5"/>
<rect x="802.14" y="100.00" width="212.90" height="36.00" fill="#a3a3a3" stroke="#ffffff" stroke-width="0.5"/>
<text x="908.5927157289483" y="116.0" text-anchor="middle" font-size="10" fill="#0f172a">post-comm</text>
<text x="908.5927157289483" y="129.0" text-anchor="middle" font-size="10" fill="#0f172a">1.089s</text>
<text x="1023.0451377597605" y="122.0" font-size="11" fill="#374151">with compute  4.123s</text>
<rect x="220.00" y="142.00" width="183.00" height="36.00" fill="#94a3b8" stroke="#ffffff" stroke-width="0.5"/>
<text x="311.49876457013124" y="158.0" text-anchor="middle" font-size="10" fill="#0f172a">pre-comm</text>
<text x="311.49876457013124" y="171.0" text-anchor="middle" font-size="10" fill="#0f172a">0.936s</text>
<rect x="403.00" y="142.00" width="0.03" height="36.00" fill="#38bdf8" stroke="#ffffff" stroke-width="0.5"/>
<rect x="403.02" y="142.00" width="97.78" height="36.00" fill="#0ea5e9" stroke="#ffffff" stroke-width="0.5"/>
<text x="451.912103564964" y="158.0" text-anchor="middle" font-size="10" fill="#0f172a">post-send</text>
<text x="451.912103564964" y="171.0" text-anchor="middle" font-size="10" fill="#0f172a">0.500s</text>
<rect x="500.80" y="142.00" width="83.63" height="36.00" fill="#22c55e" stroke="#ffffff" stroke-width="0.5"/>
<text x="542.6137010751171" y="158.0" text-anchor="middle" font-size="10" fill="#0f172a">wait-recv</text>
<text x="542.6137010751171" y="171.0" text-anchor="middle" font-size="10" fill="#0f172a">0.428s</text>
<rect x="584.43" y="142.00" width="2.40" height="36.00" fill="#16a34a" stroke="#ffffff" stroke-width="0.5"/>
<rect x="586.83" y="142.00" width="205.72" height="36.00" fill="#a3a3a3" stroke="#ffffff" stroke-width="0.5"/>
<text x="689.6883718564985" y="158.0" text-anchor="middle" font-size="10" fill="#0f172a">post-comm</text>
<text x="689.6883718564985" y="171.0" text-anchor="middle" font-size="10" fill="#0f172a">1.052s</text>
<text x="800.5492796662547" y="164.0" font-size="11" fill="#374151">no midcomm    2.950s</text>
<text x="208" y="229.0" text-anchor="end" font-size="14" font-weight="700">mock omp</text>
<text x="208" y="247.0" text-anchor="end" font-size="11" fill="#374151">compute 1.129s  |  comm-window 0.431s  |  fixed mock 0.000s</text>
<text x="208" y="263.0" text-anchor="end" font-size="11" fill="#6b7280">measured-window 1.581s | ideal 1.129s / serial 1.559s | serialized Δ 0.431s → ratio 1.051x</text>
<rect x="220.00" y="200.00" width="196.90" height="36.00" fill="#94a3b8" stroke="#ffffff" stroke-width="0.5"/>
<text x="318.44755098030976" y="216.0" text-anchor="middle" font-size="10" fill="#0f172a">pre-comm</text>
<text x="318.44755098030976" y="229.0" text-anchor="middle" font-size="10" fill="#0f172a">1.007s</text>
<rect x="416.90" y="200.00" width="0.03" height="36.00" fill="#38bdf8" stroke="#ffffff" stroke-width="0.5"/>
<rect x="416.93" y="200.00" width="97.43" height="36.00" fill="#0ea5e9" stroke="#ffffff" stroke-width="0.5"/>
<text x="465.64368928058616" y="216.0" text-anchor="middle" font-size="10" fill="#0f172a">post-send</text>
<text x="465.64368928058616" y="229.0" text-anchor="middle" font-size="10" fill="#0f172a">0.498s</text>
<rect x="514.36" y="200.00" width="220.63" height="36.00" fill="#f97316" stroke="#ffffff" stroke-width="0.5"/>
<text x="624.674495233583" y="216.0" text-anchor="middle" font-size="10" fill="#0f172a">mid-comm</text>
<text x="624.674495233583" y="229.0" text-anchor="middle" font-size="10" fill="#0f172a">1.129s</text>
<rect x="734.99" y="200.00" width="88.47" height="36.00" fill="#22c55e" stroke="#ffffff" stroke-width="0.5"/>
<text x="779.2216003524127" y="216.0" text-anchor="middle" font-size="10" fill="#0f172a">wait-recv</text>
<text x="779.2216003524127" y="229.0" text-anchor="middle" font-size="10" fill="#0f172a">0.453s</text>
<rect x="823.46" y="200.00" width="1.85" height="36.00" fill="#16a34a" stroke="#ffffff" stroke-width="0.5"/>
<rect x="825.30" y="200.00" width="218.27" height="36.00" fill="#a3a3a3" stroke="#ffffff" stroke-width="0.5"/>
<text x="934.4389455564021" y="216.0" text-anchor="middle" font-size="10" fill="#0f172a">post-comm</text>
<text x="934.4389455564021" y="229.0" text-anchor="middle" font-size="10" fill="#0f172a">1.117s</text>
<text x="1051.5762573482866" y="222.0" font-size="11" fill="#374151">with compute  4.428s</text>
<rect x="220.00" y="242.00" width="184.24" height="36.00" fill="#94a3b8" stroke="#ffffff" stroke-width="0.5"/>
<text x="312.12229385925053" y="258.0" text-anchor="middle" font-size="10" fill="#0f172a">pre-comm</text>
<text x="312.12229385925053" y="271.0" text-anchor="middle" font-size="10" fill="#0f172a">0.943s</text>
<rect x="404.24" y="242.00" width="0.03" height="36.00" fill="#38bdf8" stroke="#ffffff" stroke-width="0.5"/>
<rect x="404.27" y="242.00" width="99.98" height="36.00" fill="#0ea5e9" stroke="#ffffff" stroke-width="0.5"/>
<text x="454.25790843422317" y="258.0" text-anchor="middle" font-size="10" fill="#0f172a">post-send</text>
<text x="454.25790843422317" y="271.0" text-anchor="middle" font-size="10" fill="#0f172a">0.511s</text>
<rect x="504.25" y="242.00" width="84.20" height="36.00" fill="#22c55e" stroke="#ffffff" stroke-width="0.5"/>
<text x="546.3478716808795" y="258.0" text-anchor="middle" font-size="10" fill="#0f172a">wait-recv</text>
<text x="546.3478716808795" y="271.0" text-anchor="middle" font-size="10" fill="#0f172a">0.431s</text>
<rect x="588.45" y="242.00" width="0.60" height="36.00" fill="#16a34a" stroke="#ffffff" stroke-width="0.5"/>
<rect x="589.05" y="242.00" width="211.00" height="36.00" fill="#a3a3a3" stroke="#ffffff" stroke-width="0.5"/>
<text x="694.5476414277883" y="258.0" text-anchor="middle" font-size="10" fill="#0f172a">post-comm</text>
<text x="694.5476414277883" y="271.0" text-anchor="middle" font-size="10" fill="#0f172a">1.079s</text>
<text x="808.0495028884638" y="264.0" font-size="11" fill="#374151">no midcomm    3.032s</text>
<text x="208" y="329.0" text-anchor="end" font-size="14" font-weight="700">mpi  seq</text>
<text x="208" y="347.0" text-anchor="end" font-size="11" fill="#374151">compute 1.160s  |  comm-window 0.523s  |  fixed mock 0.428s</text>
<text x="208" y="363.0" text-anchor="end" font-size="11" fill="#6b7280">measured-window 1.297s | ideal 1.160s / serial 1.683s | serialized Δ 0.523s → ratio 0.262x</text>
<rect x="220.00" y="300.00" width="198.89" height="36.00" fill="#94a3b8" stroke="#ffffff" stroke-width="0.5"/>
<text x="319.44694563112614" y="316.0" text-anchor="middle" font-size="10" fill="#0f172a">pre-comm</text>
<text x="319.44694563112614" y="329.0" text-anchor="middle" font-size="10" fill="#0f172a">1.018s</text>
<rect x="418.89" y="300.00" width="0.04" height="36.00" fill="#38bdf8" stroke="#ffffff" stroke-width="0.5"/>
<rect x="418.93" y="300.00" width="99.86" height="36.00" fill="#0ea5e9" stroke="#ffffff" stroke-width="0.5"/>
<text x="468.8595863858822" y="316.0" text-anchor="middle" font-size="10" fill="#0f172a">post-send</text>
<text x="468.8595863858822" y="329.0" text-anchor="middle" font-size="10" fill="#0f172a">0.511s</text>
<rect x="518.79" y="300.00" width="226.71" height="36.00" fill="#f97316" stroke="#ffffff" stroke-width="0.5"/>
<text x="632.1431921991278" y="316.0" text-anchor="middle" font-size="10" fill="#0f172a">mid-comm</text>
<text x="632.1431921991278" y="329.0" text-anchor="middle" font-size="10" fill="#0f172a">1.160s</text>
<rect x="745.50" y="300.00" width="112.08" height="36.00" fill="#22c55e" stroke="#ffffff" stroke-width="0.5"/>
<text x="801.5371357247243" y="316.0" text-anchor="middle" font-size="10" fill="#0f172a">wait-recv</text>
<text x="801.5371357247243" y="329.0" text-anchor="middle" font-size="10" fill="#0f172a">0.573s</text>
<rect x="857.58" y="300.00" width="0.69" height="36.00" fill="#16a34a" stroke="#ffffff" stroke-width="0.5"/>
<rect x="858.26" y="300.00" width="218.88" height="36.00" fill="#a3a3a3" stroke="#ffffff" stroke-width="0.5"/>
<text x="967.7033562558956" y="316.0" text-anchor="middle" font-size="10" fill="#0f172a">post-comm</text>
<text x="967.7033562558956" y="329.0" text-anchor="middle" font-size="10" fill="#0f172a">1.120s</text>
<text x="1085.142857142857" y="322.0" font-size="11" fill="#374151">with compute  4.522s</text>
<rect x="220.00" y="342.00" width="193.86" height="36.00" fill="#94a3b8" stroke="#ffffff" stroke-width="0.5"/>
<text x="316.92994440183816" y="358.0" text-anchor="middle" font-size="10" fill="#0f172a">pre-comm</text>
<text x="316.92994440183816" y="371.0" text-anchor="middle" font-size="10" fill="#0f172a">0.992s</text>
<rect x="413.86" y="342.00" width="0.04" height="36.00" fill="#38bdf8" stroke="#ffffff" stroke-width="0.5"/>
<rect x="413.90" y="342.00" width="101.82" height="36.00" fill="#0ea5e9" stroke="#ffffff" stroke-width="0.5"/>
<text x="464.80621499692893" y="358.0" text-anchor="middle" font-size="10" fill="#0f172a">post-send</text>
<text x="464.80621499692893" y="371.0" text-anchor="middle" font-size="10" fill="#0f172a">0.521s</text>
<rect x="515.72" y="342.00" width="185.92" height="36.00" fill="#22c55e" stroke="#ffffff" stroke-width="0.5"/>
<text x="608.6768634294539" y="358.0" text-anchor="middle" font-size="10" fill="#0f172a">wait-recv</text>
<text x="608.6768634294539" y="371.0" text-anchor="middle" font-size="10" fill="#0f172a">0.951s</text>
<rect x="701.64" y="342.00" width="0.68" height="36.00" fill="#16a34a" stroke="#ffffff" stroke-width="0.5"/>
<rect x="702.32" y="342.00" width="216.57" height="36.00" fill="#a3a3a3" stroke="#ffffff" stroke-width="0.5"/>
<text x="810.5984163831653" y="358.0" text-anchor="middle" font-size="10" fill="#0f172a">post-comm</text>
<text x="810.5984163831653" y="371.0" text-anchor="middle" font-size="10" fill="#0f172a">1.108s</text>
<text x="926.8812353618551" y="364.0" font-size="11" fill="#374151">no midcomm    3.612s</text>
<text x="208" y="429.0" text-anchor="end" font-size="14" font-weight="700">mpi  omp</text>
<text x="208" y="447.0" text-anchor="end" font-size="11" fill="#374151">compute 1.077s  |  comm-window 0.459s  |  fixed mock 0.431s</text>
<text x="208" y="463.0" text-anchor="end" font-size="11" fill="#6b7280">measured-window 1.080s | ideal 1.077s / serial 1.536s | serialized Δ 0.459s → ratio 0.006x</text>
<rect x="220.00" y="400.00" width="187.73" height="36.00" fill="#94a3b8" stroke="#ffffff" stroke-width="0.5"/>
<text x="313.86735333421495" y="416.0" text-anchor="middle" font-size="10" fill="#0f172a">pre-comm</text>
<text x="313.86735333421495" y="429.0" text-anchor="middle" font-size="10" fill="#0f172a">0.960s</text>
<rect x="407.73" y="400.00" width="0.03" height="36.00" fill="#38bdf8" stroke="#ffffff" stroke-width="0.5"/>
<rect x="407.76" y="400.00" width="93.45" height="36.00" fill="#0ea5e9" stroke="#ffffff" stroke-width="0.5"/>
<text x="454.48701646652097" y="416.0" text-anchor="middle" font-size="10" fill="#0f172a">post-send</text>
<text x="454.48701646652097" y="429.0" text-anchor="middle" font-size="10" fill="#0f172a">0.478s</text>
<rect x="501.21" y="400.00" width="210.52" height="36.00" fill="#f97316" stroke="#ffffff" stroke-width="0.5"/>
<text x="606.472803080888" y="416.0" text-anchor="middle" font-size="10" fill="#0f172a">mid-comm</text>
<text x="606.472803080888" y="429.0" text-anchor="middle" font-size="10" fill="#0f172a">1.077s</text>
<rect x="711.73" y="400.00" width="89.01" height="36.00" fill="#22c55e" stroke="#ffffff" stroke-width="0.5"/>
<text x="756.2404076713152" y="416.0" text-anchor="middle" font-size="10" fill="#0f172a">wait-recv</text>
<text x="756.2404076713152" y="429.0" text-anchor="middle" font-size="10" fill="#0f172a">0.455s</text>
<rect x="800.75" y="400.00" width="2.37" height="36.00" fill="#16a34a" stroke="#ffffff" stroke-width="0.5"/>
<rect x="803.11" y="400.00" width="207.13" height="36.00" fill="#a3a3a3" stroke="#ffffff" stroke-width="0.5"/>
<text x="906.6823220165167" y="416.0" text-anchor="middle" font-size="10" fill="#0f172a">post-comm</text>
<text x="906.6823220165167" y="429.0" text-anchor="middle" font-size="10" fill="#0f172a">1.060s</text>
<text x="1018.2497494913844" y="422.0" font-size="11" fill="#374151">with compute  4.069s</text>
<rect x="220.00" y="442.00" width="195.52" height="36.00" fill="#94a3b8" stroke="#ffffff" stroke-width="0.5"/>
<text x="317.76002799346287" y="458.0" text-anchor="middle" font-size="10" fill="#0f172a">pre-comm</text>
<text x="317.76002799346287" y="471.0" text-anchor="middle" font-size="10" fill="#0f172a">1.000s</text>
<rect x="415.52" y="442.00" width="0.03" height="36.00" fill="#38bdf8" stroke="#ffffff" stroke-width="0.5"/>
<rect x="415.55" y="442.00" width="102.26" height="36.00" fill="#0ea5e9" stroke="#ffffff" stroke-width="0.5"/>
<text x="466.6833027052497" y="458.0" text-anchor="middle" font-size="10" fill="#0f172a">post-send</text>
<text x="466.6833027052497" y="471.0" text-anchor="middle" font-size="10" fill="#0f172a">0.523s</text>
<rect x="517.81" y="442.00" width="173.83" height="36.00" fill="#22c55e" stroke="#ffffff" stroke-width="0.5"/>
<text x="604.7258275186808" y="458.0" text-anchor="middle" font-size="10" fill="#0f172a">wait-recv</text>
<text x="604.7258275186808" y="471.0" text-anchor="middle" font-size="10" fill="#0f172a">0.889s</text>
<rect x="691.64" y="442.00" width="0.68" height="36.00" fill="#16a34a" stroke="#ffffff" stroke-width="0.5"/>
<rect x="692.32" y="442.00" width="214.81" height="36.00" fill="#a3a3a3" stroke="#ffffff" stroke-width="0.5"/>
<text x="799.7284216911668" y="458.0" text-anchor="middle" font-size="10" fill="#0f172a">post-comm</text>
<text x="799.7284216911668" y="471.0" text-anchor="middle" font-size="10" fill="#0f172a">1.099s</text>
<text x="915.135487644577" y="464.0" font-size="11" fill="#374151">no midcomm    3.538s</text>
<rect x="220.00" y="534.00" width="14.00" height="14.00" fill="#94a3b8" stroke="#ffffff" stroke-width="0.5"/>
<text x="240" y="546" font-size="12">pre-comm</text>
<rect x="335.00" y="534.00" width="14.00" height="14.00" fill="#38bdf8" stroke="#ffffff" stroke-width="0.5"/>
<text x="355" y="546" font-size="12">post-recv</text>
<rect x="450.00" y="534.00" width="14.00" height="14.00" fill="#0ea5e9" stroke="#ffffff" stroke-width="0.5"/>
<text x="470" y="546" font-size="12">post-send</text>
<rect x="565.00" y="534.00" width="14.00" height="14.00" fill="#f97316" stroke="#ffffff" stroke-width="0.5"/>
<text x="585" y="546" font-size="12">mid-comm</text>
<rect x="680.00" y="534.00" width="14.00" height="14.00" fill="#22c55e" stroke="#ffffff" stroke-width="0.5"/>
<text x="700" y="546" font-size="12">wait-recv</text>
<rect x="795.00" y="534.00" width="14.00" height="14.00" fill="#16a34a" stroke="#ffffff" stroke-width="0.5"/>
<text x="815" y="546" font-size="12">wait-send</text>
<rect x="910.00" y="534.00" width="14.00" height="14.00" fill="#a3a3a3" stroke="#ffffff" stroke-width="0.5"/>
<text x="930" y="546" font-size="12">post-comm</text>
<text x="220" y="574" font-size="11" fill="#6b7280">paper overhead ratio on overlap window: for mpi rows, comm-window = wait-recv(mpi) − wait-recv(mock), measured-window = mid-comm(with) + residual wait-recv(with). 0 = perfect overlap, 1 = serialized.</text>
</svg>