<svg xmlns="http://www.w3.org/2000/svg" width="1240" height="638">
<style>text{font-family:-apple-system,Segoe UI,Roboto,sans-serif;fill:#111827;}</style>
<text x="620.0" y="36" text-anchor="middle" font-size="20" font-weight="700">cm4_inter / run_1_big_mes_inter / case 00 (async0_c1_waitall)</text>
<text x="620.0" y="62" text-anchor="middle" font-size="13" fill="#4b5563">size 512_512_512  |  cutoff 250  |  num_cycles 5</text>
<line x1="220.0" y1="92" x2="220.0" y2="488" stroke="#e5e7eb" stroke-dasharray="4 4"/>
<text x="220.0" y="506" text-anchor="middle" font-size="12">0.000s</text>
<line x1="412.0" y1="92" x2="412.0" y2="488" stroke="#e5e7eb" stroke-dasharray="4 4"/>
<text x="412.0" y="506" text-anchor="middle" font-size="12">0.491s</text>
<line x1="604.0" y1="92" x2="604.0" y2="488" stroke="#e5e7eb" stroke-dasharray="4 4"/>
<text x="604.0" y="506" text-anchor="middle" font-size="12">0.982s</text>
<line x1="796.0" y1="92" x2="796.0" y2="488" stroke="#e5e7eb" stroke-dasharray="4 4"/>
<text x="796.0" y="506" text-anchor="middle" font-size="12">1.473s</text>
<line x1="988.0" y1="92" x2="988.0" y2="488" stroke="#e5e7eb" stroke-dasharray="4 4"/>
<text x="988.0" y="506" text-anchor="middle" font-size="12">1.963s</text>
<line x1="1180.0" y1="92" x2="1180.0" y2="488" stroke="#e5e7eb" stroke-dasharray="4 4"/>
<text x="1180.0" y="506" text-anchor="middle" font-size="12">2.454s</text>
<line x1="220" y1="488" x2="1180" y2="488" stroke="#374151"/>
<text x="208" y="129.0" text-anchor="end" font-size="14" font-weight="700">mock seq</text>
<text x="208" y="147.0" text-anchor="end" font-size="11" fill="#374151">compute 0.541s  |  comm-window 0.213s  |  fixed mock 0.000s</text>
<text x="208" y="163.0" text-anchor="end" font-size="11" fill="#6b7280">measured-window 0.753s | ideal 0.541s / serial 0.754s | serialized Δ 0.213s → ratio 0.999x</text>
<rect x="220.00" y="100.00" width="191.06" height="36.00" fill="#94a3b8" stroke="#ffffff" stroke-width="0.5"/>
<text x="315.52971125881146" y="116.0" text-anchor="middle" font-size="10" fill="#0f172a">pre-comm</text>
<text x="315.52971125881146" y="129.0" text-anchor="middle" font-size="10" fill="#0f172a">0.488s</text>
<rect x="411.06" y="100.00" width="0.17" height="36.00" fill="#38bdf8" stroke="#ffffff" stroke-width="0.5"/>
<rect x="411.23" y="100.00" width="93.15" height="36.00" fill="#0ea5e9" stroke="#ffffff" stroke-width="0.5"/>
<text x="457.80732646031345" y="116.0" text-anchor="middle" font-size="10" fill="#0f172a">post-send</text>
<text x="457.80732646031345" y="129.0" text-anchor="middle" font-size="10" fill="#0f172a">0.238s</text>
<rect x="504.38" y="100.00" width="211.50" height="36.00" fill="#f97316" stroke="#ffffff" stroke-width="0.5"/>
<text x="610.1363632227694" y="116.0" text-anchor="middle" font-size="10" fill="#0f172a">mid-comm</text>
<text x="610.1363632227694" y="129.0" text-anchor="middle" font-size="10" fill="#0f172a">0.541s</text>
<rect x="715.89" y="100.00" width="83.22" height="36.00" fill="#22c55e" stroke="#ffffff" stroke-width="0.5"/>
<text x="757.5006515257194" y="116.0" text-anchor="middle" font-size="10" fill="#0f172a">wait-recv</text>
<text x="757.5006515257194" y="129.0" text-anchor="middle" font-size="10" fill="#0f172a">0.213s</text>
<rect x="799.11" y="100.00" width="1.18" height="36.00" fill="#16a34a" stroke="#ffffff" stroke-width="0.5"/>
<rect x="800.29" y="100.00" width="209.10" height="36.00" fill="#a3a3a3" stroke="#ffffff" stroke-width="0.5"/>
<text x="904.8425867168814" y="116.0" text-anchor="middle" font-size="10" fill="#0f172a">post-comm</text>
<text x="904.8425867168814" y="129.0" text-anchor="middle" font-size="10" fill="#0f172a">0.535s</text>
<text x="1017.3907914231244" y="122.0" font-size="11" fill="#374151">with compute  2.027s</text>
<rect x="220.00" y="142.00" width="186.83" height="36.00" fill="#94a3b8" stroke="#ffffff" stroke-width="0.5"/>
<text x="313.41689090823365" y="158.0" text-anchor="middle" font-size="10" fill="#0f172a">pre-comm</text>
<text x="313.41689090823365" y="171.0" text-anchor="middle" font-size="10" fill="#0f172a">0.478s</text>
<rect x="406.83" y="142.00" width="0.17" height="36.00" fill="#38bdf8" stroke="#ffffff" stroke-width="0.5"/>
<rect x="407.00" y="142.00" width="97.88" height="36.00" fill="#0ea5e9" stroke="#ffffff" stroke-width="0.5"/>
<text x="455.94161463162584" y="158.0" text-anchor="middle" font-size="10" fill="#0f172a">post-send</text>
<text x="455.94161463162584" y="171.0" text-anchor="middle" font-size="10" fill="#0f172a">0.250s</text>
<rect x="504.88" y="142.00" width="83.30" height="36.00" fill="#22c55e" stroke="#ffffff" stroke-width="0.5"/>
<text x="546.5312031107139" y="158.0" text-anchor="middle" font-size="10" fill="#0f172a">wait-recv</text>
<text x="546.5312031107139" y="171.0" text-anchor="middle" font-size="10" fill="#0f172a">0.213s</text>
<rect x="588.18" y="142.00" width="1.24" height="36.00" fill="#16a34a" stroke="#ffffff" stroke-width="0.5"/>
<rect x="589.42" y="142.00" width="206.66" height="36.00" fill="#a3a3a3" stroke="#ffffff" stroke-width="0.5"/>
<text x="692.7473663982187" y="158.0" text-anchor="middle" font-size="10" fill="#0f172a">post-comm</text>
<text x="692.7473663982187" y="171.0" text-anchor="middle" font-size="10" fill="#0f172a">0.528s</text>
<text x="804.075742852875" y="164.0" font-size="11" fill="#374151">no midcomm    1.475s</text>
<text x="208" y="229.0" text-anchor="end" font-size="14" font-weight="700">mock omp</text>
<text x="208" y="247.0" text-anchor="end" font-size="11" fill="#374151">compute 0.539s  |  comm-window 0.216s  |  fixed mock 0.000s</text>
<text x="208" y="263.0" text-anchor="end" font-size="11" fill="#6b7280">measured-window 0.754s | ideal 0.539s / serial 0.755s | serialized Δ 0.216s → ratio 0.996x</text>
<rect x="220.00" y="200.00" width="189.69" height="36.00" fill="#94a3b8" stroke="#ffffff" stroke-width="0.5"/>
<text x="314.84682608947367" y="216.0" text-anchor="middle" font-size="10" fill="#0f172a">pre-comm</text>
<text x="314.84682608947367" y="229.0" text-anchor="middle" font-size="10" fill="#0f172a">0.485s</text>
<rect x="409.69" y="200.00" width="0.05" height="36.00" fill="#38bdf8" stroke="#ffffff" stroke-width="0.5"/>
<rect x="409.74" y="200.00" width="94.76" height="36.00" fill="#0ea5e9" stroke="#ffffff" stroke-width="0.5"/>
<text x="457.12192523355276" y="216.0" text-anchor="middle" font-size="10" fill="#0f172a">post-send</text>
<text x="457.12192523355276" y="229.0" text-anchor="middle" font-size="10" fill="#0f172a">0.242s</text>
<rect x="504.50" y="200.00" width="210.94" height="36.00" fill="#f97316" stroke="#ffffff" stroke-width="0.5"/>
<text x="609.9749678688889" y="216.0" text-anchor="middle" font-size="10" fill="#0f172a">mid-comm</text>
<text x="609.9749678688889" y="229.0" text-anchor="middle" font-size="10" fill="#0f172a">0.539s</text>
<rect x="715.45" y="200.00" width="84.07" height="36.00" fill="#22c55e" stroke="#ffffff" stroke-width="0.5"/>
<text x="757.4820231176718" y="216.0" text-anchor="middle" font-size="10" fill="#0f172a">wait-recv</text>
<text x="757.4820231176718" y="229.0" text-anchor="middle" font-size="10" fill="#0f172a">0.215s</text>
<rect x="799.52" y="200.00" width="1.41" height="36.00" fill="#16a34a" stroke="#ffffff" stroke-width="0.5"/>
<rect x="800.93" y="200.00" width="209.16" height="36.00" fill="#a3a3a3" stroke="#ffffff" stroke-width="0.5"/>
<text x="905.5076277292611" y="216.0" text-anchor="middle" font-size="10" fill="#0f172a">post-comm</text>
<text x="905.5076277292611" y="229.0" text-anchor="middle" font-size="10" fill="#0f172a">0.535s</text>
<text x="1018.0859566737356" y="222.0" font-size="11" fill="#374151">with compute  2.023s</text>
<rect x="220.00" y="242.00" width="188.59" height="36.00" fill="#94a3b8" stroke="#ffffff" stroke-width="0.5"/>
<text x="314.29489618403676" y="258.0" text-anchor="middle" font-size="10" fill="#0f172a">pre-comm</text>
<text x="314.29489618403676" y="271.0" text-anchor="middle" font-size="10" fill="#0f172a">0.482s</text>
<rect x="408.59" y="242.00" width="0.05" height="36.00" fill="#38bdf8" stroke="#ffffff" stroke-width="0.5"/>
<rect x="408.64" y="242.00" width="100.69" height="36.00" fill="#0ea5e9" stroke="#ffffff" stroke-width="0.5"/>
<text x="458.9857272837144" y="258.0" text-anchor="middle" font-size="10" fill="#0f172a">post-send</text>
<text x="458.9857272837144" y="271.0" text-anchor="middle" font-size="10" fill="#0f172a">0.257s</text>
<rect x="509.33" y="242.00" width="84.39" height="36.00" fill="#22c55e" stroke="#ffffff" stroke-width="0.5"/>
<text x="551.5270047841809" y="258.0" text-anchor="middle" font-size="10" fill="#0f172a">wait-recv</text>
<text x="551.5270047841809" y="271.0" text-anchor="middle" font-size="10" fill="#0f172a">0.216s</text>
<rect x="593.72" y="242.00" width="1.58" height="36.00" fill="#16a34a" stroke="#ffffff" stroke-width="0.5"/>
<rect x="595.31" y="242.00" width="209.10" height="36.00" fill="#a3a3a3" stroke="#ffffff" stroke-width="0.5"/>
<text x="699.8534029361281" y="258.0" text-anchor="middle" font-size="10" fill="#0f172a">post-comm</text>
<text x="699.8534029361281" y="271.0" text-anchor="middle" font-size="10" fill="#0f172a">0.535s</text>
<text x="812.4009456249302" y="264.0" font-size="11" fill="#374151">no midcomm    1.514s</text>
<text x="208" y="329.0" text-anchor="end" font-size="14" font-weight="700">mpi  seq</text>
<text x="208" y="347.0" text-anchor="end" font-size="11" fill="#374151">compute 0.564s  |  comm-window 0.145s  |  fixed mock 0.213s</text>
<text x="208" y="363.0" text-anchor="end" font-size="11" fill="#6b7280">measured-window 0.707s | ideal 0.564s / serial 0.709s | serialized Δ 0.145s → ratio 0.987x</text>
<rect x="220.00" y="300.00" width="192.85" height="36.00" fill="#94a3b8" stroke="#ffffff" stroke-width="0.5"/>
<text x="316.4249759257977" y="316.0" text-anchor="middle" font-size="10" fill="#0f172a">pre-comm</text>
<text x="316.4249759257977" y="329.0" text-anchor="middle" font-size="10" fill="#0f172a">0.493s</text>
<rect x="412.85" y="300.00" width="0.05" height="36.00" fill="#38bdf8" stroke="#ffffff" stroke-width="0.5"/>
<rect x="412.90" y="300.00" width="92.32" height="36.00" fill="#0ea5e9" stroke="#ffffff" stroke-width="0.5"/>
<text x="459.05671276387113" y="316.0" text-anchor="middle" font-size="10" fill="#0f172a">post-send</text>
<text x="459.05671276387113" y="329.0" text-anchor="middle" font-size="10" fill="#0f172a">0.236s</text>
<rect x="505.21" y="300.00" width="220.64" height="36.00" fill="#f97316" stroke="#ffffff" stroke-width="0.5"/>
<text x="615.5337239450279" y="316.0" text-anchor="middle" font-size="10" fill="#0f172a">mid-comm</text>
<text x="615.5337239450279" y="329.0" text-anchor="middle" font-size="10" fill="#0f172a">0.564s</text>
<rect x="725.85" y="300.00" width="139.17" height="36.00" fill="#22c55e" stroke="#ffffff" stroke-width="0.5"/>
<text x="795.4378425998317" y="316.0" text-anchor="middle" font-size="10" fill="#0f172a">wait-recv</text>
<text x="795.4378425998317" y="329.0" text-anchor="middle" font-size="10" fill="#0f172a">0.356s</text>
<rect x="865.02" y="300.00" width="0.73" height="36.00" fill="#16a34a" stroke="#ffffff" stroke-width="0.5"/>
<rect x="865.76" y="300.00" width="211.39" height="36.00" fill="#a3a3a3" stroke="#ffffff" stroke-width="0.5"/>
<text x="971.449261543421" y="316.0" text-anchor="middle" font-size="10" fill="#0f172a">post-comm</text>
<text x="971.449261543421" y="329.0" text-anchor="middle" font-size="10" fill="#0f172a">0.540s</text>
<text x="1085.142857142857" y="322.0" font-size="11" fill="#374151">with compute  2.215s</text>
<rect x="220.00" y="342.00" width="185.11" height="36.00" fill="#94a3b8" stroke="#ffffff" stroke-width="0.5"/>
<text x="312.5533072472276" y="358.0" text-anchor="middle" font-size="10" fill="#0f172a">pre-comm</text>
<text x="312.5533072472276" y="371.0" text-anchor="middle" font-size="10" fill="#0f172a">0.473s</text>
<rect x="405.11" y="342.00" width="0.05" height="36.00" fill="#38bdf8" stroke="#ffffff" stroke-width="0.5"/>
<rect x="405.15" y="342.00" width="95.66" height="36.00" fill="#0ea5e9" stroke="#ffffff" stroke-width="0.5"/>
<text x="452.9871628054624" y="358.0" text-anchor="middle" font-size="10" fill="#0f172a">post-send</text>
<text x="452.9871628054624" y="371.0" text-anchor="middle" font-size="10" fill="#0f172a">0.245s</text>
<rect x="500.82" y="342.00" width="140.01" height="36.00" fill="#22c55e" stroke="#ffffff" stroke-width="0.5"/>
<text x="570.823577158241" y="358.0" text-anchor="middle" font-size="10" fill="#0f172a">wait-recv</text>
<text x="570.823577158241" y="371.0" text-anchor="middle" font-size="10" fill="#0f172a">0.358s</text>
<rect x="640.83" y="342.00" width="0.63" height="36.00" fill="#16a34a" stroke="#ffffff" stroke-width="0.5"/>
<rect x="641.46" y="342.00" width="204.26" height="36.00" fill="#a3a3a3" stroke="#ffffff" stroke-width="0.5"/>
<text x="743.5873800707204" y="358.0" text-anchor="middle" font-size="10" fill="#0f172a">post-comm</text>
<text x="743.5873800707204" y="371.0" text-anchor="middle" font-size="10" fill="#0f172a">0.522s</text>
<text x="853.7189854513941" y="364.0" font-size="11" fill="#374151">no midcomm    1.605s</text>
<text x="208" y="429.0" text-anchor="end" font-size="14" font-weight="700">mpi  omp</text>
<text x="208" y="447.0" text-anchor="end" font-size="11" fill="#374151">compute 0.539s  |  comm-window 0.192s  |  fixed mock 0.216s</text>
<text x="208" y="463.0" text-anchor="end" font-size="11" fill="#6b7280">measured-window 0.680s | ideal 0.539s / serial 0.731s | serialized Δ 0.192s → ratio 0.732x</text>
<rect x="220.00" y="400.00" width="190.30" height="36.00" fill="#94a3b8" stroke="#ffffff" stroke-width="0.5"/>
<text x="315.15090233669844" y="416.0" text-anchor="middle" font-size="10" fill="#0f172a">pre-comm</text>
<text x="315.15090233669844" y="429.0" text-anchor="middle" font-size="10" fill="#0f172a">0.487s</text>
<rect x="410.30" y="400.00" width="0.05" height="36.00" fill="#38bdf8" stroke="#ffffff" stroke-width="0.5"/>
<rect x="410.35" y="400.00" width="92.38" height="36.00" fill="#0ea5e9" stroke="#ffffff" stroke-width="0.5"/>
<text x="456.5366891035438" y="416.0" text-anchor="middle" font-size="10" fill="#0f172a">post-send</text>
<text x="456.5366891035438" y="429.0" text-anchor="middle" font-size="10" fill="#0f172a">0.236s</text>
<rect x="502.72" y="400.00" width="210.74" height="36.00" fill="#f97316" stroke="#ffffff" stroke-width="0.5"/>
<text x="608.0924396237608" y="416.0" text-anchor="middle" font-size="10" fill="#0f172a">mid-comm</text>
<text x="608.0924396237608" y="429.0" text-anchor="middle" font-size="10" fill="#0f172a">0.539s</text>
<rect x="713.46" y="400.00" width="139.15" height="36.00" fill="#22c55e" stroke="#ffffff" stroke-width="0.5"/>
<text x="783.0370541315183" y="416.0" text-anchor="middle" font-size="10" fill="#0f172a">wait-recv</text>
<text x="783.0370541315183" y="429.0" text-anchor="middle" font-size="10" fill="#0f172a">0.356s</text>
<rect x="852.61" y="400.00" width="0.72" height="36.00" fill="#16a34a" stroke="#ffffff" stroke-width="0.5"/>
<rect x="853.34" y="400.00" width="209.65" height="36.00" fill="#a3a3a3" stroke="#ffffff" stroke-width="0.5"/>
<text x="958.1628032606023" y="416.0" text-anchor="middle" font-size="10" fill="#0f172a">post-comm</text>
<text x="958.1628032606023" y="429.0" text-anchor="middle" font-size="10" fill="#0f172a">0.536s</text>
<text x="1070.9883473147086" y="422.0" font-size="11" fill="#374151">with compute  2.171s</text>
<rect x="220.00" y="442.00" width="193.08" height="36.00" fill="#94a3b8" stroke="#ffffff" stroke-width="0.5"/>
<text x="316.5397758128297" y="458.0" text-anchor="middle" font-size="10" fill="#0f172a">pre-comm</text>
<text x="316.5397758128297" y="471.0" text-anchor="middle" font-size="10" fill="#0f172a">0.494s</text>
<rect x="413.08" y="442.00" width="0.05" height="36.00" fill="#38bdf8" stroke="#ffffff" stroke-width="0.5"/>
<rect x="413.13" y="442.00" width="98.50" height="36.00" fill="#0ea5e9" stroke="#ffffff" stroke-width="0.5"/>
<text x="462.37882091404884" y="458.0" text-anchor="middle" font-size="10" fill="#0f172a">post-send</text>
<text x="462.37882091404884" y="471.0" text-anchor="middle" font-size="10" fill="#0f172a">0.252s</text>
<rect x="511.63" y="442.00" width="159.66" height="36.00" fill="#22c55e" stroke="#ffffff" stroke-width="0.5"/>
<text x="591.45814056306" y="458.0" text-anchor="middle" font-size="10" fill="#0f172a">wait-recv</text>
<text x="591.45814056306" y="471.0" text-anchor="middle" font-size="10" fill="#0f172a">0.408s</text>
<rect x="671.29" y="442.00" width="0.67" height="36.00" fill="#16a34a" stroke="#ffffff" stroke-width="0.5"/>
<rect x="671.96" y="442.00" width="214.29" height="36.00" fill="#a3a3a3" stroke="#ffffff" stroke-width="0.5"/>
<text x="779.0994086187769" y="458.0" text-anchor="middle" font-size="10" fill="#0f172a">post-comm</text>
<text x="779.0994086187769" y="471.0" text-anchor="middle" font-size="10" fill="#0f172a">0.548s</text>
<text x="894.2434687852036" y="464.0" font-size="11" fill="#374151">no midcomm    1.727s</text>
<rect x="220.00" y="534.00" width="14.00" height="14.00" fill="#94a3b8" stroke="#ffffff" stroke-width="0.5"/>
<text x="240" y="546" font-size="12">pre-comm</text>
<rect x="335.00" y="534.00" width="14.00" height="14.00" fill="#38bdf8" stroke="#ffffff" stroke-width="0.5"/>
<text x="355" y="546" font-size="12">post-recv</text>
<rect x="450.00" y="534.00" width="14.00" height="14.00" fill="#0ea5e9" stroke="#ffffff" stroke-width="0.5"/>
<text x="470" y="546" font-size="12">post-send</text>
<rect x="565.00" y="534.00" width="14.00" height="14.00" fill="#f97316" stroke="#ffffff" stroke-width="0.5"/>
<text x="585" y="546" font-size="12">mid-comm</text>
<rect x="680.00" y="534.00" width="14.00" height="14.00" fill="#22c55e" stroke="#ffffff" stroke-width="0.5"/>
<text x="700" y="546" font-size="12">wait-recv</text>
<rect x="795.00" y="534.00" width="14.00" height="14.00" fill="#16a34a" stroke="#ffffff" stroke-width="0.5"/>
<text x="815" y="546" font-size="12">wait-send</text>
<rect x="910.00" y="534.00" width="14.00" height="14.00" fill="#a3a3a3" stroke="#ffffff" stroke-width="0.5"/>
<text x="930" y="546" font-size="12">post-comm</text>
<text x="220" y="574" font-size="11" fill="#6b7280">paper overhead ratio on overlap window: for mpi rows, comm-window = wait-recv(mpi) − wait-recv(mock), measured-window = mid-comm(with) + residual wait-recv(with). 0 = perfect overlap, 1 = serialized.</text>
</svg>