<svg xmlns="http://www.w3.org/2000/svg" width="1240" height="638">
<style>text{font-family:-apple-system,Segoe UI,Roboto,sans-serif;fill:#111827;}</style>
<text x="620.0" y="36" text-anchor="middle" font-size="20" font-weight="700">cm4_inter / run_2_samll_mess_inter / case 06 (async1_c1_testall)</text>
<text x="620.0" y="62" text-anchor="middle" font-size="13" fill="#4b5563">size 512_512_512  |  cutoff 500000  |  num_cycles 5</text>
<line x1="220.0" y1="92" x2="220.0" y2="488" stroke="#e5e7eb" stroke-dasharray="4 4"/>
<text x="220.0" y="506" text-anchor="middle" font-size="12">0.000s</text>
<line x1="412.0" y1="92" x2="412.0" y2="488" stroke="#e5e7eb" stroke-dasharray="4 4"/>
<text x="412.0" y="506" text-anchor="middle" font-size="12">1.006s</text>
<line x1="604.0" y1="92" x2="604.0" y2="488" stroke="#e5e7eb" stroke-dasharray="4 4"/>
<text x="604.0" y="506" text-anchor="middle" font-size="12">2.013s</text>
<line x1="796.0" y1="92" x2="796.0" y2="488" stroke="#e5e7eb" stroke-dasharray="4 4"/>
<text x="796.0" y="506" text-anchor="middle" font-size="12">3.019s</text>
<line x1="988.0" y1="92" x2="988.0" y2="488" stroke="#e5e7eb" stroke-dasharray="4 4"/>
<text x="988.0" y="506" text-anchor="middle" font-size="12">4.026s</text>
<line x1="1180.0" y1="92" x2="1180.0" y2="488" stroke="#e5e7eb" stroke-dasharray="4 4"/>
<text x="1180.0" y="506" text-anchor="middle" font-size="12">5.032s</text>
<line x1="220" y1="488" x2="1180" y2="488" stroke="#374151"/>
<text x="208" y="129.0" text-anchor="end" font-size="14" font-weight="700">mock seq</text>
<text x="208" y="147.0" text-anchor="end" font-size="11" fill="#374151">compute 1.087s  |  comm-window 0.422s  |  fixed mock 0.000s</text>
<text x="208" y="163.0" text-anchor="end" font-size="11" fill="#6b7280">measured-window 1.518s | ideal 1.087s / serial 1.509s | serialized Δ 0.422s → ratio 1.021x</text>
<rect x="220.00" y="100.00" width="185.88" height="36.00" fill="#94a3b8" stroke="#ffffff" stroke-width="0.5"/>
<text x="312.9417236076205" y="116.0" text-anchor="middle" font-size="10" fill="#0f172a">pre-comm</text>
<text x="312.9417236076205" y="129.0" text-anchor="middle" font-size="10" fill="#0f172a">0.974s</text>
<rect x="405.88" y="100.00" width="0.08" height="36.00" fill="#38bdf8" stroke="#ffffff" stroke-width="0.5"/>
<rect x="405.97" y="100.00" width="90.30" height="36.00" fill="#0ea5e9" stroke="#ffffff" stroke-width="0.5"/>
<text x="451.11754878743585" y="116.0" text-anchor="middle" font-size="10" fill="#0f172a">post-send</text>
<text x="451.11754878743585" y="129.0" text-anchor="middle" font-size="10" fill="#0f172a">0.473s</text>
<rect x="496.27" y="100.00" width="207.33" height="36.00" fill="#f97316" stroke="#ffffff" stroke-width="0.5"/>
<text x="599.9339877090591" y="116.0" text-anchor="middle" font-size="10" fill="#0f172a">mid-comm</text>
<text x="599.9339877090591" y="129.0" text-anchor="middle" font-size="10" fill="#0f172a">1.087s</text>
<rect x="703.60" y="100.00" width="82.21" height="36.00" fill="#22c55e" stroke="#ffffff" stroke-width="0.5"/>
<text x="744.7064720264709" y="116.0" text-anchor="middle" font-size="10" fill="#0f172a">wait-recv</text>
<text x="744.7064720264709" y="129.0" text-anchor="middle" font-size="10" fill="#0f172a">0.431s</text>
<rect x="785.81" y="100.00" width="1.77" height="36.00" fill="#16a34a" stroke="#ffffff" stroke-width="0.5"/>
<rect x="787.58" y="100.00" width="201.30" height="36.00" fill="#a3a3a3" stroke="#ffffff" stroke-width="0.5"/>
<text x="888.2300228622663" y="116.0" text-anchor="middle" font-size="10" fill="#0f172a">post-comm</text>
<text x="888.2300228622663" y="129.0" text-anchor="middle" font-size="10" fill="#0f172a">1.055s</text>
<text x="996.8800777666283" y="122.0" font-size="11" fill="#374151">with compute  4.075s</text>
<rect x="220.00" y="142.00" width="178.66" height="36.00" fill="#94a3b8" stroke="#ffffff" stroke-width="0.5"/>
<text x="309.3324811262415" y="158.0" text-anchor="middle" font-size="10" fill="#0f172a">pre-comm</text>
<text x="309.3324811262415" y="171.0" text-anchor="middle" font-size="10" fill="#0f172a">0.937s</text>
<rect x="398.66" y="142.00" width="0.02" height="36.00" fill="#38bdf8" stroke="#ffffff" stroke-width="0.5"/>
<rect x="398.69" y="142.00" width="95.86" height="36.00" fill="#0ea5e9" stroke="#ffffff" stroke-width="0.5"/>
<text x="446.6177375662862" y="158.0" text-anchor="middle" font-size="10" fill="#0f172a">post-send</text>
<text x="446.6177375662862" y="171.0" text-anchor="middle" font-size="10" fill="#0f172a">0.502s</text>
<rect x="494.55" y="142.00" width="80.56" height="36.00" fill="#22c55e" stroke="#ffffff" stroke-width="0.5"/>
<text x="534.8235466094243" y="158.0" text-anchor="middle" font-size="10" fill="#0f172a">wait-recv</text>
<text x="534.8235466094243" y="171.0" text-anchor="middle" font-size="10" fill="#0f172a">0.422s</text>
<rect x="575.10" y="142.00" width="2.40" height="36.00" fill="#16a34a" stroke="#ffffff" stroke-width="0.5"/>
<rect x="577.50" y="142.00" width="198.35" height="36.00" fill="#a3a3a3" stroke="#ffffff" stroke-width="0.5"/>
<text x="676.6735695880292" y="158.0" text-anchor="middle" font-size="10" fill="#0f172a">post-comm</text>
<text x="676.6735695880292" y="171.0" text-anchor="middle" font-size="10" fill="#0f172a">1.040s</text>
<text x="783.8489257493334" y="164.0" font-size="11" fill="#374151">no midcomm    2.931s</text>
<text x="208" y="229.0" text-anchor="end" font-size="14" font-weight="700">mock omp</text>
<text x="208" y="247.0" text-anchor="end" font-size="11" fill="#374151">compute 1.133s  |  comm-window 0.426s  |  fixed mock 0.000s</text>
<text x="208" y="263.0" text-anchor="end" font-size="11" fill="#6b7280">measured-window 1.611s | ideal 1.133s / serial 1.558s | serialized Δ 0.426s → ratio 1.124x</text>
<rect x="220.00" y="200.00" width="193.88" height="36.00" fill="#94a3b8" stroke="#ffffff" stroke-width="0.5"/>
<text x="316.93813362264035" y="216.0" text-anchor="middle" font-size="10" fill="#0f172a">pre-comm</text>
<text x="316.93813362264035" y="229.0" text-anchor="middle" font-size="10" fill="#0f172a">1.016s</text>
<rect x="413.88" y="200.00" width="0.03" height="36.00" fill="#38bdf8" stroke="#ffffff" stroke-width="0.5"/>
<rect x="413.91" y="200.00" width="101.86" height="36.00" fill="#0ea5e9" stroke="#ffffff" stroke-width="0.5"/>
<text x="464.83926957276685" y="216.0" text-anchor="middle" font-size="10" fill="#0f172a">post-send</text>
<text x="464.83926957276685" y="229.0" text-anchor="middle" font-size="10" fill="#0f172a">0.534s</text>
<rect x="515.77" y="200.00" width="216.05" height="36.00" fill="#f97316" stroke="#ffffff" stroke-width="0.5"/>
<text x="623.792507068031" y="216.0" text-anchor="middle" font-size="10" fill="#0f172a">mid-comm</text>
<text x="623.792507068031" y="229.0" text-anchor="middle" font-size="10" fill="#0f172a">1.133s</text>
<rect x="731.82" y="200.00" width="91.33" height="36.00" fill="#22c55e" stroke="#ffffff" stroke-width="0.5"/>
<text x="777.4822768739147" y="216.0" text-anchor="middle" font-size="10" fill="#0f172a">wait-recv</text>
<text x="777.4822768739147" y="229.0" text-anchor="middle" font-size="10" fill="#0f172a">0.479s</text>
<rect x="823.15" y="200.00" width="0.71" height="36.00" fill="#16a34a" stroke="#ffffff" stroke-width="0.5"/>
<rect x="823.86" y="200.00" width="218.45" height="36.00" fill="#a3a3a3" stroke="#ffffff" stroke-width="0.5"/>
<text x="933.0825468190678" y="216.0" text-anchor="middle" font-size="10" fill="#0f172a">post-comm</text>
<text x="933.0825468190678" y="229.0" text-anchor="middle" font-size="10" fill="#0f172a">1.145s</text>
<text x="1050.3062481680104" y="222.0" font-size="11" fill="#374151">with compute  4.623s</text>
<rect x="220.00" y="242.00" width="181.01" height="36.00" fill="#94a3b8" stroke="#ffffff" stroke-width="0.5"/>
<text x="310.5034237785068" y="258.0" text-anchor="middle" font-size="10" fill="#0f172a">pre-comm</text>
<text x="310.5034237785068" y="271.0" text-anchor="middle" font-size="10" fill="#0f172a">0.949s</text>
<rect x="401.01" y="242.00" width="0.02" height="36.00" fill="#38bdf8" stroke="#ffffff" stroke-width="0.5"/>
<rect x="401.03" y="242.00" width="94.83" height="36.00" fill="#0ea5e9" stroke="#ffffff" stroke-width="0.5"/>
<text x="448.44381997250173" y="258.0" text-anchor="middle" font-size="10" fill="#0f172a">post-send</text>
<text x="448.44381997250173" y="271.0" text-anchor="middle" font-size="10" fill="#0f172a">0.497s</text>
<rect x="495.86" y="242.00" width="81.22" height="36.00" fill="#22c55e" stroke="#ffffff" stroke-width="0.5"/>
<text x="536.4691286906962" y="258.0" text-anchor="middle" font-size="10" fill="#0f172a">wait-recv</text>
<text x="536.4691286906962" y="271.0" text-anchor="middle" font-size="10" fill="#0f172a">0.426s</text>
<rect x="577.08" y="242.00" width="1.16" height="36.00" fill="#16a34a" stroke="#ffffff" stroke-width="0.5"/>
<rect x="578.24" y="242.00" width="198.69" height="36.00" fill="#a3a3a3" stroke="#ffffff" stroke-width="0.5"/>
<text x="677.58472960075" y="258.0" text-anchor="middle" font-size="10" fill="#0f172a">post-comm</text>
<text x="677.58472960075" y="271.0" text-anchor="middle" font-size="10" fill="#0f172a">1.042s</text>
<text x="784.9316701650087" y="264.0" font-size="11" fill="#374151">no midcomm    2.949s</text>
<text x="208" y="329.0" text-anchor="end" font-size="14" font-weight="700">mpi  seq</text>
<text x="208" y="347.0" text-anchor="end" font-size="11" fill="#374151">compute 1.165s  |  comm-window 0.423s  |  fixed mock 0.422s</text>
<text x="208" y="363.0" text-anchor="end" font-size="11" fill="#6b7280">measured-window 1.310s | ideal 1.165s / serial 1.588s | serialized Δ 0.423s → ratio 0.344x</text>
<rect x="220.00" y="300.00" width="193.42" height="36.00" fill="#94a3b8" stroke="#ffffff" stroke-width="0.5"/>
<text x="316.7116429738041" y="316.0" text-anchor="middle" font-size="10" fill="#0f172a">pre-comm</text>
<text x="316.7116429738041" y="329.0" text-anchor="middle" font-size="10" fill="#0f172a">1.014s</text>
<rect x="413.42" y="300.00" width="0.03" height="36.00" fill="#38bdf8" stroke="#ffffff" stroke-width="0.5"/>
<rect x="413.46" y="300.00" width="96.18" height="36.00" fill="#0ea5e9" stroke="#ffffff" stroke-width="0.5"/>
<text x="461.5467867408301" y="316.0" text-anchor="middle" font-size="10" fill="#0f172a">post-send</text>
<text x="461.5467867408301" y="329.0" text-anchor="middle" font-size="10" fill="#0f172a">0.504s</text>
<rect x="509.64" y="300.00" width="222.20" height="36.00" fill="#f97316" stroke="#ffffff" stroke-width="0.5"/>
<text x="620.7345127459498" y="316.0" text-anchor="middle" font-size="10" fill="#0f172a">mid-comm</text>
<text x="620.7345127459498" y="329.0" text-anchor="middle" font-size="10" fill="#0f172a">1.165s</text>
<rect x="731.83" y="300.00" width="110.00" height="36.00" fill="#22c55e" stroke="#ffffff" stroke-width="0.5"/>
<text x="786.834457620498" y="316.0" text-anchor="middle" font-size="10" fill="#0f172a">wait-recv</text>
<text x="786.834457620498" y="329.0" text-anchor="middle" font-size="10" fill="#0f172a">0.577s</text>
<rect x="841.84" y="300.00" width="1.23" height="36.00" fill="#16a34a" stroke="#ffffff" stroke-width="0.5"/>
<rect x="843.06" y="300.00" width="215.50" height="36.00" fill="#a3a3a3" stroke="#ffffff" stroke-width="0.5"/>
<text x="950.8125356287441" y="316.0" text-anchor="middle" font-size="10" fill="#0f172a">post-comm</text>
<text x="950.8125356287441" y="329.0" text-anchor="middle" font-size="10" fill="#0f172a">1.130s</text>
<text x="1066.5618391678606" y="322.0" font-size="11" fill="#374151">with compute  4.531s</text>
<rect x="220.00" y="342.00" width="181.31" height="36.00" fill="#94a3b8" stroke="#ffffff" stroke-width="0.5"/>
<text x="310.65471450333985" y="358.0" text-anchor="middle" font-size="10" fill="#0f172a">pre-comm</text>
<text x="310.65471450333985" y="371.0" text-anchor="middle" font-size="10" fill="#0f172a">0.950s</text>
<rect x="401.31" y="342.00" width="0.03" height="36.00" fill="#38bdf8" stroke="#ffffff" stroke-width="0.5"/>
<rect x="401.34" y="342.00" width="96.39" height="36.00" fill="#0ea5e9" stroke="#ffffff" stroke-width="0.5"/>
<text x="449.5326388518504" y="358.0" text-anchor="middle" font-size="10" fill="#0f172a">post-send</text>
<text x="449.5326388518504" y="371.0" text-anchor="middle" font-size="10" fill="#0f172a">0.505s</text>
<rect x="497.73" y="342.00" width="161.29" height="36.00" fill="#22c55e" stroke="#ffffff" stroke-width="0.5"/>
<text x="578.3717710928703" y="358.0" text-anchor="middle" font-size="10" fill="#0f172a">wait-recv</text>
<text x="578.3717710928703" y="371.0" text-anchor="middle" font-size="10" fill="#0f172a">0.845s</text>
<rect x="659.02" y="342.00" width="1.58" height="36.00" fill="#16a34a" stroke="#ffffff" stroke-width="0.5"/>
<rect x="660.59" y="342.00" width="200.93" height="36.00" fill="#a3a3a3" stroke="#ffffff" stroke-width="0.5"/>
<text x="761.0586129947046" y="358.0" text-anchor="middle" font-size="10" fill="#0f172a">post-comm</text>
<text x="761.0586129947046" y="371.0" text-anchor="middle" font-size="10" fill="#0f172a">1.053s</text>
<text x="869.5258683679231" y="364.0" font-size="11" fill="#374151">no midcomm    3.402s</text>
<text x="208" y="429.0" text-anchor="end" font-size="14" font-weight="700">mpi  omp</text>
<text x="208" y="447.0" text-anchor="end" font-size="11" fill="#374151">compute 1.118s  |  comm-window 0.561s  |  fixed mock 0.426s</text>
<text x="208" y="463.0" text-anchor="end" font-size="11" fill="#6b7280">measured-window 1.296s | ideal 1.118s / serial 1.679s | serialized Δ 0.561s → ratio 0.318x</text>
<rect x="220.00" y="400.00" width="194.45" height="36.00" fill="#94a3b8" stroke="#ffffff" stroke-width="0.5"/>
<text x="317.2225865873293" y="416.0" text-anchor="middle" font-size="10" fill="#0f172a">pre-comm</text>
<text x="317.2225865873293" y="429.0" text-anchor="middle" font-size="10" fill="#0f172a">1.019s</text>
<rect x="414.45" y="400.00" width="0.04" height="36.00" fill="#38bdf8" stroke="#ffffff" stroke-width="0.5"/>
<rect x="414.48" y="400.00" width="101.94" height="36.00" fill="#0ea5e9" stroke="#ffffff" stroke-width="0.5"/>
<text x="465.453627866155" y="416.0" text-anchor="middle" font-size="10" fill="#0f172a">post-send</text>
<text x="465.453627866155" y="429.0" text-anchor="middle" font-size="10" fill="#0f172a">0.534s</text>
<rect x="516.42" y="400.00" width="213.21" height="36.00" fill="#f97316" stroke="#ffffff" stroke-width="0.5"/>
<text x="623.0267812665288" y="416.0" text-anchor="middle" font-size="10" fill="#0f172a">mid-comm</text>
<text x="623.0267812665288" y="429.0" text-anchor="middle" font-size="10" fill="#0f172a">1.118s</text>
<rect x="729.63" y="400.00" width="125.37" height="36.00" fill="#22c55e" stroke="#ffffff" stroke-width="0.5"/>
<text x="792.3168368288807" y="416.0" text-anchor="middle" font-size="10" fill="#0f172a">wait-recv</text>
<text x="792.3168368288807" y="429.0" text-anchor="middle" font-size="10" fill="#0f172a">0.657s</text>
<rect x="855.00" y="400.00" width="1.81" height="36.00" fill="#16a34a" stroke="#ffffff" stroke-width="0.5"/>
<rect x="856.82" y="400.00" width="220.32" height="36.00" fill="#a3a3a3" stroke="#ffffff" stroke-width="0.5"/>
<text x="966.9804577674207" y="416.0" text-anchor="middle" font-size="10" fill="#0f172a">post-comm</text>
<text x="966.9804577674207" y="429.0" text-anchor="middle" font-size="10" fill="#0f172a">1.155s</text>
<text x="1085.1428571428573" y="422.0" font-size="11" fill="#374151">with compute  4.650s</text>
<rect x="220.00" y="442.00" width="192.65" height="36.00" fill="#94a3b8" stroke="#ffffff" stroke-width="0.5"/>
<text x="316.32630917752874" y="458.0" text-anchor="middle" font-size="10" fill="#0f172a">pre-comm</text>
<text x="316.32630917752874" y="471.0" text-anchor="middle" font-size="10" fill="#0f172a">1.010s</text>
<rect x="412.65" y="442.00" width="0.04" height="36.00" fill="#38bdf8" stroke="#ffffff" stroke-width="0.5"/>
<rect x="412.69" y="442.00" width="100.11" height="36.00" fill="#0ea5e9" stroke="#ffffff" stroke-width="0.5"/>
<text x="462.74592364161913" y="458.0" text-anchor="middle" font-size="10" fill="#0f172a">post-send</text>
<text x="462.74592364161913" y="471.0" text-anchor="middle" font-size="10" fill="#0f172a">0.525s</text>
<rect x="512.80" y="442.00" width="188.32" height="36.00" fill="#22c55e" stroke="#ffffff" stroke-width="0.5"/>
<text x="606.9650365750904" y="458.0" text-anchor="middle" font-size="10" fill="#0f172a">wait-recv</text>
<text x="606.9650365750904" y="471.0" text-anchor="middle" font-size="10" fill="#0f172a">0.987s</text>
<rect x="701.13" y="442.00" width="1.24" height="36.00" fill="#16a34a" stroke="#ffffff" stroke-width="0.5"/>
<rect x="702.37" y="442.00" width="212.85" height="36.00" fill="#a3a3a3" stroke="#ffffff" stroke-width="0.5"/>
<text x="808.7947903031495" y="458.0" text-anchor="middle" font-size="10" fill="#0f172a">post-comm</text>
<text x="808.7947903031495" y="471.0" text-anchor="middle" font-size="10" fill="#0f172a">1.116s</text>
<text x="923.2196223040609" y="464.0" font-size="11" fill="#374151">no midcomm    3.670s</text>
<rect x="220.00" y="534.00" width="14.00" height="14.00" fill="#94a3b8" stroke="#ffffff" stroke-width="0.5"/>
<text x="240" y="546" font-size="12">pre-comm</text>
<rect x="335.00" y="534.00" width="14.00" height="14.00" fill="#38bdf8" stroke="#ffffff" stroke-width="0.5"/>
<text x="355" y="546" font-size="12">post-recv</text>
<rect x="450.00" y="534.00" width="14.00" height="14.00" fill="#0ea5e9" stroke="#ffffff" stroke-width="0.5"/>
<text x="470" y="546" font-size="12">post-send</text>
<rect x="565.00" y="534.00" width="14.00" height="14.00" fill="#f97316" stroke="#ffffff" stroke-width="0.5"/>
<text x="585" y="546" font-size="12">mid-comm</text>
<rect x="680.00" y="534.00" width="14.00" height="14.00" fill="#22c55e" stroke="#ffffff" stroke-width="0.5"/>
<text x="700" y="546" font-size="12">wait-recv</text>
<rect x="795.00" y="534.00" width="14.00" height="14.00" fill="#16a34a" stroke="#ffffff" stroke-width="0.5"/>
<text x="815" y="546" font-size="12">wait-send</text>
<rect x="910.00" y="534.00" width="14.00" height="14.00" fill="#a3a3a3" stroke="#ffffff" stroke-width="0.5"/>
<text x="930" y="546" font-size="12">post-comm</text>
<text x="220" y="574" font-size="11" fill="#6b7280">paper overhead ratio on overlap window: for mpi rows, comm-window = wait-recv(mpi) − wait-recv(mock), measured-window = mid-comm(with) + residual wait-recv(with). 0 = perfect overlap, 1 = serialized.</text>
</svg>