<svg xmlns="http://www.w3.org/2000/svg" width="1240" height="638">
<style>text{font-family:-apple-system,Segoe UI,Roboto,sans-serif;fill:#111827;}</style>
<text x="620.0" y="36" text-anchor="middle" font-size="20" font-weight="700">cm4_inter / run_5_more_omp8_big_mes / case 01 (async0_c8_waitall)</text>
<text x="620.0" y="62" text-anchor="middle" font-size="13" fill="#4b5563">size 512_512_512  |  cutoff 250  |  num_cycles 5</text>
<line x1="220.0" y1="92" x2="220.0" y2="488" stroke="#e5e7eb" stroke-dasharray="4 4"/>
<text x="220.0" y="506" text-anchor="middle" font-size="12">0.000s</text>
<line x1="412.0" y1="92" x2="412.0" y2="488" stroke="#e5e7eb" stroke-dasharray="4 4"/>
<text x="412.0" y="506" text-anchor="middle" font-size="12">0.482s</text>
<line x1="604.0" y1="92" x2="604.0" y2="488" stroke="#e5e7eb" stroke-dasharray="4 4"/>
<text x="604.0" y="506" text-anchor="middle" font-size="12">0.963s</text>
<line x1="796.0" y1="92" x2="796.0" y2="488" stroke="#e5e7eb" stroke-dasharray="4 4"/>
<text x="796.0" y="506" text-anchor="middle" font-size="12">1.445s</text>
<line x1="988.0" y1="92" x2="988.0" y2="488" stroke="#e5e7eb" stroke-dasharray="4 4"/>
<text x="988.0" y="506" text-anchor="middle" font-size="12">1.927s</text>
<line x1="1180.0" y1="92" x2="1180.0" y2="488" stroke="#e5e7eb" stroke-dasharray="4 4"/>
<text x="1180.0" y="506" text-anchor="middle" font-size="12">2.408s</text>
<line x1="220" y1="488" x2="1180" y2="488" stroke="#374151"/>
<text x="208" y="129.0" text-anchor="end" font-size="14" font-weight="700">mock seq</text>
<text x="208" y="147.0" text-anchor="end" font-size="11" fill="#374151">compute 0.529s  |  comm-window 0.203s  |  fixed mock 0.000s</text>
<text x="208" y="163.0" text-anchor="end" font-size="11" fill="#6b7280">measured-window 0.735s | ideal 0.529s / serial 0.732s | serialized Δ 0.203s → ratio 1.012x</text>
<rect x="220.00" y="100.00" width="189.61" height="36.00" fill="#94a3b8" stroke="#ffffff" stroke-width="0.5"/>
<text x="314.8051980392455" y="116.0" text-anchor="middle" font-size="10" fill="#0f172a">pre-comm</text>
<text x="314.8051980392455" y="129.0" text-anchor="middle" font-size="10" fill="#0f172a">0.476s</text>
<rect x="409.61" y="100.00" width="0.06" height="36.00" fill="#38bdf8" stroke="#ffffff" stroke-width="0.5"/>
<rect x="409.67" y="100.00" width="93.24" height="36.00" fill="#0ea5e9" stroke="#ffffff" stroke-width="0.5"/>
<text x="456.288640792363" y="116.0" text-anchor="middle" font-size="10" fill="#0f172a">post-send</text>
<text x="456.288640792363" y="129.0" text-anchor="middle" font-size="10" fill="#0f172a">0.234s</text>
<rect x="502.91" y="100.00" width="210.95" height="36.00" fill="#f97316" stroke="#ffffff" stroke-width="0.5"/>
<text x="608.3831342087963" y="116.0" text-anchor="middle" font-size="10" fill="#0f172a">mid-comm</text>
<text x="608.3831342087963" y="129.0" text-anchor="middle" font-size="10" fill="#0f172a">0.529s</text>
<rect x="713.86" y="100.00" width="81.92" height="36.00" fill="#22c55e" stroke="#ffffff" stroke-width="0.5"/>
<text x="754.8166133071046" y="116.0" text-anchor="middle" font-size="10" fill="#0f172a">wait-recv</text>
<text x="754.8166133071046" y="129.0" text-anchor="middle" font-size="10" fill="#0f172a">0.206s</text>
<rect x="795.78" y="100.00" width="1.45" height="36.00" fill="#16a34a" stroke="#ffffff" stroke-width="0.5"/>
<rect x="797.22" y="100.00" width="207.03" height="36.00" fill="#a3a3a3" stroke="#ffffff" stroke-width="0.5"/>
<text x="900.7377201156726" y="116.0" text-anchor="middle" font-size="10" fill="#0f172a">post-comm</text>
<text x="900.7377201156726" y="129.0" text-anchor="middle" font-size="10" fill="#0f172a">0.519s</text>
<text x="1012.2547507782124" y="122.0" font-size="11" fill="#374151">with compute  2.034s</text>
<rect x="220.00" y="142.00" width="183.75" height="36.00" fill="#94a3b8" stroke="#ffffff" stroke-width="0.5"/>
<text x="311.87665257960333" y="158.0" text-anchor="middle" font-size="10" fill="#0f172a">pre-comm</text>
<text x="311.87665257960333" y="171.0" text-anchor="middle" font-size="10" fill="#0f172a">0.461s</text>
<rect x="403.75" y="142.00" width="0.30" height="36.00" fill="#38bdf8" stroke="#ffffff" stroke-width="0.5"/>
<rect x="404.05" y="142.00" width="95.22" height="36.00" fill="#0ea5e9" stroke="#ffffff" stroke-width="0.5"/>
<text x="451.6590086484511" y="158.0" text-anchor="middle" font-size="10" fill="#0f172a">post-send</text>
<text x="451.6590086484511" y="171.0" text-anchor="middle" font-size="10" fill="#0f172a">0.239s</text>
<rect x="499.27" y="142.00" width="80.95" height="36.00" fill="#22c55e" stroke="#ffffff" stroke-width="0.5"/>
<text x="539.7424437463621" y="158.0" text-anchor="middle" font-size="10" fill="#0f172a">wait-recv</text>
<text x="539.7424437463621" y="171.0" text-anchor="middle" font-size="10" fill="#0f172a">0.203s</text>
<rect x="580.22" y="142.00" width="1.24" height="36.00" fill="#16a34a" stroke="#ffffff" stroke-width="0.5"/>
<rect x="581.46" y="142.00" width="202.84" height="36.00" fill="#a3a3a3" stroke="#ffffff" stroke-width="0.5"/>
<text x="682.8754408952049" y="158.0" text-anchor="middle" font-size="10" fill="#0f172a">post-comm</text>
<text x="682.8754408952049" y="171.0" text-anchor="middle" font-size="10" fill="#0f172a">0.509s</text>
<text x="792.2950832990088" y="164.0" font-size="11" fill="#374151">no midcomm    1.464s</text>
<text x="208" y="229.0" text-anchor="end" font-size="14" font-weight="700">mock omp</text>
<text x="208" y="247.0" text-anchor="end" font-size="11" fill="#374151">compute 0.118s  |  comm-window 0.131s  |  fixed mock 0.000s</text>
<text x="208" y="263.0" text-anchor="end" font-size="11" fill="#6b7280">measured-window 0.234s | ideal 0.131s / serial 0.248s | serialized Δ 0.118s → ratio 0.878x</text>
<rect x="220.00" y="200.00" width="40.19" height="36.00" fill="#94a3b8" stroke="#ffffff" stroke-width="0.5"/>
<text x="240.09428619114422" y="216.0" text-anchor="middle" font-size="10" fill="#0f172a">pre-comm</text>
<text x="240.09428619114422" y="229.0" text-anchor="middle" font-size="10" fill="#0f172a">0.101s</text>
<rect x="260.19" y="200.00" width="0.23" height="36.00" fill="#38bdf8" stroke="#ffffff" stroke-width="0.5"/>
<rect x="260.41" y="200.00" width="56.91" height="36.00" fill="#0ea5e9" stroke="#ffffff" stroke-width="0.5"/>
<text x="288.87032672661735" y="216.0" text-anchor="middle" font-size="10" fill="#0f172a">post-send</text>
<text x="288.87032672661735" y="229.0" text-anchor="middle" font-size="10" fill="#0f172a">0.143s</text>
<rect x="317.33" y="200.00" width="46.98" height="36.00" fill="#f97316" stroke="#ffffff" stroke-width="0.5"/>
<text x="340.813997668284" y="216.0" text-anchor="middle" font-size="10" fill="#0f172a">mid-comm</text>
<text x="340.813997668284" y="229.0" text-anchor="middle" font-size="10" fill="#0f172a">0.118s</text>
<rect x="364.30" y="200.00" width="46.34" height="36.00" fill="#22c55e" stroke="#ffffff" stroke-width="0.5"/>
<text x="387.47253886006536" y="216.0" text-anchor="middle" font-size="10" fill="#0f172a">wait-recv</text>
<text x="387.47253886006536" y="229.0" text-anchor="middle" font-size="10" fill="#0f172a">0.116s</text>
<rect x="410.64" y="200.00" width="1.87" height="36.00" fill="#16a34a" stroke="#ffffff" stroke-width="0.5"/>
<rect x="412.52" y="200.00" width="44.38" height="36.00" fill="#a3a3a3" stroke="#ffffff" stroke-width="0.5"/>
<text x="434.70612933205155" y="216.0" text-anchor="middle" font-size="10" fill="#0f172a">post-comm</text>
<text x="434.70612933205155" y="229.0" text-anchor="middle" font-size="10" fill="#0f172a">0.111s</text>
<text x="464.894456584708" y="222.0" font-size="11" fill="#374151">with compute  0.640s</text>
<rect x="220.00" y="242.00" width="40.15" height="36.00" fill="#94a3b8" stroke="#ffffff" stroke-width="0.5"/>
<text x="240.07369878577367" y="258.0" text-anchor="middle" font-size="10" fill="#0f172a">pre-comm</text>
<text x="240.07369878577367" y="271.0" text-anchor="middle" font-size="10" fill="#0f172a">0.101s</text>
<rect x="260.15" y="242.00" width="0.23" height="36.00" fill="#38bdf8" stroke="#ffffff" stroke-width="0.5"/>
<rect x="260.38" y="242.00" width="55.83" height="36.00" fill="#0ea5e9" stroke="#ffffff" stroke-width="0.5"/>
<text x="288.28840069498654" y="258.0" text-anchor="middle" font-size="10" fill="#0f172a">post-send</text>
<text x="288.28840069498654" y="271.0" text-anchor="middle" font-size="10" fill="#0f172a">0.140s</text>
<rect x="316.20" y="242.00" width="52.06" height="36.00" fill="#22c55e" stroke="#ffffff" stroke-width="0.5"/>
<text x="342.2296897017534" y="258.0" text-anchor="middle" font-size="10" fill="#0f172a">wait-recv</text>
<text x="342.2296897017534" y="271.0" text-anchor="middle" font-size="10" fill="#0f172a">0.131s</text>
<rect x="368.26" y="242.00" width="1.97" height="36.00" fill="#16a34a" stroke="#ffffff" stroke-width="0.5"/>
<rect x="370.23" y="242.00" width="47.77" height="36.00" fill="#a3a3a3" stroke="#ffffff" stroke-width="0.5"/>
<text x="394.1138455037416" y="258.0" text-anchor="middle" font-size="10" fill="#0f172a">post-comm</text>
<text x="394.1138455037416" y="271.0" text-anchor="middle" font-size="10" fill="#0f172a">0.120s</text>
<text x="425.99919576984973" y="264.0" font-size="11" fill="#374151">no midcomm    0.526s</text>
<text x="208" y="329.0" text-anchor="end" font-size="14" font-weight="700">mpi  seq</text>
<text x="208" y="347.0" text-anchor="end" font-size="11" fill="#374151">compute 0.559s  |  comm-window 0.164s  |  fixed mock 0.203s</text>
<text x="208" y="363.0" text-anchor="end" font-size="11" fill="#6b7280">measured-window 0.700s | ideal 0.559s / serial 0.723s | serialized Δ 0.164s → ratio 0.861x</text>
<rect x="220.00" y="300.00" width="190.89" height="36.00" fill="#94a3b8" stroke="#ffffff" stroke-width="0.5"/>
<text x="315.44436921493843" y="316.0" text-anchor="middle" font-size="10" fill="#0f172a">pre-comm</text>
<text x="315.44436921493843" y="329.0" text-anchor="middle" font-size="10" fill="#0f172a">0.479s</text>
<rect x="410.89" y="300.00" width="0.05" height="36.00" fill="#38bdf8" stroke="#ffffff" stroke-width="0.5"/>
<rect x="410.94" y="300.00" width="90.56" height="36.00" fill="#0ea5e9" stroke="#ffffff" stroke-width="0.5"/>
<text x="456.2202469604362" y="316.0" text-anchor="middle" font-size="10" fill="#0f172a">post-send</text>
<text x="456.2202469604362" y="329.0" text-anchor="middle" font-size="10" fill="#0f172a">0.227s</text>
<rect x="501.50" y="300.00" width="222.81" height="36.00" fill="#f97316" stroke="#ffffff" stroke-width="0.5"/>
<text x="612.904040737385" y="316.0" text-anchor="middle" font-size="10" fill="#0f172a">mid-comm</text>
<text x="612.904040737385" y="329.0" text-anchor="middle" font-size="10" fill="#0f172a">0.559s</text>
<rect x="724.31" y="300.00" width="138.19" height="36.00" fill="#22c55e" stroke="#ffffff" stroke-width="0.5"/>
<text x="793.4062996286572" y="316.0" text-anchor="middle" font-size="10" fill="#0f172a">wait-recv</text>
<text x="793.4062996286572" y="329.0" text-anchor="middle" font-size="10" fill="#0f172a">0.347s</text>
<rect x="862.50" y="300.00" width="6.00" height="36.00" fill="#16a34a" stroke="#ffffff" stroke-width="0.5"/>
<rect x="868.50" y="300.00" width="208.64" height="36.00" fill="#a3a3a3" stroke="#ffffff" stroke-width="0.5"/>
<text x="972.8211150272875" y="316.0" text-anchor="middle" font-size="10" fill="#0f172a">post-comm</text>
<text x="972.8211150272875" y="329.0" text-anchor="middle" font-size="10" fill="#0f172a">0.523s</text>
<text x="1085.142857142857" y="322.0" font-size="11" fill="#374151">with compute  2.180s</text>
<rect x="220.00" y="342.00" width="182.04" height="36.00" fill="#94a3b8" stroke="#ffffff" stroke-width="0.5"/>
<text x="311.02223838673456" y="358.0" text-anchor="middle" font-size="10" fill="#0f172a">pre-comm</text>
<text x="311.02223838673456" y="371.0" text-anchor="middle" font-size="10" fill="#0f172a">0.457s</text>
<rect x="402.04" y="342.00" width="0.06" height="36.00" fill="#38bdf8" stroke="#ffffff" stroke-width="0.5"/>
<rect x="402.10" y="342.00" width="95.04" height="36.00" fill="#0ea5e9" stroke="#ffffff" stroke-width="0.5"/>
<text x="449.62200147592165" y="358.0" text-anchor="middle" font-size="10" fill="#0f172a">post-send</text>
<text x="449.62200147592165" y="371.0" text-anchor="middle" font-size="10" fill="#0f172a">0.238s</text>
<rect x="497.14" y="342.00" width="146.34" height="36.00" fill="#22c55e" stroke="#ffffff" stroke-width="0.5"/>
<text x="570.3141707315341" y="358.0" text-anchor="middle" font-size="10" fill="#0f172a">wait-recv</text>
<text x="570.3141707315341" y="371.0" text-anchor="middle" font-size="10" fill="#0f172a">0.367s</text>
<rect x="643.49" y="342.00" width="0.66" height="36.00" fill="#16a34a" stroke="#ffffff" stroke-width="0.5"/>
<rect x="644.15" y="342.00" width="201.12" height="36.00" fill="#a3a3a3" stroke="#ffffff" stroke-width="0.5"/>
<text x="744.7115494498112" y="358.0" text-anchor="middle" font-size="10" fill="#0f172a">post-comm</text>
<text x="744.7115494498112" y="371.0" text-anchor="middle" font-size="10" fill="#0f172a">0.505s</text>
<text x="853.2737941809941" y="364.0" font-size="11" fill="#374151">no midcomm    1.585s</text>
<text x="208" y="429.0" text-anchor="end" font-size="14" font-weight="700">mpi  omp</text>
<text x="208" y="447.0" text-anchor="end" font-size="11" fill="#374151">compute 0.117s  |  comm-window 0.157s  |  fixed mock 0.131s</text>
<text x="208" y="463.0" text-anchor="end" font-size="11" fill="#6b7280">measured-window 0.274s | ideal 0.157s / serial 0.274s | serialized Δ 0.117s → ratio 0.997x</text>
<rect x="220.00" y="400.00" width="40.31" height="36.00" fill="#94a3b8" stroke="#ffffff" stroke-width="0.5"/>
<text x="240.15553720982345" y="416.0" text-anchor="middle" font-size="10" fill="#0f172a">pre-comm</text>
<text x="240.15553720982345" y="429.0" text-anchor="middle" font-size="10" fill="#0f172a">0.101s</text>
<rect x="260.31" y="400.00" width="0.06" height="36.00" fill="#38bdf8" stroke="#ffffff" stroke-width="0.5"/>
<rect x="260.37" y="400.00" width="60.93" height="36.00" fill="#0ea5e9" stroke="#ffffff" stroke-width="0.5"/>
<text x="290.84005314233127" y="416.0" text-anchor="middle" font-size="10" fill="#0f172a">post-send</text>
<text x="290.84005314233127" y="429.0" text-anchor="middle" font-size="10" fill="#0f172a">0.153s</text>
<rect x="321.31" y="400.00" width="46.62" height="36.00" fill="#f97316" stroke="#ffffff" stroke-width="0.5"/>
<text x="344.61660005722604" y="416.0" text-anchor="middle" font-size="10" fill="#0f172a">mid-comm</text>
<text x="344.61660005722604" y="429.0" text-anchor="middle" font-size="10" fill="#0f172a">0.117s</text>
<rect x="367.93" y="400.00" width="108.81" height="36.00" fill="#22c55e" stroke="#ffffff" stroke-width="0.5"/>
<text x="422.3347847590306" y="416.0" text-anchor="middle" font-size="10" fill="#0f172a">wait-recv</text>
<text x="422.3347847590306" y="429.0" text-anchor="middle" font-size="10" fill="#0f172a">0.273s</text>
<rect x="476.74" y="400.00" width="6.17" height="36.00" fill="#16a34a" stroke="#ffffff" stroke-width="0.5"/>
<rect x="482.91" y="400.00" width="44.46" height="36.00" fill="#a3a3a3" stroke="#ffffff" stroke-width="0.5"/>
<text x="505.137888188221" y="416.0" text-anchor="middle" font-size="10" fill="#0f172a">post-comm</text>
<text x="505.137888188221" y="429.0" text-anchor="middle" font-size="10" fill="#0f172a">0.112s</text>
<text x="535.367423135664" y="422.0" font-size="11" fill="#374151">with compute  0.790s</text>
<rect x="220.00" y="442.00" width="40.29" height="36.00" fill="#94a3b8" stroke="#ffffff" stroke-width="0.5"/>
<text x="240.14299244476004" y="458.0" text-anchor="middle" font-size="10" fill="#0f172a">pre-comm</text>
<text x="240.14299244476004" y="471.0" text-anchor="middle" font-size="10" fill="#0f172a">0.101s</text>
<rect x="260.29" y="442.00" width="0.07" height="36.00" fill="#38bdf8" stroke="#ffffff" stroke-width="0.5"/>
<rect x="260.35" y="442.00" width="61.42" height="36.00" fill="#0ea5e9" stroke="#ffffff" stroke-width="0.5"/>
<text x="291.0611046777019" y="458.0" text-anchor="middle" font-size="10" fill="#0f172a">post-send</text>
<text x="291.0611046777019" y="471.0" text-anchor="middle" font-size="10" fill="#0f172a">0.154s</text>
<rect x="321.77" y="442.00" width="114.66" height="36.00" fill="#22c55e" stroke="#ffffff" stroke-width="0.5"/>
<text x="379.1016809031547" y="458.0" text-anchor="middle" font-size="10" fill="#0f172a">wait-recv</text>
<text x="379.1016809031547" y="471.0" text-anchor="middle" font-size="10" fill="#0f172a">0.288s</text>
<rect x="436.43" y="442.00" width="1.13" height="36.00" fill="#16a34a" stroke="#ffffff" stroke-width="0.5"/>
<rect x="437.57" y="442.00" width="53.42" height="36.00" fill="#a3a3a3" stroke="#ffffff" stroke-width="0.5"/>
<text x="464.27719282381196" y="458.0" text-anchor="middle" font-size="10" fill="#0f172a">post-comm</text>
<text x="464.27719282381196" y="471.0" text-anchor="middle" font-size="10" fill="#0f172a">0.134s</text>
<text x="498.98869062175623" y="464.0" font-size="11" fill="#374151">no midcomm    0.685s</text>
<rect x="220.00" y="534.00" width="14.00" height="14.00" fill="#94a3b8" stroke="#ffffff" stroke-width="0.5"/>
<text x="240" y="546" font-size="12">pre-comm</text>
<rect x="335.00" y="534.00" width="14.00" height="14.00" fill="#38bdf8" stroke="#ffffff" stroke-width="0.5"/>
<text x="355" y="546" font-size="12">post-recv</text>
<rect x="450.00" y="534.00" width="14.00" height="14.00" fill="#0ea5e9" stroke="#ffffff" stroke-width="0.5"/>
<text x="470" y="546" font-size="12">post-send</text>
<rect x="565.00" y="534.00" width="14.00" height="14.00" fill="#f97316" stroke="#ffffff" stroke-width="0.5"/>
<text x="585" y="546" font-size="12">mid-comm</text>
<rect x="680.00" y="534.00" width="14.00" height="14.00" fill="#22c55e" stroke="#ffffff" stroke-width="0.5"/>
<text x="700" y="546" font-size="12">wait-recv</text>
<rect x="795.00" y="534.00" width="14.00" height="14.00" fill="#16a34a" stroke="#ffffff" stroke-width="0.5"/>
<text x="815" y="546" font-size="12">wait-send</text>
<rect x="910.00" y="534.00" width="14.00" height="14.00" fill="#a3a3a3" stroke="#ffffff" stroke-width="0.5"/>
<text x="930" y="546" font-size="12">post-comm</text>
<text x="220" y="574" font-size="11" fill="#6b7280">paper overhead ratio on overlap window: for mpi rows, comm-window = wait-recv(mpi) − wait-recv(mock), measured-window = mid-comm(with) + residual wait-recv(with). 0 = perfect overlap, 1 = serialized.</text>
</svg>