<svg xmlns="http://www.w3.org/2000/svg" width="1240" height="638">
<style>text{font-family:-apple-system,Segoe UI,Roboto,sans-serif;fill:#111827;}</style>
<text x="620.0" y="36" text-anchor="middle" font-size="20" font-weight="700">cm4_inter / run_1_big_mes_inter / case 07 (async1_c4_testall)</text>
<text x="620.0" y="62" text-anchor="middle" font-size="13" fill="#4b5563">size 512_512_512  |  cutoff 250  |  num_cycles 5</text>
<line x1="220.0" y1="92" x2="220.0" y2="488" stroke="#e5e7eb" stroke-dasharray="4 4"/>
<text x="220.0" y="506" text-anchor="middle" font-size="12">0.000s</text>
<line x1="412.0" y1="92" x2="412.0" y2="488" stroke="#e5e7eb" stroke-dasharray="4 4"/>
<text x="412.0" y="506" text-anchor="middle" font-size="12">0.828s</text>
<line x1="604.0" y1="92" x2="604.0" y2="488" stroke="#e5e7eb" stroke-dasharray="4 4"/>
<text x="604.0" y="506" text-anchor="middle" font-size="12">1.657s</text>
<line x1="796.0" y1="92" x2="796.0" y2="488" stroke="#e5e7eb" stroke-dasharray="4 4"/>
<text x="796.0" y="506" text-anchor="middle" font-size="12">2.485s</text>
<line x1="988.0" y1="92" x2="988.0" y2="488" stroke="#e5e7eb" stroke-dasharray="4 4"/>
<text x="988.0" y="506" text-anchor="middle" font-size="12">3.313s</text>
<line x1="1180.0" y1="92" x2="1180.0" y2="488" stroke="#e5e7eb" stroke-dasharray="4 4"/>
<text x="1180.0" y="506" text-anchor="middle" font-size="12">4.142s</text>
<line x1="220" y1="488" x2="1180" y2="488" stroke="#374151"/>
<text x="208" y="129.0" text-anchor="end" font-size="14" font-weight="700">mock seq</text>
<text x="208" y="147.0" text-anchor="end" font-size="11" fill="#374151">compute 1.075s  |  comm-window 0.252s  |  fixed mock 0.000s</text>
<text x="208" y="163.0" text-anchor="end" font-size="11" fill="#6b7280">measured-window 1.361s | ideal 1.075s / serial 1.327s | serialized Δ 0.252s → ratio 1.136x</text>
<rect x="220.00" y="100.00" width="156.50" height="36.00" fill="#94a3b8" stroke="#ffffff" stroke-width="0.5"/>
<text x="298.2511587077465" y="116.0" text-anchor="middle" font-size="10" fill="#0f172a">pre-comm</text>
<text x="298.2511587077465" y="129.0" text-anchor="middle" font-size="10" fill="#0f172a">0.675s</text>
<rect x="376.50" y="100.00" width="0.26" height="36.00" fill="#38bdf8" stroke="#ffffff" stroke-width="0.5"/>
<rect x="376.76" y="100.00" width="91.48" height="36.00" fill="#0ea5e9" stroke="#ffffff" stroke-width="0.5"/>
<text x="422.4953043720203" y="116.0" text-anchor="middle" font-size="10" fill="#0f172a">post-send</text>
<text x="422.4953043720203" y="129.0" text-anchor="middle" font-size="10" fill="#0f172a">0.395s</text>
<rect x="468.23" y="100.00" width="249.10" height="36.00" fill="#f97316" stroke="#ffffff" stroke-width="0.5"/>
<text x="592.7832881654308" y="116.0" text-anchor="middle" font-size="10" fill="#0f172a">mid-comm</text>
<text x="592.7832881654308" y="129.0" text-anchor="middle" font-size="10" fill="#0f172a">1.075s</text>
<rect x="717.33" y="100.00" width="66.48" height="36.00" fill="#22c55e" stroke="#ffffff" stroke-width="0.5"/>
<text x="750.5725980956657" y="116.0" text-anchor="middle" font-size="10" fill="#0f172a">wait-recv</text>
<text x="750.5725980956657" y="129.0" text-anchor="middle" font-size="10" fill="#0f172a">0.287s</text>
<rect x="783.81" y="100.00" width="1.87" height="36.00" fill="#16a34a" stroke="#ffffff" stroke-width="0.5"/>
<rect x="785.68" y="100.00" width="171.34" height="36.00" fill="#a3a3a3" stroke="#ffffff" stroke-width="0.5"/>
<text x="871.3470791228734" y="116.0" text-anchor="middle" font-size="10" fill="#0f172a">post-comm</text>
<text x="871.3470791228734" y="129.0" text-anchor="middle" font-size="10" fill="#0f172a">0.739s</text>
<text x="965.0166197689111" y="122.0" font-size="11" fill="#374151">with compute  3.200s</text>
<rect x="220.00" y="142.00" width="132.18" height="36.00" fill="#94a3b8" stroke="#ffffff" stroke-width="0.5"/>
<text x="286.091864688596" y="158.0" text-anchor="middle" font-size="10" fill="#0f172a">pre-comm</text>
<text x="286.091864688596" y="171.0" text-anchor="middle" font-size="10" fill="#0f172a">0.570s</text>
<rect x="352.18" y="142.00" width="0.05" height="36.00" fill="#38bdf8" stroke="#ffffff" stroke-width="0.5"/>
<rect x="352.23" y="142.00" width="72.52" height="36.00" fill="#0ea5e9" stroke="#ffffff" stroke-width="0.5"/>
<text x="388.49255546455095" y="158.0" text-anchor="middle" font-size="10" fill="#0f172a">post-send</text>
<text x="388.49255546455095" y="171.0" text-anchor="middle" font-size="10" fill="#0f172a">0.313s</text>
<rect x="424.75" y="142.00" width="58.50" height="36.00" fill="#22c55e" stroke="#ffffff" stroke-width="0.5"/>
<text x="454.0014161790515" y="158.0" text-anchor="middle" font-size="10" fill="#0f172a">wait-recv</text>
<text x="454.0014161790515" y="171.0" text-anchor="middle" font-size="10" fill="#0f172a">0.252s</text>
<rect x="483.25" y="142.00" width="0.98" height="36.00" fill="#16a34a" stroke="#ffffff" stroke-width="0.5"/>
<rect x="484.23" y="142.00" width="144.64" height="36.00" fill="#a3a3a3" stroke="#ffffff" stroke-width="0.5"/>
<text x="556.5542050009798" y="158.0" text-anchor="middle" font-size="10" fill="#0f172a">post-comm</text>
<text x="556.5542050009798" y="171.0" text-anchor="middle" font-size="10" fill="#0f172a">0.624s</text>
<text x="636.8748750393746" y="164.0" font-size="11" fill="#374151">no midcomm    1.855s</text>
<text x="208" y="229.0" text-anchor="end" font-size="14" font-weight="700">mock omp</text>
<text x="208" y="247.0" text-anchor="end" font-size="11" fill="#374151">compute 0.280s  |  comm-window 0.154s  |  fixed mock 0.000s</text>
<text x="208" y="263.0" text-anchor="end" font-size="11" fill="#6b7280">measured-window 0.459s | ideal 0.280s / serial 0.433s | serialized Δ 0.154s → ratio 1.166x</text>
<rect x="220.00" y="200.00" width="55.45" height="36.00" fill="#94a3b8" stroke="#ffffff" stroke-width="0.5"/>
<text x="247.72467204953452" y="216.0" text-anchor="middle" font-size="10" fill="#0f172a">pre-comm</text>
<text x="247.72467204953452" y="229.0" text-anchor="middle" font-size="10" fill="#0f172a">0.239s</text>
<rect x="275.45" y="200.00" width="0.16" height="36.00" fill="#38bdf8" stroke="#ffffff" stroke-width="0.5"/>
<rect x="275.61" y="200.00" width="51.16" height="36.00" fill="#0ea5e9" stroke="#ffffff" stroke-width="0.5"/>
<text x="301.1924985930372" y="216.0" text-anchor="middle" font-size="10" fill="#0f172a">post-send</text>
<text x="301.1924985930372" y="229.0" text-anchor="middle" font-size="10" fill="#0f172a">0.221s</text>
<rect x="326.77" y="200.00" width="64.80" height="36.00" fill="#f97316" stroke="#ffffff" stroke-width="0.5"/>
<text x="359.17499403238185" y="216.0" text-anchor="middle" font-size="10" fill="#0f172a">mid-comm</text>
<text x="359.17499403238185" y="229.0" text-anchor="middle" font-size="10" fill="#0f172a">0.280s</text>
<rect x="391.58" y="200.00" width="41.51" height="36.00" fill="#22c55e" stroke="#ffffff" stroke-width="0.5"/>
<text x="412.33313158608655" y="216.0" text-anchor="middle" font-size="10" fill="#0f172a">wait-recv</text>
<text x="412.33313158608655" y="229.0" text-anchor="middle" font-size="10" fill="#0f172a">0.179s</text>
<rect x="433.09" y="200.00" width="1.46" height="36.00" fill="#16a34a" stroke="#ffffff" stroke-width="0.5"/>
<rect x="434.55" y="200.00" width="60.81" height="36.00" fill="#a3a3a3" stroke="#ffffff" stroke-width="0.5"/>
<text x="464.959931667694" y="216.0" text-anchor="middle" font-size="10" fill="#0f172a">post-comm</text>
<text x="464.959931667694" y="229.0" text-anchor="middle" font-size="10" fill="#0f172a">0.262s</text>
<text x="503.36661148826676" y="222.0" font-size="11" fill="#374151">with compute  1.223s</text>
<rect x="220.00" y="242.00" width="58.98" height="36.00" fill="#94a3b8" stroke="#ffffff" stroke-width="0.5"/>
<text x="249.49101739945405" y="258.0" text-anchor="middle" font-size="10" fill="#0f172a">pre-comm</text>
<text x="249.49101739945405" y="271.0" text-anchor="middle" font-size="10" fill="#0f172a">0.254s</text>
<rect x="278.98" y="242.00" width="0.06" height="36.00" fill="#38bdf8" stroke="#ffffff" stroke-width="0.5"/>
<rect x="279.04" y="242.00" width="45.23" height="36.00" fill="#0ea5e9" stroke="#ffffff" stroke-width="0.5"/>
<text x="301.65707003372205" y="258.0" text-anchor="middle" font-size="10" fill="#0f172a">post-send</text>
<text x="301.65707003372205" y="271.0" text-anchor="middle" font-size="10" fill="#0f172a">0.195s</text>
<rect x="324.27" y="242.00" width="35.60" height="36.00" fill="#22c55e" stroke="#ffffff" stroke-width="0.5"/>
<rect x="359.88" y="242.00" width="2.05" height="36.00" fill="#16a34a" stroke="#ffffff" stroke-width="0.5"/>
<rect x="361.93" y="242.00" width="64.80" height="36.00" fill="#a3a3a3" stroke="#ffffff" stroke-width="0.5"/>
<text x="394.32718411341637" y="258.0" text-anchor="middle" font-size="10" fill="#0f172a">post-comm</text>
<text x="394.32718411341637" y="271.0" text-anchor="middle" font-size="10" fill="#0f172a">0.280s</text>
<text x="434.7280471998984" y="264.0" font-size="11" fill="#374151">no midcomm    0.952s</text>
<text x="208" y="329.0" text-anchor="end" font-size="14" font-weight="700">mpi  seq</text>
<text x="208" y="347.0" text-anchor="end" font-size="11" fill="#374151">compute 1.358s  |  comm-window 0.257s  |  fixed mock 0.252s</text>
<text x="208" y="363.0" text-anchor="end" font-size="11" fill="#6b7280">measured-window 1.473s | ideal 1.358s / serial 1.615s | serialized Δ 0.257s → ratio 0.449x</text>
<rect x="220.00" y="300.00" width="165.71" height="36.00" fill="#94a3b8" stroke="#ffffff" stroke-width="0.5"/>
<text x="302.85644216449543" y="316.0" text-anchor="middle" font-size="10" fill="#0f172a">pre-comm</text>
<text x="302.85644216449543" y="329.0" text-anchor="middle" font-size="10" fill="#0f172a">0.715s</text>
<rect x="385.71" y="300.00" width="0.19" height="36.00" fill="#38bdf8" stroke="#ffffff" stroke-width="0.5"/>
<rect x="385.90" y="300.00" width="99.27" height="36.00" fill="#0ea5e9" stroke="#ffffff" stroke-width="0.5"/>
<text x="435.53935536644985" y="316.0" text-anchor="middle" font-size="10" fill="#0f172a">post-send</text>
<text x="435.53935536644985" y="329.0" text-anchor="middle" font-size="10" fill="#0f172a">0.428s</text>
<rect x="485.18" y="300.00" width="314.80" height="36.00" fill="#f97316" stroke="#ffffff" stroke-width="0.5"/>
<text x="642.5759824300267" y="316.0" text-anchor="middle" font-size="10" fill="#0f172a">mid-comm</text>
<text x="642.5759824300267" y="329.0" text-anchor="middle" font-size="10" fill="#0f172a">1.358s</text>
<rect x="799.98" y="300.00" width="93.18" height="36.00" fill="#22c55e" stroke="#ffffff" stroke-width="0.5"/>
<text x="846.5648224748667" y="316.0" text-anchor="middle" font-size="10" fill="#0f172a">wait-recv</text>
<text x="846.5648224748667" y="329.0" text-anchor="middle" font-size="10" fill="#0f172a">0.402s</text>
<rect x="893.15" y="300.00" width="1.91" height="36.00" fill="#16a34a" stroke="#ffffff" stroke-width="0.5"/>
<rect x="895.06" y="300.00" width="182.08" height="36.00" fill="#a3a3a3" stroke="#ffffff" stroke-width="0.5"/>
<text x="986.1020429585838" y="316.0" text-anchor="middle" font-size="10" fill="#0f172a">post-comm</text>
<text x="986.1020429585838" y="329.0" text-anchor="middle" font-size="10" fill="#0f172a">0.786s</text>
<text x="1085.1428571428569" y="322.0" font-size="11" fill="#374151">with compute  3.849s</text>
<rect x="220.00" y="342.00" width="116.75" height="36.00" fill="#94a3b8" stroke="#ffffff" stroke-width="0.5"/>
<text x="278.3773055127174" y="358.0" text-anchor="middle" font-size="10" fill="#0f172a">pre-comm</text>
<text x="278.3773055127174" y="371.0" text-anchor="middle" font-size="10" fill="#0f172a">0.504s</text>
<rect x="336.75" y="342.00" width="0.04" height="36.00" fill="#38bdf8" stroke="#ffffff" stroke-width="0.5"/>
<rect x="336.80" y="342.00" width="62.55" height="36.00" fill="#0ea5e9" stroke="#ffffff" stroke-width="0.5"/>
<text x="368.07206708560034" y="358.0" text-anchor="middle" font-size="10" fill="#0f172a">post-send</text>
<text x="368.07206708560034" y="371.0" text-anchor="middle" font-size="10" fill="#0f172a">0.270s</text>
<rect x="399.34" y="342.00" width="118.03" height="36.00" fill="#22c55e" stroke="#ffffff" stroke-width="0.5"/>
<text x="458.35809197144124" y="358.0" text-anchor="middle" font-size="10" fill="#0f172a">wait-recv</text>
<text x="458.35809197144124" y="371.0" text-anchor="middle" font-size="10" fill="#0f172a">0.509s</text>
<rect x="517.37" y="342.00" width="0.82" height="36.00" fill="#16a34a" stroke="#ffffff" stroke-width="0.5"/>
<rect x="518.19" y="342.00" width="128.67" height="36.00" fill="#a3a3a3" stroke="#ffffff" stroke-width="0.5"/>
<text x="582.529957265664" y="358.0" text-anchor="middle" font-size="10" fill="#0f172a">post-comm</text>
<text x="582.529957265664" y="371.0" text-anchor="middle" font-size="10" fill="#0f172a">0.555s</text>
<text x="654.8651603068404" y="364.0" font-size="11" fill="#374151">no midcomm    1.860s</text>
<text x="208" y="429.0" text-anchor="end" font-size="14" font-weight="700">mpi  omp</text>
<text x="208" y="447.0" text-anchor="end" font-size="11" fill="#374151">compute 0.299s  |  comm-window 0.247s  |  fixed mock 0.154s</text>
<text x="208" y="463.0" text-anchor="end" font-size="11" fill="#6b7280">measured-window 0.426s | ideal 0.299s / serial 0.546s | serialized Δ 0.247s → ratio 0.516x</text>
<rect x="220.00" y="400.00" width="59.40" height="36.00" fill="#94a3b8" stroke="#ffffff" stroke-width="0.5"/>
<text x="249.69797894261978" y="416.0" text-anchor="middle" font-size="10" fill="#0f172a">pre-comm</text>
<text x="249.69797894261978" y="429.0" text-anchor="middle" font-size="10" fill="#0f172a">0.256s</text>
<rect x="279.40" y="400.00" width="0.19" height="36.00" fill="#38bdf8" stroke="#ffffff" stroke-width="0.5"/>
<rect x="279.59" y="400.00" width="54.86" height="36.00" fill="#0ea5e9" stroke="#ffffff" stroke-width="0.5"/>
<text x="307.01812906510776" y="416.0" text-anchor="middle" font-size="10" fill="#0f172a">post-send</text>
<text x="307.01812906510776" y="429.0" text-anchor="middle" font-size="10" fill="#0f172a">0.237s</text>
<rect x="334.45" y="400.00" width="69.31" height="36.00" fill="#f97316" stroke="#ffffff" stroke-width="0.5"/>
<text x="369.1055327240555" y="416.0" text-anchor="middle" font-size="10" fill="#0f172a">mid-comm</text>
<text x="369.1055327240555" y="429.0" text-anchor="middle" font-size="10" fill="#0f172a">0.299s</text>
<rect x="403.76" y="400.00" width="71.03" height="36.00" fill="#22c55e" stroke="#ffffff" stroke-width="0.5"/>
<text x="439.27909047519915" y="416.0" text-anchor="middle" font-size="10" fill="#0f172a">wait-recv</text>
<text x="439.27909047519915" y="429.0" text-anchor="middle" font-size="10" fill="#0f172a">0.306s</text>
<rect x="474.80" y="400.00" width="1.75" height="36.00" fill="#16a34a" stroke="#ffffff" stroke-width="0.5"/>
<rect x="476.54" y="400.00" width="64.85" height="36.00" fill="#a3a3a3" stroke="#ffffff" stroke-width="0.5"/>
<text x="508.96403992492577" y="416.0" text-anchor="middle" font-size="10" fill="#0f172a">post-comm</text>
<text x="508.96403992492577" y="429.0" text-anchor="middle" font-size="10" fill="#0f172a">0.280s</text>
<text x="549.3873231208999" y="422.0" font-size="11" fill="#374151">with compute  1.419s</text>
<rect x="220.00" y="442.00" width="57.61" height="36.00" fill="#94a3b8" stroke="#ffffff" stroke-width="0.5"/>
<text x="248.80644551966955" y="458.0" text-anchor="middle" font-size="10" fill="#0f172a">pre-comm</text>
<text x="248.80644551966955" y="471.0" text-anchor="middle" font-size="10" fill="#0f172a">0.249s</text>
<rect x="277.61" y="442.00" width="0.06" height="36.00" fill="#38bdf8" stroke="#ffffff" stroke-width="0.5"/>
<rect x="277.68" y="442.00" width="47.56" height="36.00" fill="#0ea5e9" stroke="#ffffff" stroke-width="0.5"/>
<text x="301.4600274622331" y="458.0" text-anchor="middle" font-size="10" fill="#0f172a">post-send</text>
<text x="301.4600274622331" y="471.0" text-anchor="middle" font-size="10" fill="#0f172a">0.205s</text>
<rect x="325.24" y="442.00" width="92.79" height="36.00" fill="#22c55e" stroke="#ffffff" stroke-width="0.5"/>
<text x="371.6397317654932" y="458.0" text-anchor="middle" font-size="10" fill="#0f172a">wait-recv</text>
<text x="371.6397317654932" y="471.0" text-anchor="middle" font-size="10" fill="#0f172a">0.400s</text>
<rect x="418.04" y="442.00" width="1.72" height="36.00" fill="#16a34a" stroke="#ffffff" stroke-width="0.5"/>
<rect x="419.76" y="442.00" width="63.06" height="36.00" fill="#a3a3a3" stroke="#ffffff" stroke-width="0.5"/>
<text x="451.2869586460248" y="458.0" text-anchor="middle" font-size="10" fill="#0f172a">post-comm</text>
<text x="451.2869586460248" y="471.0" text-anchor="middle" font-size="10" fill="#0f172a">0.272s</text>
<text x="490.81618883682916" y="464.0" font-size="11" fill="#374151">no midcomm    1.148s</text>
<rect x="220.00" y="534.00" width="14.00" height="14.00" fill="#94a3b8" stroke="#ffffff" stroke-width="0.5"/>
<text x="240" y="546" font-size="12">pre-comm</text>
<rect x="335.00" y="534.00" width="14.00" height="14.00" fill="#38bdf8" stroke="#ffffff" stroke-width="0.5"/>
<text x="355" y="546" font-size="12">post-recv</text>
<rect x="450.00" y="534.00" width="14.00" height="14.00" fill="#0ea5e9" stroke="#ffffff" stroke-width="0.5"/>
<text x="470" y="546" font-size="12">post-send</text>
<rect x="565.00" y="534.00" width="14.00" height="14.00" fill="#f97316" stroke="#ffffff" stroke-width="0.5"/>
<text x="585" y="546" font-size="12">mid-comm</text>
<rect x="680.00" y="534.00" width="14.00" height="14.00" fill="#22c55e" stroke="#ffffff" stroke-width="0.5"/>
<text x="700" y="546" font-size="12">wait-recv</text>
<rect x="795.00" y="534.00" width="14.00" height="14.00" fill="#16a34a" stroke="#ffffff" stroke-width="0.5"/>
<text x="815" y="546" font-size="12">wait-send</text>
<rect x="910.00" y="534.00" width="14.00" height="14.00" fill="#a3a3a3" stroke="#ffffff" stroke-width="0.5"/>
<text x="930" y="546" font-size="12">post-comm</text>
<text x="220" y="574" font-size="11" fill="#6b7280">paper overhead ratio on overlap window: for mpi rows, comm-window = wait-recv(mpi) − wait-recv(mock), measured-window = mid-comm(with) + residual wait-recv(with). 0 = perfect overlap, 1 = serialized.</text>
</svg>