<svg xmlns="http://www.w3.org/2000/svg" width="1240" height="638">
<style>text{font-family:-apple-system,Segoe UI,Roboto,sans-serif;fill:#111827;}</style>
<text x="620.0" y="36" text-anchor="middle" font-size="20" font-weight="700">cm4_inter / run_2_samll_mess_inter / case 05 (async1_c4_waitall)</text>
<text x="620.0" y="62" text-anchor="middle" font-size="13" fill="#4b5563">size 512_512_512  |  cutoff 500000  |  num_cycles 5</text>
<line x1="220.0" y1="92" x2="220.0" y2="488" stroke="#e5e7eb" stroke-dasharray="4 4"/>
<text x="220.0" y="506" text-anchor="middle" font-size="12">0.000s</text>
<line x1="412.0" y1="92" x2="412.0" y2="488" stroke="#e5e7eb" stroke-dasharray="4 4"/>
<text x="412.0" y="506" text-anchor="middle" font-size="12">0.771s</text>
<line x1="604.0" y1="92" x2="604.0" y2="488" stroke="#e5e7eb" stroke-dasharray="4 4"/>
<text x="604.0" y="506" text-anchor="middle" font-size="12">1.542s</text>
<line x1="796.0" y1="92" x2="796.0" y2="488" stroke="#e5e7eb" stroke-dasharray="4 4"/>
<text x="796.0" y="506" text-anchor="middle" font-size="12">2.313s</text>
<line x1="988.0" y1="92" x2="988.0" y2="488" stroke="#e5e7eb" stroke-dasharray="4 4"/>
<text x="988.0" y="506" text-anchor="middle" font-size="12">3.084s</text>
<line x1="1180.0" y1="92" x2="1180.0" y2="488" stroke="#e5e7eb" stroke-dasharray="4 4"/>
<text x="1180.0" y="506" text-anchor="middle" font-size="12">3.856s</text>
<line x1="220" y1="488" x2="1180" y2="488" stroke="#374151"/>
<text x="208" y="129.0" text-anchor="end" font-size="14" font-weight="700">mock seq</text>
<text x="208" y="147.0" text-anchor="end" font-size="11" fill="#374151">compute 1.110s  |  comm-window 0.223s  |  fixed mock 0.000s</text>
<text x="208" y="163.0" text-anchor="end" font-size="11" fill="#6b7280">measured-window 1.404s | ideal 1.110s / serial 1.333s | serialized Δ 0.223s → ratio 1.317x</text>
<rect x="220.00" y="100.00" width="179.18" height="36.00" fill="#94a3b8" stroke="#ffffff" stroke-width="0.5"/>
<text x="309.58764902152376" y="116.0" text-anchor="middle" font-size="10" fill="#0f172a">pre-comm</text>
<text x="309.58764902152376" y="129.0" text-anchor="middle" font-size="10" fill="#0f172a">0.720s</text>
<rect x="399.18" y="100.00" width="0.06" height="36.00" fill="#38bdf8" stroke="#ffffff" stroke-width="0.5"/>
<rect x="399.23" y="100.00" width="106.26" height="36.00" fill="#0ea5e9" stroke="#ffffff" stroke-width="0.5"/>
<text x="452.3608747057311" y="116.0" text-anchor="middle" font-size="10" fill="#0f172a">post-send</text>
<text x="452.3608747057311" y="129.0" text-anchor="middle" font-size="10" fill="#0f172a">0.427s</text>
<rect x="505.49" y="100.00" width="276.44" height="36.00" fill="#f97316" stroke="#ffffff" stroke-width="0.5"/>
<text x="643.7107940071996" y="116.0" text-anchor="middle" font-size="10" fill="#0f172a">mid-comm</text>
<text x="643.7107940071996" y="129.0" text-anchor="middle" font-size="10" fill="#0f172a">1.110s</text>
<rect x="781.93" y="100.00" width="73.10" height="36.00" fill="#22c55e" stroke="#ffffff" stroke-width="0.5"/>
<text x="818.4832288296462" y="116.0" text-anchor="middle" font-size="10" fill="#0f172a">wait-recv</text>
<text x="818.4832288296462" y="129.0" text-anchor="middle" font-size="10" fill="#0f172a">0.294s</text>
<rect x="855.03" y="100.00" width="1.92" height="36.00" fill="#16a34a" stroke="#ffffff" stroke-width="0.5"/>
<rect x="856.96" y="100.00" width="194.25" height="36.00" fill="#a3a3a3" stroke="#ffffff" stroke-width="0.5"/>
<text x="954.0823065356393" y="116.0" text-anchor="middle" font-size="10" fill="#0f172a">post-comm</text>
<text x="954.0823065356393" y="129.0" text-anchor="middle" font-size="10" fill="#0f172a">0.780s</text>
<text x="1059.2055680447602" y="122.0" font-size="11" fill="#374151">with compute  3.515s</text>
<rect x="220.00" y="142.00" width="124.94" height="36.00" fill="#94a3b8" stroke="#ffffff" stroke-width="0.5"/>
<text x="282.47188613953546" y="158.0" text-anchor="middle" font-size="10" fill="#0f172a">pre-comm</text>
<text x="282.47188613953546" y="171.0" text-anchor="middle" font-size="10" fill="#0f172a">0.502s</text>
<rect x="344.94" y="142.00" width="0.04" height="36.00" fill="#38bdf8" stroke="#ffffff" stroke-width="0.5"/>
<rect x="344.98" y="142.00" width="67.16" height="36.00" fill="#0ea5e9" stroke="#ffffff" stroke-width="0.5"/>
<text x="378.56323277685897" y="158.0" text-anchor="middle" font-size="10" fill="#0f172a">post-send</text>
<text x="378.56323277685897" y="171.0" text-anchor="middle" font-size="10" fill="#0f172a">0.270s</text>
<rect x="412.14" y="142.00" width="55.50" height="36.00" fill="#22c55e" stroke="#ffffff" stroke-width="0.5"/>
<text x="439.8951661232822" y="158.0" text-anchor="middle" font-size="10" fill="#0f172a">wait-recv</text>
<text x="439.8951661232822" y="171.0" text-anchor="middle" font-size="10" fill="#0f172a">0.223s</text>
<rect x="467.65" y="142.00" width="1.13" height="36.00" fill="#16a34a" stroke="#ffffff" stroke-width="0.5"/>
<rect x="468.77" y="142.00" width="137.77" height="36.00" fill="#a3a3a3" stroke="#ffffff" stroke-width="0.5"/>
<text x="537.6592857269997" y="158.0" text-anchor="middle" font-size="10" fill="#0f172a">post-comm</text>
<text x="537.6592857269997" y="171.0" text-anchor="middle" font-size="10" fill="#0f172a">0.553s</text>
<text x="614.5460528407414" y="164.0" font-size="11" fill="#374151">no midcomm    1.631s</text>
<text x="208" y="229.0" text-anchor="end" font-size="14" font-weight="700">mock omp</text>
<text x="208" y="247.0" text-anchor="end" font-size="11" fill="#374151">compute 0.273s  |  comm-window 0.173s  |  fixed mock 0.000s</text>
<text x="208" y="263.0" text-anchor="end" font-size="11" fill="#6b7280">measured-window 0.456s | ideal 0.273s / serial 0.446s | serialized Δ 0.173s → ratio 1.059x</text>
<rect x="220.00" y="200.00" width="58.43" height="36.00" fill="#94a3b8" stroke="#ffffff" stroke-width="0.5"/>
<text x="249.21283568538175" y="216.0" text-anchor="middle" font-size="10" fill="#0f172a">pre-comm</text>
<text x="249.21283568538175" y="229.0" text-anchor="middle" font-size="10" fill="#0f172a">0.235s</text>
<rect x="278.43" y="200.00" width="0.05" height="36.00" fill="#38bdf8" stroke="#ffffff" stroke-width="0.5"/>
<rect x="278.47" y="200.00" width="53.65" height="36.00" fill="#0ea5e9" stroke="#ffffff" stroke-width="0.5"/>
<text x="305.2956192391658" y="216.0" text-anchor="middle" font-size="10" fill="#0f172a">post-send</text>
<text x="305.2956192391658" y="229.0" text-anchor="middle" font-size="10" fill="#0f172a">0.215s</text>
<rect x="332.12" y="200.00" width="67.88" height="36.00" fill="#f97316" stroke="#ffffff" stroke-width="0.5"/>
<text x="366.0605643607128" y="216.0" text-anchor="middle" font-size="10" fill="#0f172a">mid-comm</text>
<text x="366.0605643607128" y="229.0" text-anchor="middle" font-size="10" fill="#0f172a">0.273s</text>
<rect x="400.00" y="200.00" width="45.66" height="36.00" fill="#22c55e" stroke="#ffffff" stroke-width="0.5"/>
<text x="422.8330457004117" y="216.0" text-anchor="middle" font-size="10" fill="#0f172a">wait-recv</text>
<text x="422.8330457004117" y="229.0" text-anchor="middle" font-size="10" fill="#0f172a">0.183s</text>
<rect x="445.66" y="200.00" width="1.48" height="36.00" fill="#16a34a" stroke="#ffffff" stroke-width="0.5"/>
<rect x="447.15" y="200.00" width="64.09" height="36.00" fill="#a3a3a3" stroke="#ffffff" stroke-width="0.5"/>
<text x="479.19328633235887" y="216.0" text-anchor="middle" font-size="10" fill="#0f172a">post-comm</text>
<text x="479.19328633235887" y="229.0" text-anchor="middle" font-size="10" fill="#0f172a">0.257s</text>
<text x="519.2397771171889" y="222.0" font-size="11" fill="#374151">with compute  1.173s</text>
<rect x="220.00" y="242.00" width="61.23" height="36.00" fill="#94a3b8" stroke="#ffffff" stroke-width="0.5"/>
<text x="250.61505975594838" y="258.0" text-anchor="middle" font-size="10" fill="#0f172a">pre-comm</text>
<text x="250.61505975594838" y="271.0" text-anchor="middle" font-size="10" fill="#0f172a">0.246s</text>
<rect x="281.23" y="242.00" width="0.06" height="36.00" fill="#38bdf8" stroke="#ffffff" stroke-width="0.5"/>
<rect x="281.29" y="242.00" width="57.45" height="36.00" fill="#0ea5e9" stroke="#ffffff" stroke-width="0.5"/>
<text x="310.01019847027953" y="258.0" text-anchor="middle" font-size="10" fill="#0f172a">post-send</text>
<text x="310.01019847027953" y="271.0" text-anchor="middle" font-size="10" fill="#0f172a">0.231s</text>
<rect x="338.73" y="242.00" width="43.11" height="36.00" fill="#22c55e" stroke="#ffffff" stroke-width="0.5"/>
<text x="360.28804288097626" y="258.0" text-anchor="middle" font-size="10" fill="#0f172a">wait-recv</text>
<text x="360.28804288097626" y="271.0" text-anchor="middle" font-size="10" fill="#0f172a">0.173s</text>
<rect x="381.84" y="242.00" width="1.96" height="36.00" fill="#16a34a" stroke="#ffffff" stroke-width="0.5"/>
<rect x="383.80" y="242.00" width="67.21" height="36.00" fill="#a3a3a3" stroke="#ffffff" stroke-width="0.5"/>
<text x="417.40511292078554" y="258.0" text-anchor="middle" font-size="10" fill="#0f172a">post-comm</text>
<text x="417.40511292078554" y="271.0" text-anchor="middle" font-size="10" fill="#0f172a">0.270s</text>
<text x="459.0088989781881" y="264.0" font-size="11" fill="#374151">no midcomm    1.025s</text>
<text x="208" y="329.0" text-anchor="end" font-size="14" font-weight="700">mpi  seq</text>
<text x="208" y="347.0" text-anchor="end" font-size="11" fill="#374151">compute 1.324s  |  comm-window 0.333s  |  fixed mock 0.223s</text>
<text x="208" y="363.0" text-anchor="end" font-size="11" fill="#6b7280">measured-window 1.334s | ideal 1.324s / serial 1.657s | serialized Δ 0.333s → ratio 0.029x</text>
<rect x="220.00" y="300.00" width="167.75" height="36.00" fill="#94a3b8" stroke="#ffffff" stroke-width="0.5"/>
<text x="303.8731119534782" y="316.0" text-anchor="middle" font-size="10" fill="#0f172a">pre-comm</text>
<text x="303.8731119534782" y="329.0" text-anchor="middle" font-size="10" fill="#0f172a">0.674s</text>
<rect x="387.75" y="300.00" width="0.16" height="36.00" fill="#38bdf8" stroke="#ffffff" stroke-width="0.5"/>
<rect x="387.91" y="300.00" width="97.82" height="36.00" fill="#0ea5e9" stroke="#ffffff" stroke-width="0.5"/>
<text x="436.82104988268173" y="316.0" text-anchor="middle" font-size="10" fill="#0f172a">post-send</text>
<text x="436.82104988268173" y="329.0" text-anchor="middle" font-size="10" fill="#0f172a">0.393s</text>
<rect x="485.73" y="300.00" width="329.69" height="36.00" fill="#f97316" stroke="#ffffff" stroke-width="0.5"/>
<text x="650.5790068623901" y="316.0" text-anchor="middle" font-size="10" fill="#0f172a">mid-comm</text>
<text x="650.5790068623901" y="329.0" text-anchor="middle" font-size="10" fill="#0f172a">1.324s</text>
<rect x="815.43" y="300.00" width="75.54" height="36.00" fill="#22c55e" stroke="#ffffff" stroke-width="0.5"/>
<text x="853.1942842217247" y="316.0" text-anchor="middle" font-size="10" fill="#0f172a">wait-recv</text>
<text x="853.1942842217247" y="329.0" text-anchor="middle" font-size="10" fill="#0f172a">0.303s</text>
<rect x="890.96" y="300.00" width="1.94" height="36.00" fill="#16a34a" stroke="#ffffff" stroke-width="0.5"/>
<rect x="892.90" y="300.00" width="184.24" height="36.00" fill="#a3a3a3" stroke="#ffffff" stroke-width="0.5"/>
<text x="985.0229173408998" y="316.0" text-anchor="middle" font-size="10" fill="#0f172a">post-comm</text>
<text x="985.0229173408998" y="329.0" text-anchor="middle" font-size="10" fill="#0f172a">0.740s</text>
<text x="1085.1428571428569" y="322.0" font-size="11" fill="#374151">with compute  3.482s</text>
<rect x="220.00" y="342.00" width="132.42" height="36.00" fill="#94a3b8" stroke="#ffffff" stroke-width="0.5"/>
<text x="286.2077325473492" y="358.0" text-anchor="middle" font-size="10" fill="#0f172a">pre-comm</text>
<text x="286.2077325473492" y="371.0" text-anchor="middle" font-size="10" fill="#0f172a">0.532s</text>
<rect x="352.42" y="342.00" width="0.04" height="36.00" fill="#38bdf8" stroke="#ffffff" stroke-width="0.5"/>
<rect x="352.46" y="342.00" width="69.21" height="36.00" fill="#0ea5e9" stroke="#ffffff" stroke-width="0.5"/>
<text x="387.0616783128953" y="358.0" text-anchor="middle" font-size="10" fill="#0f172a">post-send</text>
<text x="387.0616783128953" y="371.0" text-anchor="middle" font-size="10" fill="#0f172a">0.278s</text>
<rect x="421.67" y="342.00" width="138.44" height="36.00" fill="#22c55e" stroke="#ffffff" stroke-width="0.5"/>
<text x="490.88951067302185" y="358.0" text-anchor="middle" font-size="10" fill="#0f172a">wait-recv</text>
<text x="490.88951067302185" y="371.0" text-anchor="middle" font-size="10" fill="#0f172a">0.556s</text>
<rect x="560.11" y="342.00" width="0.87" height="36.00" fill="#16a34a" stroke="#ffffff" stroke-width="0.5"/>
<rect x="560.98" y="342.00" width="143.78" height="36.00" fill="#a3a3a3" stroke="#ffffff" stroke-width="0.5"/>
<text x="632.8680165216356" y="358.0" text-anchor="middle" font-size="10" fill="#0f172a">post-comm</text>
<text x="632.8680165216356" y="371.0" text-anchor="middle" font-size="10" fill="#0f172a">0.577s</text>
<text x="712.758177219259" y="364.0" font-size="11" fill="#374151">no midcomm    1.971s</text>
<text x="208" y="429.0" text-anchor="end" font-size="14" font-weight="700">mpi  omp</text>
<text x="208" y="447.0" text-anchor="end" font-size="11" fill="#374151">compute 0.283s  |  comm-window 0.188s  |  fixed mock 0.173s</text>
<text x="208" y="463.0" text-anchor="end" font-size="11" fill="#6b7280">measured-window 0.300s | ideal 0.283s / serial 0.472s | serialized Δ 0.188s → ratio 0.088x</text>
<rect x="220.00" y="400.00" width="59.31" height="36.00" fill="#94a3b8" stroke="#ffffff" stroke-width="0.5"/>
<text x="249.65268235622688" y="416.0" text-anchor="middle" font-size="10" fill="#0f172a">pre-comm</text>
<text x="249.65268235622688" y="429.0" text-anchor="middle" font-size="10" fill="#0f172a">0.238s</text>
<rect x="279.31" y="400.00" width="0.05" height="36.00" fill="#38bdf8" stroke="#ffffff" stroke-width="0.5"/>
<rect x="279.36" y="400.00" width="55.07" height="36.00" fill="#0ea5e9" stroke="#ffffff" stroke-width="0.5"/>
<text x="306.89205735097283" y="416.0" text-anchor="middle" font-size="10" fill="#0f172a">post-send</text>
<text x="306.89205735097283" y="429.0" text-anchor="middle" font-size="10" fill="#0f172a">0.221s</text>
<rect x="334.43" y="400.00" width="70.58" height="36.00" fill="#f97316" stroke="#ffffff" stroke-width="0.5"/>
<text x="369.7180815170931" y="416.0" text-anchor="middle" font-size="10" fill="#0f172a">mid-comm</text>
<text x="369.7180815170931" y="429.0" text-anchor="middle" font-size="10" fill="#0f172a">0.283s</text>
<rect x="405.01" y="400.00" width="49.80" height="36.00" fill="#22c55e" stroke="#ffffff" stroke-width="0.5"/>
<text x="429.90900386983014" y="416.0" text-anchor="middle" font-size="10" fill="#0f172a">wait-recv</text>
<text x="429.90900386983014" y="429.0" text-anchor="middle" font-size="10" fill="#0f172a">0.200s</text>
<rect x="454.81" y="400.00" width="1.57" height="36.00" fill="#16a34a" stroke="#ffffff" stroke-width="0.5"/>
<rect x="456.38" y="400.00" width="64.94" height="36.00" fill="#a3a3a3" stroke="#ffffff" stroke-width="0.5"/>
<text x="488.85005689088587" y="416.0" text-anchor="middle" font-size="10" fill="#0f172a">post-comm</text>
<text x="488.85005689088587" y="429.0" text-anchor="middle" font-size="10" fill="#0f172a">0.261s</text>
<text x="529.3195309867069" y="422.0" font-size="11" fill="#374151">with compute  1.232s</text>
<rect x="220.00" y="442.00" width="58.23" height="36.00" fill="#94a3b8" stroke="#ffffff" stroke-width="0.5"/>
<text x="249.11658425104923" y="458.0" text-anchor="middle" font-size="10" fill="#0f172a">pre-comm</text>
<text x="249.11658425104923" y="471.0" text-anchor="middle" font-size="10" fill="#0f172a">0.234s</text>
<rect x="278.23" y="442.00" width="0.16" height="36.00" fill="#38bdf8" stroke="#ffffff" stroke-width="0.5"/>
<rect x="278.40" y="442.00" width="44.08" height="36.00" fill="#0ea5e9" stroke="#ffffff" stroke-width="0.5"/>
<text x="300.4348265673218" y="458.0" text-anchor="middle" font-size="10" fill="#0f172a">post-send</text>
<text x="300.4348265673218" y="471.0" text-anchor="middle" font-size="10" fill="#0f172a">0.177s</text>
<rect x="322.47" y="442.00" width="90.01" height="36.00" fill="#22c55e" stroke="#ffffff" stroke-width="0.5"/>
<text x="367.4769776560358" y="458.0" text-anchor="middle" font-size="10" fill="#0f172a">wait-recv</text>
<text x="367.4769776560358" y="471.0" text-anchor="middle" font-size="10" fill="#0f172a">0.361s</text>
<rect x="412.48" y="442.00" width="1.60" height="36.00" fill="#16a34a" stroke="#ffffff" stroke-width="0.5"/>
<rect x="414.08" y="442.00" width="63.97" height="36.00" fill="#a3a3a3" stroke="#ffffff" stroke-width="0.5"/>
<text x="446.06102760357595" y="458.0" text-anchor="middle" font-size="10" fill="#0f172a">post-comm</text>
<text x="446.06102760357595" y="471.0" text-anchor="middle" font-size="10" fill="#0f172a">0.257s</text>
<text x="486.0445940474469" y="464.0" font-size="11" fill="#374151">no midcomm    1.040s</text>
<rect x="220.00" y="534.00" width="14.00" height="14.00" fill="#94a3b8" stroke="#ffffff" stroke-width="0.5"/>
<text x="240" y="546" font-size="12">pre-comm</text>
<rect x="335.00" y="534.00" width="14.00" height="14.00" fill="#38bdf8" stroke="#ffffff" stroke-width="0.5"/>
<text x="355" y="546" font-size="12">post-recv</text>
<rect x="450.00" y="534.00" width="14.00" height="14.00" fill="#0ea5e9" stroke="#ffffff" stroke-width="0.5"/>
<text x="470" y="546" font-size="12">post-send</text>
<rect x="565.00" y="534.00" width="14.00" height="14.00" fill="#f97316" stroke="#ffffff" stroke-width="0.5"/>
<text x="585" y="546" font-size="12">mid-comm</text>
<rect x="680.00" y="534.00" width="14.00" height="14.00" fill="#22c55e" stroke="#ffffff" stroke-width="0.5"/>
<text x="700" y="546" font-size="12">wait-recv</text>
<rect x="795.00" y="534.00" width="14.00" height="14.00" fill="#16a34a" stroke="#ffffff" stroke-width="0.5"/>
<text x="815" y="546" font-size="12">wait-send</text>
<rect x="910.00" y="534.00" width="14.00" height="14.00" fill="#a3a3a3" stroke="#ffffff" stroke-width="0.5"/>
<text x="930" y="546" font-size="12">post-comm</text>
<text x="220" y="574" font-size="11" fill="#6b7280">paper overhead ratio on overlap window: for mpi rows, comm-window = wait-recv(mpi) − wait-recv(mock), measured-window = mid-comm(with) + residual wait-recv(with). 0 = perfect overlap, 1 = serialized.</text>
</svg>