<svg xmlns="http://www.w3.org/2000/svg" width="1240" height="638">
<style>text{font-family:-apple-system,Segoe UI,Roboto,sans-serif;fill:#111827;}</style>
<text x="620.0" y="36" text-anchor="middle" font-size="20" font-weight="700">cm4_inter / run_1_big_mes_inter / case 03 (async0_c4_testall)</text>
<text x="620.0" y="62" text-anchor="middle" font-size="13" fill="#4b5563">size 512_512_512  |  cutoff 250  |  num_cycles 5</text>
<line x1="220.0" y1="92" x2="220.0" y2="488" stroke="#e5e7eb" stroke-dasharray="4 4"/>
<text x="220.0" y="506" text-anchor="middle" font-size="12">0.000s</text>
<line x1="412.0" y1="92" x2="412.0" y2="488" stroke="#e5e7eb" stroke-dasharray="4 4"/>
<text x="412.0" y="506" text-anchor="middle" font-size="12">0.490s</text>
<line x1="604.0" y1="92" x2="604.0" y2="488" stroke="#e5e7eb" stroke-dasharray="4 4"/>
<text x="604.0" y="506" text-anchor="middle" font-size="12">0.980s</text>
<line x1="796.0" y1="92" x2="796.0" y2="488" stroke="#e5e7eb" stroke-dasharray="4 4"/>
<text x="796.0" y="506" text-anchor="middle" font-size="12">1.470s</text>
<line x1="988.0" y1="92" x2="988.0" y2="488" stroke="#e5e7eb" stroke-dasharray="4 4"/>
<text x="988.0" y="506" text-anchor="middle" font-size="12">1.960s</text>
<line x1="1180.0" y1="92" x2="1180.0" y2="488" stroke="#e5e7eb" stroke-dasharray="4 4"/>
<text x="1180.0" y="506" text-anchor="middle" font-size="12">2.451s</text>
<line x1="220" y1="488" x2="1180" y2="488" stroke="#374151"/>
<text x="208" y="129.0" text-anchor="end" font-size="14" font-weight="700">mock seq</text>
<text x="208" y="147.0" text-anchor="end" font-size="11" fill="#374151">compute 0.543s  |  comm-window 0.224s  |  fixed mock 0.000s</text>
<text x="208" y="163.0" text-anchor="end" font-size="11" fill="#6b7280">measured-window 0.758s | ideal 0.543s / serial 0.767s | serialized Δ 0.224s → ratio 0.961x</text>
<rect x="220.00" y="100.00" width="192.60" height="36.00" fill="#94a3b8" stroke="#ffffff" stroke-width="0.5"/>
<text x="316.3015774340998" y="116.0" text-anchor="middle" font-size="10" fill="#0f172a">pre-comm</text>
<text x="316.3015774340998" y="129.0" text-anchor="middle" font-size="10" fill="#0f172a">0.492s</text>
<rect x="412.60" y="100.00" width="0.06" height="36.00" fill="#38bdf8" stroke="#ffffff" stroke-width="0.5"/>
<rect x="412.67" y="100.00" width="94.55" height="36.00" fill="#0ea5e9" stroke="#ffffff" stroke-width="0.5"/>
<text x="459.93984915079193" y="116.0" text-anchor="middle" font-size="10" fill="#0f172a">post-send</text>
<text x="459.93984915079193" y="129.0" text-anchor="middle" font-size="10" fill="#0f172a">0.241s</text>
<rect x="507.21" y="100.00" width="212.62" height="36.00" fill="#f97316" stroke="#ffffff" stroke-width="0.5"/>
<text x="613.5255909920352" y="116.0" text-anchor="middle" font-size="10" fill="#0f172a">mid-comm</text>
<text x="613.5255909920352" y="129.0" text-anchor="middle" font-size="10" fill="#0f172a">0.543s</text>
<rect x="719.84" y="100.00" width="84.46" height="36.00" fill="#22c55e" stroke="#ffffff" stroke-width="0.5"/>
<text x="762.0672394572366" y="116.0" text-anchor="middle" font-size="10" fill="#0f172a">wait-recv</text>
<text x="762.0672394572366" y="129.0" text-anchor="middle" font-size="10" fill="#0f172a">0.216s</text>
<rect x="804.30" y="100.00" width="1.22" height="36.00" fill="#16a34a" stroke="#ffffff" stroke-width="0.5"/>
<rect x="805.52" y="100.00" width="210.96" height="36.00" fill="#a3a3a3" stroke="#ffffff" stroke-width="0.5"/>
<text x="911.0008481445191" y="116.0" text-anchor="middle" font-size="10" fill="#0f172a">post-comm</text>
<text x="911.0008481445191" y="129.0" text-anchor="middle" font-size="10" fill="#0f172a">0.538s</text>
<text x="1024.4797699506016" y="122.0" font-size="11" fill="#374151">with compute  2.050s</text>
<rect x="220.00" y="142.00" width="195.38" height="36.00" fill="#94a3b8" stroke="#ffffff" stroke-width="0.5"/>
<text x="317.6922468840646" y="158.0" text-anchor="middle" font-size="10" fill="#0f172a">pre-comm</text>
<text x="317.6922468840646" y="171.0" text-anchor="middle" font-size="10" fill="#0f172a">0.499s</text>
<rect x="415.38" y="142.00" width="0.06" height="36.00" fill="#38bdf8" stroke="#ffffff" stroke-width="0.5"/>
<rect x="415.44" y="142.00" width="103.70" height="36.00" fill="#0ea5e9" stroke="#ffffff" stroke-width="0.5"/>
<text x="467.2919046116981" y="158.0" text-anchor="middle" font-size="10" fill="#0f172a">post-send</text>
<text x="467.2919046116981" y="171.0" text-anchor="middle" font-size="10" fill="#0f172a">0.265s</text>
<rect x="519.14" y="142.00" width="87.92" height="36.00" fill="#22c55e" stroke="#ffffff" stroke-width="0.5"/>
<text x="563.0992364136594" y="158.0" text-anchor="middle" font-size="10" fill="#0f172a">wait-recv</text>
<text x="563.0992364136594" y="171.0" text-anchor="middle" font-size="10" fill="#0f172a">0.224s</text>
<rect x="607.06" y="142.00" width="1.33" height="36.00" fill="#16a34a" stroke="#ffffff" stroke-width="0.5"/>
<rect x="608.39" y="142.00" width="216.30" height="36.00" fill="#a3a3a3" stroke="#ffffff" stroke-width="0.5"/>
<text x="716.5359730597479" y="158.0" text-anchor="middle" font-size="10" fill="#0f172a">post-comm</text>
<text x="716.5359730597479" y="171.0" text-anchor="middle" font-size="10" fill="#0f172a">0.552s</text>
<text x="832.6835080708327" y="164.0" font-size="11" fill="#374151">no midcomm    1.626s</text>
<text x="208" y="229.0" text-anchor="end" font-size="14" font-weight="700">mock omp</text>
<text x="208" y="247.0" text-anchor="end" font-size="11" fill="#374151">compute 0.212s  |  comm-window 0.151s  |  fixed mock 0.000s</text>
<text x="208" y="263.0" text-anchor="end" font-size="11" fill="#6b7280">measured-window 0.340s | ideal 0.212s / serial 0.363s | serialized Δ 0.151s → ratio 0.853x</text>
<rect x="220.00" y="200.00" width="71.60" height="36.00" fill="#94a3b8" stroke="#ffffff" stroke-width="0.5"/>
<text x="255.8002451207168" y="216.0" text-anchor="middle" font-size="10" fill="#0f172a">pre-comm</text>
<text x="255.8002451207168" y="229.0" text-anchor="middle" font-size="10" fill="#0f172a">0.183s</text>
<rect x="291.60" y="200.00" width="0.22" height="36.00" fill="#38bdf8" stroke="#ffffff" stroke-width="0.5"/>
<rect x="291.82" y="200.00" width="64.60" height="36.00" fill="#0ea5e9" stroke="#ffffff" stroke-width="0.5"/>
<text x="324.1175850514126" y="216.0" text-anchor="middle" font-size="10" fill="#0f172a">post-send</text>
<text x="324.1175850514126" y="229.0" text-anchor="middle" font-size="10" fill="#0f172a">0.165s</text>
<rect x="356.42" y="200.00" width="82.98" height="36.00" fill="#f97316" stroke="#ffffff" stroke-width="0.5"/>
<text x="397.90888974224055" y="216.0" text-anchor="middle" font-size="10" fill="#0f172a">mid-comm</text>
<text x="397.90888974224055" y="229.0" text-anchor="middle" font-size="10" fill="#0f172a">0.212s</text>
<rect x="439.40" y="200.00" width="50.37" height="36.00" fill="#22c55e" stroke="#ffffff" stroke-width="0.5"/>
<text x="464.5849669426025" y="216.0" text-anchor="middle" font-size="10" fill="#0f172a">wait-recv</text>
<text x="464.5849669426025" y="229.0" text-anchor="middle" font-size="10" fill="#0f172a">0.129s</text>
<rect x="489.77" y="200.00" width="1.58" height="36.00" fill="#16a34a" stroke="#ffffff" stroke-width="0.5"/>
<rect x="491.35" y="200.00" width="78.52" height="36.00" fill="#a3a3a3" stroke="#ffffff" stroke-width="0.5"/>
<text x="530.6114439379216" y="216.0" text-anchor="middle" font-size="10" fill="#0f172a">post-comm</text>
<text x="530.6114439379216" y="229.0" text-anchor="middle" font-size="10" fill="#0f172a">0.200s</text>
<text x="577.8731792186036" y="222.0" font-size="11" fill="#374151">with compute  0.903s</text>
<rect x="220.00" y="242.00" width="78.93" height="36.00" fill="#94a3b8" stroke="#ffffff" stroke-width="0.5"/>
<text x="259.4642239201559" y="258.0" text-anchor="middle" font-size="10" fill="#0f172a">pre-comm</text>
<text x="259.4642239201559" y="271.0" text-anchor="middle" font-size="10" fill="#0f172a">0.201s</text>
<rect x="298.93" y="242.00" width="0.06" height="36.00" fill="#38bdf8" stroke="#ffffff" stroke-width="0.5"/>
<rect x="298.99" y="242.00" width="70.45" height="36.00" fill="#0ea5e9" stroke="#ffffff" stroke-width="0.5"/>
<text x="334.2140897527831" y="258.0" text-anchor="middle" font-size="10" fill="#0f172a">post-send</text>
<text x="334.2140897527831" y="271.0" text-anchor="middle" font-size="10" fill="#0f172a">0.180s</text>
<rect x="369.44" y="242.00" width="59.03" height="36.00" fill="#22c55e" stroke="#ffffff" stroke-width="0.5"/>
<text x="398.95354112049466" y="258.0" text-anchor="middle" font-size="10" fill="#0f172a">wait-recv</text>
<text x="398.95354112049466" y="271.0" text-anchor="middle" font-size="10" fill="#0f172a">0.151s</text>
<rect x="428.47" y="242.00" width="2.31" height="36.00" fill="#16a34a" stroke="#ffffff" stroke-width="0.5"/>
<rect x="430.78" y="242.00" width="88.99" height="36.00" fill="#a3a3a3" stroke="#ffffff" stroke-width="0.5"/>
<text x="475.2783983592542" y="258.0" text-anchor="middle" font-size="10" fill="#0f172a">post-comm</text>
<text x="475.2783983592542" y="271.0" text-anchor="middle" font-size="10" fill="#0f172a">0.227s</text>
<text x="527.7752450535389" y="264.0" font-size="11" fill="#374151">no midcomm    0.857s</text>
<text x="208" y="329.0" text-anchor="end" font-size="14" font-weight="700">mpi  seq</text>
<text x="208" y="347.0" text-anchor="end" font-size="11" fill="#374151">compute 0.564s  |  comm-window 0.127s  |  fixed mock 0.224s</text>
<text x="208" y="363.0" text-anchor="end" font-size="11" fill="#6b7280">measured-window 0.705s | ideal 0.564s / serial 0.691s | serialized Δ 0.127s → ratio 1.107x</text>
<rect x="220.00" y="300.00" width="193.64" height="36.00" fill="#94a3b8" stroke="#ffffff" stroke-width="0.5"/>
<text x="316.81955855440117" y="316.0" text-anchor="middle" font-size="10" fill="#0f172a">pre-comm</text>
<text x="316.81955855440117" y="329.0" text-anchor="middle" font-size="10" fill="#0f172a">0.494s</text>
<rect x="413.64" y="300.00" width="0.05" height="36.00" fill="#38bdf8" stroke="#ffffff" stroke-width="0.5"/>
<rect x="413.69" y="300.00" width="90.11" height="36.00" fill="#0ea5e9" stroke="#ffffff" stroke-width="0.5"/>
<text x="458.74573030585805" y="316.0" text-anchor="middle" font-size="10" fill="#0f172a">post-send</text>
<text x="458.74573030585805" y="329.0" text-anchor="middle" font-size="10" fill="#0f172a">0.230s</text>
<rect x="503.80" y="300.00" width="220.93" height="36.00" fill="#f97316" stroke="#ffffff" stroke-width="0.5"/>
<text x="614.2685171581686" y="316.0" text-anchor="middle" font-size="10" fill="#0f172a">mid-comm</text>
<text x="614.2685171581686" y="329.0" text-anchor="middle" font-size="10" fill="#0f172a">0.564s</text>
<rect x="724.74" y="300.00" width="139.65" height="36.00" fill="#22c55e" stroke="#ffffff" stroke-width="0.5"/>
<text x="794.5603519730693" y="316.0" text-anchor="middle" font-size="10" fill="#0f172a">wait-recv</text>
<text x="794.5603519730693" y="329.0" text-anchor="middle" font-size="10" fill="#0f172a">0.356s</text>
<rect x="864.39" y="300.00" width="0.48" height="36.00" fill="#16a34a" stroke="#ffffff" stroke-width="0.5"/>
<rect x="864.87" y="300.00" width="212.28" height="36.00" fill="#a3a3a3" stroke="#ffffff" stroke-width="0.5"/>
<text x="971.0048938234636" y="316.0" text-anchor="middle" font-size="10" fill="#0f172a">post-comm</text>
<text x="971.0048938234636" y="329.0" text-anchor="middle" font-size="10" fill="#0f172a">0.542s</text>
<text x="1085.1428571428573" y="322.0" font-size="11" fill="#374151">with compute  2.210s</text>
<rect x="220.00" y="342.00" width="182.76" height="36.00" fill="#94a3b8" stroke="#ffffff" stroke-width="0.5"/>
<text x="311.3813228779772" y="358.0" text-anchor="middle" font-size="10" fill="#0f172a">pre-comm</text>
<text x="311.3813228779772" y="371.0" text-anchor="middle" font-size="10" fill="#0f172a">0.467s</text>
<rect x="402.76" y="342.00" width="0.05" height="36.00" fill="#38bdf8" stroke="#ffffff" stroke-width="0.5"/>
<rect x="402.81" y="342.00" width="94.29" height="36.00" fill="#0ea5e9" stroke="#ffffff" stroke-width="0.5"/>
<text x="449.9551426631318" y="358.0" text-anchor="middle" font-size="10" fill="#0f172a">post-send</text>
<text x="449.9551426631318" y="371.0" text-anchor="middle" font-size="10" fill="#0f172a">0.241s</text>
<rect x="497.10" y="342.00" width="137.76" height="36.00" fill="#22c55e" stroke="#ffffff" stroke-width="0.5"/>
<text x="565.9786601249779" y="358.0" text-anchor="middle" font-size="10" fill="#0f172a">wait-recv</text>
<text x="565.9786601249779" y="371.0" text-anchor="middle" font-size="10" fill="#0f172a">0.352s</text>
<rect x="634.86" y="342.00" width="0.61" height="36.00" fill="#16a34a" stroke="#ffffff" stroke-width="0.5"/>
<rect x="635.47" y="342.00" width="202.09" height="36.00" fill="#a3a3a3" stroke="#ffffff" stroke-width="0.5"/>
<text x="736.514797961672" y="358.0" text-anchor="middle" font-size="10" fill="#0f172a">post-comm</text>
<text x="736.514797961672" y="371.0" text-anchor="middle" font-size="10" fill="#0f172a">0.516s</text>
<text x="845.5583498453855" y="364.0" font-size="11" fill="#374151">no midcomm    1.585s</text>
<text x="208" y="429.0" text-anchor="end" font-size="14" font-weight="700">mpi  omp</text>
<text x="208" y="447.0" text-anchor="end" font-size="11" fill="#374151">compute 0.209s  |  comm-window 0.144s  |  fixed mock 0.151s</text>
<text x="208" y="463.0" text-anchor="end" font-size="11" fill="#6b7280">measured-window 0.366s | ideal 0.209s / serial 0.353s | serialized Δ 0.144s → ratio 1.089x</text>
<rect x="220.00" y="400.00" width="71.64" height="36.00" fill="#94a3b8" stroke="#ffffff" stroke-width="0.5"/>
<text x="255.81903665409328" y="416.0" text-anchor="middle" font-size="10" fill="#0f172a">pre-comm</text>
<text x="255.81903665409328" y="429.0" text-anchor="middle" font-size="10" fill="#0f172a">0.183s</text>
<rect x="291.64" y="400.00" width="0.06" height="36.00" fill="#38bdf8" stroke="#ffffff" stroke-width="0.5"/>
<rect x="291.69" y="400.00" width="65.91" height="36.00" fill="#0ea5e9" stroke="#ffffff" stroke-width="0.5"/>
<text x="324.64739327115916" y="416.0" text-anchor="middle" font-size="10" fill="#0f172a">post-send</text>
<text x="324.64739327115916" y="429.0" text-anchor="middle" font-size="10" fill="#0f172a">0.168s</text>
<rect x="357.60" y="400.00" width="82.03" height="36.00" fill="#f97316" stroke="#ffffff" stroke-width="0.5"/>
<text x="398.6127941194377" y="416.0" text-anchor="middle" font-size="10" fill="#0f172a">mid-comm</text>
<text x="398.6127941194377" y="429.0" text-anchor="middle" font-size="10" fill="#0f172a">0.209s</text>
<rect x="439.63" y="400.00" width="111.58" height="36.00" fill="#22c55e" stroke="#ffffff" stroke-width="0.5"/>
<text x="495.4137149045078" y="416.0" text-anchor="middle" font-size="10" fill="#0f172a">wait-recv</text>
<text x="495.4137149045078" y="429.0" text-anchor="middle" font-size="10" fill="#0f172a">0.285s</text>
<rect x="551.20" y="400.00" width="0.64" height="36.00" fill="#16a34a" stroke="#ffffff" stroke-width="0.5"/>
<rect x="551.85" y="400.00" width="78.17" height="36.00" fill="#a3a3a3" stroke="#ffffff" stroke-width="0.5"/>
<text x="590.9312945227283" y="416.0" text-anchor="middle" font-size="10" fill="#0f172a">post-comm</text>
<text x="590.9312945227283" y="429.0" text-anchor="middle" font-size="10" fill="#0f172a">0.200s</text>
<text x="638.0166732165525" y="422.0" font-size="11" fill="#374151">with compute  1.061s</text>
<rect x="220.00" y="442.00" width="71.43" height="36.00" fill="#94a3b8" stroke="#ffffff" stroke-width="0.5"/>
<text x="255.71574541171296" y="458.0" text-anchor="middle" font-size="10" fill="#0f172a">pre-comm</text>
<text x="255.71574541171296" y="471.0" text-anchor="middle" font-size="10" fill="#0f172a">0.182s</text>
<rect x="291.43" y="442.00" width="0.05" height="36.00" fill="#38bdf8" stroke="#ffffff" stroke-width="0.5"/>
<rect x="291.48" y="442.00" width="73.08" height="36.00" fill="#0ea5e9" stroke="#ffffff" stroke-width="0.5"/>
<text x="328.02523579039774" y="458.0" text-anchor="middle" font-size="10" fill="#0f172a">post-send</text>
<text x="328.02523579039774" y="471.0" text-anchor="middle" font-size="10" fill="#0f172a">0.187s</text>
<rect x="364.57" y="442.00" width="115.26" height="36.00" fill="#22c55e" stroke="#ffffff" stroke-width="0.5"/>
<text x="422.1935927143192" y="458.0" text-anchor="middle" font-size="10" fill="#0f172a">wait-recv</text>
<text x="422.1935927143192" y="471.0" text-anchor="middle" font-size="10" fill="#0f172a">0.294s</text>
<rect x="479.82" y="442.00" width="1.09" height="36.00" fill="#16a34a" stroke="#ffffff" stroke-width="0.5"/>
<rect x="480.91" y="442.00" width="82.90" height="36.00" fill="#a3a3a3" stroke="#ffffff" stroke-width="0.5"/>
<text x="522.3598502027273" y="458.0" text-anchor="middle" font-size="10" fill="#0f172a">post-comm</text>
<text x="522.3598502027273" y="471.0" text-anchor="middle" font-size="10" fill="#0f172a">0.212s</text>
<text x="571.8074951535702" y="464.0" font-size="11" fill="#374151">no midcomm    0.888s</text>
<rect x="220.00" y="534.00" width="14.00" height="14.00" fill="#94a3b8" stroke="#ffffff" stroke-width="0.5"/>
<text x="240" y="546" font-size="12">pre-comm</text>
<rect x="335.00" y="534.00" width="14.00" height="14.00" fill="#38bdf8" stroke="#ffffff" stroke-width="0.5"/>
<text x="355" y="546" font-size="12">post-recv</text>
<rect x="450.00" y="534.00" width="14.00" height="14.00" fill="#0ea5e9" stroke="#ffffff" stroke-width="0.5"/>
<text x="470" y="546" font-size="12">post-send</text>
<rect x="565.00" y="534.00" width="14.00" height="14.00" fill="#f97316" stroke="#ffffff" stroke-width="0.5"/>
<text x="585" y="546" font-size="12">mid-comm</text>
<rect x="680.00" y="534.00" width="14.00" height="14.00" fill="#22c55e" stroke="#ffffff" stroke-width="0.5"/>
<text x="700" y="546" font-size="12">wait-recv</text>
<rect x="795.00" y="534.00" width="14.00" height="14.00" fill="#16a34a" stroke="#ffffff" stroke-width="0.5"/>
<text x="815" y="546" font-size="12">wait-send</text>
<rect x="910.00" y="534.00" width="14.00" height="14.00" fill="#a3a3a3" stroke="#ffffff" stroke-width="0.5"/>
<text x="930" y="546" font-size="12">post-comm</text>
<text x="220" y="574" font-size="11" fill="#6b7280">paper overhead ratio on overlap window: for mpi rows, comm-window = wait-recv(mpi) − wait-recv(mock), measured-window = mid-comm(with) + residual wait-recv(with). 0 = perfect overlap, 1 = serialized.</text>
</svg>