<svg xmlns="http://www.w3.org/2000/svg" width="1240" height="638">
<style>text{font-family:-apple-system,Segoe UI,Roboto,sans-serif;fill:#111827;}</style>
<text x="620.0" y="36" text-anchor="middle" font-size="20" font-weight="700">cm4_inter / run_1_big_mes_inter / case 06 (async1_c1_testall)</text>
<text x="620.0" y="62" text-anchor="middle" font-size="13" fill="#4b5563">size 512_512_512  |  cutoff 250  |  num_cycles 5</text>
<line x1="220.0" y1="92" x2="220.0" y2="488" stroke="#e5e7eb" stroke-dasharray="4 4"/>
<text x="220.0" y="506" text-anchor="middle" font-size="12">0.000s</text>
<line x1="412.0" y1="92" x2="412.0" y2="488" stroke="#e5e7eb" stroke-dasharray="4 4"/>
<text x="412.0" y="506" text-anchor="middle" font-size="12">0.964s</text>
<line x1="604.0" y1="92" x2="604.0" y2="488" stroke="#e5e7eb" stroke-dasharray="4 4"/>
<text x="604.0" y="506" text-anchor="middle" font-size="12">1.928s</text>
<line x1="796.0" y1="92" x2="796.0" y2="488" stroke="#e5e7eb" stroke-dasharray="4 4"/>
<text x="796.0" y="506" text-anchor="middle" font-size="12">2.892s</text>
<line x1="988.0" y1="92" x2="988.0" y2="488" stroke="#e5e7eb" stroke-dasharray="4 4"/>
<text x="988.0" y="506" text-anchor="middle" font-size="12">3.856s</text>
<line x1="1180.0" y1="92" x2="1180.0" y2="488" stroke="#e5e7eb" stroke-dasharray="4 4"/>
<text x="1180.0" y="506" text-anchor="middle" font-size="12">4.820s</text>
<line x1="220" y1="488" x2="1180" y2="488" stroke="#374151"/>
<text x="208" y="129.0" text-anchor="end" font-size="14" font-weight="700">mock seq</text>
<text x="208" y="147.0" text-anchor="end" font-size="11" fill="#374151">compute 1.127s  |  comm-window 0.446s  |  fixed mock 0.000s</text>
<text x="208" y="163.0" text-anchor="end" font-size="11" fill="#6b7280">measured-window 1.602s | ideal 1.127s / serial 1.574s | serialized Δ 0.446s → ratio 1.063x</text>
<rect x="220.00" y="100.00" width="205.91" height="36.00" fill="#94a3b8" stroke="#ffffff" stroke-width="0.5"/>
<text x="322.9550171106498" y="116.0" text-anchor="middle" font-size="10" fill="#0f172a">pre-comm</text>
<text x="322.9550171106498" y="129.0" text-anchor="middle" font-size="10" fill="#0f172a">1.034s</text>
<rect x="425.91" y="100.00" width="0.09" height="36.00" fill="#38bdf8" stroke="#ffffff" stroke-width="0.5"/>
<rect x="426.00" y="100.00" width="103.21" height="36.00" fill="#0ea5e9" stroke="#ffffff" stroke-width="0.5"/>
<text x="477.6020662235079" y="116.0" text-anchor="middle" font-size="10" fill="#0f172a">post-send</text>
<text x="477.6020662235079" y="129.0" text-anchor="middle" font-size="10" fill="#0f172a">0.518s</text>
<rect x="529.21" y="100.00" width="224.53" height="36.00" fill="#f97316" stroke="#ffffff" stroke-width="0.5"/>
<text x="641.4697565223344" y="116.0" text-anchor="middle" font-size="10" fill="#0f172a">mid-comm</text>
<text x="641.4697565223344" y="129.0" text-anchor="middle" font-size="10" fill="#0f172a">1.127s</text>
<rect x="753.73" y="100.00" width="94.46" height="36.00" fill="#22c55e" stroke="#ffffff" stroke-width="0.5"/>
<text x="800.9625803827175" y="116.0" text-anchor="middle" font-size="10" fill="#0f172a">wait-recv</text>
<text x="800.9625803827175" y="129.0" text-anchor="middle" font-size="10" fill="#0f172a">0.474s</text>
<rect x="848.19" y="100.00" width="1.35" height="36.00" fill="#16a34a" stroke="#ffffff" stroke-width="0.5"/>
<rect x="849.54" y="100.00" width="225.24" height="36.00" fill="#a3a3a3" stroke="#ffffff" stroke-width="0.5"/>
<text x="962.1566330615933" y="116.0" text-anchor="middle" font-size="10" fill="#0f172a">post-comm</text>
<text x="962.1566330615933" y="129.0" text-anchor="middle" font-size="10" fill="#0f172a">1.131s</text>
<text x="1082.7764956752603" y="122.0" font-size="11" fill="#374151">with compute  4.586s</text>
<rect x="220.00" y="142.00" width="206.72" height="36.00" fill="#94a3b8" stroke="#ffffff" stroke-width="0.5"/>
<text x="323.36110181765207" y="158.0" text-anchor="middle" font-size="10" fill="#0f172a">pre-comm</text>
<text x="323.36110181765207" y="171.0" text-anchor="middle" font-size="10" fill="#0f172a">1.038s</text>
<rect x="426.72" y="142.00" width="0.03" height="36.00" fill="#38bdf8" stroke="#ffffff" stroke-width="0.5"/>
<rect x="426.75" y="142.00" width="109.93" height="36.00" fill="#0ea5e9" stroke="#ffffff" stroke-width="0.5"/>
<text x="481.7138551217086" y="158.0" text-anchor="middle" font-size="10" fill="#0f172a">post-send</text>
<text x="481.7138551217086" y="171.0" text-anchor="middle" font-size="10" fill="#0f172a">0.552s</text>
<rect x="536.68" y="142.00" width="88.89" height="36.00" fill="#22c55e" stroke="#ffffff" stroke-width="0.5"/>
<text x="581.1239088255401" y="158.0" text-anchor="middle" font-size="10" fill="#0f172a">wait-recv</text>
<text x="581.1239088255401" y="171.0" text-anchor="middle" font-size="10" fill="#0f172a">0.446s</text>
<rect x="625.57" y="142.00" width="0.71" height="36.00" fill="#16a34a" stroke="#ffffff" stroke-width="0.5"/>
<rect x="626.28" y="142.00" width="230.20" height="36.00" fill="#a3a3a3" stroke="#ffffff" stroke-width="0.5"/>
<text x="741.3783093077434" y="158.0" text-anchor="middle" font-size="10" fill="#0f172a">post-comm</text>
<text x="741.3783093077434" y="171.0" text-anchor="middle" font-size="10" fill="#0f172a">1.156s</text>
<text x="864.4807832871984" y="164.0" font-size="11" fill="#374151">no midcomm    3.516s</text>
<text x="208" y="229.0" text-anchor="end" font-size="14" font-weight="700">mock omp</text>
<text x="208" y="247.0" text-anchor="end" font-size="11" fill="#374151">compute 1.105s  |  comm-window 0.428s  |  fixed mock 0.000s</text>
<text x="208" y="263.0" text-anchor="end" font-size="11" fill="#6b7280">measured-window 1.556s | ideal 1.105s / serial 1.533s | serialized Δ 0.428s → ratio 1.053x</text>
<rect x="220.00" y="200.00" width="198.66" height="36.00" fill="#94a3b8" stroke="#ffffff" stroke-width="0.5"/>
<text x="319.3285261652087" y="216.0" text-anchor="middle" font-size="10" fill="#0f172a">pre-comm</text>
<text x="319.3285261652087" y="229.0" text-anchor="middle" font-size="10" fill="#0f172a">0.997s</text>
<rect x="418.66" y="200.00" width="0.09" height="36.00" fill="#38bdf8" stroke="#ffffff" stroke-width="0.5"/>
<rect x="418.74" y="200.00" width="100.49" height="36.00" fill="#0ea5e9" stroke="#ffffff" stroke-width="0.5"/>
<text x="468.9858597796339" y="216.0" text-anchor="middle" font-size="10" fill="#0f172a">post-send</text>
<text x="468.9858597796339" y="229.0" text-anchor="middle" font-size="10" fill="#0f172a">0.505s</text>
<rect x="519.23" y="200.00" width="220.14" height="36.00" fill="#f97316" stroke="#ffffff" stroke-width="0.5"/>
<text x="629.2979766745095" y="216.0" text-anchor="middle" font-size="10" fill="#0f172a">mid-comm</text>
<text x="629.2979766745095" y="229.0" text-anchor="middle" font-size="10" fill="#0f172a">1.105s</text>
<rect x="739.37" y="200.00" width="89.70" height="36.00" fill="#22c55e" stroke="#ffffff" stroke-width="0.5"/>
<text x="784.2182248735168" y="216.0" text-anchor="middle" font-size="10" fill="#0f172a">wait-recv</text>
<text x="784.2182248735168" y="229.0" text-anchor="middle" font-size="10" fill="#0f172a">0.450s</text>
<rect x="829.07" y="200.00" width="0.70" height="36.00" fill="#16a34a" stroke="#ffffff" stroke-width="0.5"/>
<rect x="829.77" y="200.00" width="218.55" height="36.00" fill="#a3a3a3" stroke="#ffffff" stroke-width="0.5"/>
<text x="939.0428108209346" y="216.0" text-anchor="middle" font-size="10" fill="#0f172a">post-comm</text>
<text x="939.0428108209346" y="229.0" text-anchor="middle" font-size="10" fill="#0f172a">1.097s</text>
<text x="1056.3183464726944" y="222.0" font-size="11" fill="#374151">with compute  4.338s</text>
<rect x="220.00" y="242.00" width="183.95" height="36.00" fill="#94a3b8" stroke="#ffffff" stroke-width="0.5"/>
<text x="311.97680144400226" y="258.0" text-anchor="middle" font-size="10" fill="#0f172a">pre-comm</text>
<text x="311.97680144400226" y="271.0" text-anchor="middle" font-size="10" fill="#0f172a">0.924s</text>
<rect x="403.95" y="242.00" width="0.02" height="36.00" fill="#38bdf8" stroke="#ffffff" stroke-width="0.5"/>
<rect x="403.98" y="242.00" width="101.46" height="36.00" fill="#0ea5e9" stroke="#ffffff" stroke-width="0.5"/>
<text x="454.7090627743636" y="258.0" text-anchor="middle" font-size="10" fill="#0f172a">post-send</text>
<text x="454.7090627743636" y="271.0" text-anchor="middle" font-size="10" fill="#0f172a">0.509s</text>
<rect x="505.44" y="242.00" width="85.16" height="36.00" fill="#22c55e" stroke="#ffffff" stroke-width="0.5"/>
<text x="548.0184781653356" y="258.0" text-anchor="middle" font-size="10" fill="#0f172a">wait-recv</text>
<text x="548.0184781653356" y="271.0" text-anchor="middle" font-size="10" fill="#0f172a">0.428s</text>
<rect x="590.60" y="242.00" width="1.24" height="36.00" fill="#16a34a" stroke="#ffffff" stroke-width="0.5"/>
<rect x="591.84" y="242.00" width="207.93" height="36.00" fill="#a3a3a3" stroke="#ffffff" stroke-width="0.5"/>
<text x="695.8025794177184" y="258.0" text-anchor="middle" font-size="10" fill="#0f172a">post-comm</text>
<text x="695.8025794177184" y="271.0" text-anchor="middle" font-size="10" fill="#0f172a">1.044s</text>
<text x="807.7663488893882" y="264.0" font-size="11" fill="#374151">no midcomm    2.935s</text>
<text x="208" y="329.0" text-anchor="end" font-size="14" font-weight="700">mpi  seq</text>
<text x="208" y="347.0" text-anchor="end" font-size="11" fill="#374151">compute 1.157s  |  comm-window 0.410s  |  fixed mock 0.446s</text>
<text x="208" y="363.0" text-anchor="end" font-size="11" fill="#6b7280">measured-window 1.214s | ideal 1.157s / serial 1.567s | serialized Δ 0.410s → ratio 0.139x</text>
<rect x="220.00" y="300.00" width="202.59" height="36.00" fill="#94a3b8" stroke="#ffffff" stroke-width="0.5"/>
<text x="321.2955177609117" y="316.0" text-anchor="middle" font-size="10" fill="#0f172a">pre-comm</text>
<text x="321.2955177609117" y="329.0" text-anchor="middle" font-size="10" fill="#0f172a">1.017s</text>
<rect x="422.59" y="300.00" width="0.09" height="36.00" fill="#38bdf8" stroke="#ffffff" stroke-width="0.5"/>
<rect x="422.68" y="300.00" width="98.10" height="36.00" fill="#0ea5e9" stroke="#ffffff" stroke-width="0.5"/>
<text x="471.7344071958501" y="316.0" text-anchor="middle" font-size="10" fill="#0f172a">post-send</text>
<text x="471.7344071958501" y="329.0" text-anchor="middle" font-size="10" fill="#0f172a">0.493s</text>
<rect x="520.79" y="300.00" width="230.48" height="36.00" fill="#f97316" stroke="#ffffff" stroke-width="0.5"/>
<text x="636.0267065028345" y="316.0" text-anchor="middle" font-size="10" fill="#0f172a">mid-comm</text>
<text x="636.0267065028345" y="329.0" text-anchor="middle" font-size="10" fill="#0f172a">1.157s</text>
<rect x="751.27" y="300.00" width="105.78" height="36.00" fill="#22c55e" stroke="#ffffff" stroke-width="0.5"/>
<text x="804.1559674511153" y="316.0" text-anchor="middle" font-size="10" fill="#0f172a">wait-recv</text>
<text x="804.1559674511153" y="329.0" text-anchor="middle" font-size="10" fill="#0f172a">0.531s</text>
<rect x="857.05" y="300.00" width="0.69" height="36.00" fill="#16a34a" stroke="#ffffff" stroke-width="0.5"/>
<rect x="857.73" y="300.00" width="219.41" height="36.00" fill="#a3a3a3" stroke="#ffffff" stroke-width="0.5"/>
<text x="967.4376283081436" y="316.0" text-anchor="middle" font-size="10" fill="#0f172a">post-comm</text>
<text x="967.4376283081436" y="329.0" text-anchor="middle" font-size="10" fill="#0f172a">1.102s</text>
<text x="1085.142857142857" y="322.0" font-size="11" fill="#374151">with compute  4.395s</text>
<rect x="220.00" y="342.00" width="186.69" height="36.00" fill="#94a3b8" stroke="#ffffff" stroke-width="0.5"/>
<text x="313.34285612622136" y="358.0" text-anchor="middle" font-size="10" fill="#0f172a">pre-comm</text>
<text x="313.34285612622136" y="371.0" text-anchor="middle" font-size="10" fill="#0f172a">0.937s</text>
<rect x="406.69" y="342.00" width="0.09" height="36.00" fill="#38bdf8" stroke="#ffffff" stroke-width="0.5"/>
<rect x="406.78" y="342.00" width="99.70" height="36.00" fill="#0ea5e9" stroke="#ffffff" stroke-width="0.5"/>
<text x="456.62776242713625" y="358.0" text-anchor="middle" font-size="10" fill="#0f172a">post-send</text>
<text x="456.62776242713625" y="371.0" text-anchor="middle" font-size="10" fill="#0f172a">0.501s</text>
<rect x="506.48" y="342.00" width="170.46" height="36.00" fill="#22c55e" stroke="#ffffff" stroke-width="0.5"/>
<text x="591.7125609881916" y="358.0" text-anchor="middle" font-size="10" fill="#0f172a">wait-recv</text>
<text x="591.7125609881916" y="371.0" text-anchor="middle" font-size="10" fill="#0f172a">0.856s</text>
<rect x="676.94" y="342.00" width="2.40" height="36.00" fill="#16a34a" stroke="#ffffff" stroke-width="0.5"/>
<rect x="679.35" y="342.00" width="208.16" height="36.00" fill="#a3a3a3" stroke="#ffffff" stroke-width="0.5"/>
<text x="783.4292541542612" y="358.0" text-anchor="middle" font-size="10" fill="#0f172a">post-comm</text>
<text x="783.4292541542612" y="371.0" text-anchor="middle" font-size="10" fill="#0f172a">1.045s</text>
<text x="895.510125948689" y="364.0" font-size="11" fill="#374151">no midcomm    3.371s</text>
<text x="208" y="429.0" text-anchor="end" font-size="14" font-weight="700">mpi  omp</text>
<text x="208" y="447.0" text-anchor="end" font-size="11" fill="#374151">compute 1.075s  |  comm-window 0.433s  |  fixed mock 0.428s</text>
<text x="208" y="463.0" text-anchor="end" font-size="11" fill="#6b7280">measured-window 1.094s | ideal 1.075s / serial 1.507s | serialized Δ 0.433s → ratio 0.045x</text>
<rect x="220.00" y="400.00" width="191.14" height="36.00" fill="#94a3b8" stroke="#ffffff" stroke-width="0.5"/>
<text x="315.56979787974717" y="416.0" text-anchor="middle" font-size="10" fill="#0f172a">pre-comm</text>
<text x="315.56979787974717" y="429.0" text-anchor="middle" font-size="10" fill="#0f172a">0.960s</text>
<rect x="411.14" y="400.00" width="0.09" height="36.00" fill="#38bdf8" stroke="#ffffff" stroke-width="0.5"/>
<rect x="411.23" y="400.00" width="94.88" height="36.00" fill="#0ea5e9" stroke="#ffffff" stroke-width="0.5"/>
<text x="458.66738039675505" y="416.0" text-anchor="middle" font-size="10" fill="#0f172a">post-send</text>
<text x="458.66738039675505" y="429.0" text-anchor="middle" font-size="10" fill="#0f172a">0.476s</text>
<rect x="506.11" y="400.00" width="214.01" height="36.00" fill="#f97316" stroke="#ffffff" stroke-width="0.5"/>
<text x="613.1113722187657" y="416.0" text-anchor="middle" font-size="10" fill="#0f172a">mid-comm</text>
<text x="613.1113722187657" y="429.0" text-anchor="middle" font-size="10" fill="#0f172a">1.075s</text>
<rect x="720.12" y="400.00" width="93.54" height="36.00" fill="#22c55e" stroke="#ffffff" stroke-width="0.5"/>
<text x="766.8880336101088" y="416.0" text-anchor="middle" font-size="10" fill="#0f172a">wait-recv</text>
<text x="766.8880336101088" y="429.0" text-anchor="middle" font-size="10" fill="#0f172a">0.470s</text>
<rect x="813.66" y="400.00" width="1.84" height="36.00" fill="#16a34a" stroke="#ffffff" stroke-width="0.5"/>
<rect x="815.50" y="400.00" width="213.52" height="36.00" fill="#a3a3a3" stroke="#ffffff" stroke-width="0.5"/>
<text x="922.2623925742831" y="416.0" text-anchor="middle" font-size="10" fill="#0f172a">post-comm</text>
<text x="922.2623925742831" y="429.0" text-anchor="middle" font-size="10" fill="#0f172a">1.072s</text>
<text x="1037.0228390859356" y="422.0" font-size="11" fill="#374151">with compute  4.092s</text>
<rect x="220.00" y="442.00" width="192.57" height="36.00" fill="#94a3b8" stroke="#ffffff" stroke-width="0.5"/>
<text x="316.28295359954654" y="458.0" text-anchor="middle" font-size="10" fill="#0f172a">pre-comm</text>
<text x="316.28295359954654" y="471.0" text-anchor="middle" font-size="10" fill="#0f172a">0.967s</text>
<rect x="412.57" y="442.00" width="1.28" height="36.00" fill="#38bdf8" stroke="#ffffff" stroke-width="0.5"/>
<rect x="413.85" y="442.00" width="96.23" height="36.00" fill="#0ea5e9" stroke="#ffffff" stroke-width="0.5"/>
<text x="461.96585767186474" y="458.0" text-anchor="middle" font-size="10" fill="#0f172a">post-send</text>
<text x="461.96585767186474" y="471.0" text-anchor="middle" font-size="10" fill="#0f172a">0.483s</text>
<rect x="510.08" y="442.00" width="171.30" height="36.00" fill="#22c55e" stroke="#ffffff" stroke-width="0.5"/>
<text x="595.7299284303753" y="458.0" text-anchor="middle" font-size="10" fill="#0f172a">wait-recv</text>
<text x="595.7299284303753" y="471.0" text-anchor="middle" font-size="10" fill="#0f172a">0.860s</text>
<rect x="681.38" y="442.00" width="2.39" height="36.00" fill="#16a34a" stroke="#ffffff" stroke-width="0.5"/>
<rect x="683.77" y="442.00" width="211.97" height="36.00" fill="#a3a3a3" stroke="#ffffff" stroke-width="0.5"/>
<text x="789.7552771075117" y="458.0" text-anchor="middle" font-size="10" fill="#0f172a">post-comm</text>
<text x="789.7552771075117" y="471.0" text-anchor="middle" font-size="10" fill="#0f172a">1.064s</text>
<text x="903.73952034777" y="464.0" font-size="11" fill="#374151">no midcomm    3.413s</text>
<rect x="220.00" y="534.00" width="14.00" height="14.00" fill="#94a3b8" stroke="#ffffff" stroke-width="0.5"/>
<text x="240" y="546" font-size="12">pre-comm</text>
<rect x="335.00" y="534.00" width="14.00" height="14.00" fill="#38bdf8" stroke="#ffffff" stroke-width="0.5"/>
<text x="355" y="546" font-size="12">post-recv</text>
<rect x="450.00" y="534.00" width="14.00" height="14.00" fill="#0ea5e9" stroke="#ffffff" stroke-width="0.5"/>
<text x="470" y="546" font-size="12">post-send</text>
<rect x="565.00" y="534.00" width="14.00" height="14.00" fill="#f97316" stroke="#ffffff" stroke-width="0.5"/>
<text x="585" y="546" font-size="12">mid-comm</text>
<rect x="680.00" y="534.00" width="14.00" height="14.00" fill="#22c55e" stroke="#ffffff" stroke-width="0.5"/>
<text x="700" y="546" font-size="12">wait-recv</text>
<rect x="795.00" y="534.00" width="14.00" height="14.00" fill="#16a34a" stroke="#ffffff" stroke-width="0.5"/>
<text x="815" y="546" font-size="12">wait-send</text>
<rect x="910.00" y="534.00" width="14.00" height="14.00" fill="#a3a3a3" stroke="#ffffff" stroke-width="0.5"/>
<text x="930" y="546" font-size="12">post-comm</text>
<text x="220" y="574" font-size="11" fill="#6b7280">paper overhead ratio on overlap window: for mpi rows, comm-window = wait-recv(mpi) − wait-recv(mock), measured-window = mid-comm(with) + residual wait-recv(with). 0 = perfect overlap, 1 = serialized.</text>
</svg>