<svg xmlns="http://www.w3.org/2000/svg" width="1240" height="638">
<style>text{font-family:-apple-system,Segoe UI,Roboto,sans-serif;fill:#111827;}</style>
<text x="620.0" y="36" text-anchor="middle" font-size="20" font-weight="700">cm4_inter / run_2_samll_mess_inter / case 00 (async0_c1_waitall)</text>
<text x="620.0" y="62" text-anchor="middle" font-size="13" fill="#4b5563">size 512_512_512  |  cutoff 500000  |  num_cycles 5</text>
<line x1="220.0" y1="92" x2="220.0" y2="488" stroke="#e5e7eb" stroke-dasharray="4 4"/>
<text x="220.0" y="506" text-anchor="middle" font-size="12">0.000s</text>
<line x1="412.0" y1="92" x2="412.0" y2="488" stroke="#e5e7eb" stroke-dasharray="4 4"/>
<text x="412.0" y="506" text-anchor="middle" font-size="12">0.531s</text>
<line x1="604.0" y1="92" x2="604.0" y2="488" stroke="#e5e7eb" stroke-dasharray="4 4"/>
<text x="604.0" y="506" text-anchor="middle" font-size="12">1.062s</text>
<line x1="796.0" y1="92" x2="796.0" y2="488" stroke="#e5e7eb" stroke-dasharray="4 4"/>
<text x="796.0" y="506" text-anchor="middle" font-size="12">1.593s</text>
<line x1="988.0" y1="92" x2="988.0" y2="488" stroke="#e5e7eb" stroke-dasharray="4 4"/>
<text x="988.0" y="506" text-anchor="middle" font-size="12">2.124s</text>
<line x1="1180.0" y1="92" x2="1180.0" y2="488" stroke="#e5e7eb" stroke-dasharray="4 4"/>
<text x="1180.0" y="506" text-anchor="middle" font-size="12">2.655s</text>
<line x1="220" y1="488" x2="1180" y2="488" stroke="#374151"/>
<text x="208" y="129.0" text-anchor="end" font-size="14" font-weight="700">mock seq</text>
<text x="208" y="147.0" text-anchor="end" font-size="11" fill="#374151">compute 0.563s  |  comm-window 0.223s  |  fixed mock 0.000s</text>
<text x="208" y="163.0" text-anchor="end" font-size="11" fill="#6b7280">measured-window 0.789s | ideal 0.563s / serial 0.786s | serialized Δ 0.223s → ratio 1.015x</text>
<rect x="220.00" y="100.00" width="186.14" height="36.00" fill="#94a3b8" stroke="#ffffff" stroke-width="0.5"/>
<text x="313.0676687062587" y="116.0" text-anchor="middle" font-size="10" fill="#0f172a">pre-comm</text>
<text x="313.0676687062587" y="129.0" text-anchor="middle" font-size="10" fill="#0f172a">0.515s</text>
<rect x="406.14" y="100.00" width="0.06" height="36.00" fill="#38bdf8" stroke="#ffffff" stroke-width="0.5"/>
<rect x="406.19" y="100.00" width="91.71" height="36.00" fill="#0ea5e9" stroke="#ffffff" stroke-width="0.5"/>
<text x="452.0516382590301" y="116.0" text-anchor="middle" font-size="10" fill="#0f172a">post-send</text>
<text x="452.0516382590301" y="129.0" text-anchor="middle" font-size="10" fill="#0f172a">0.254s</text>
<rect x="497.91" y="100.00" width="203.59" height="36.00" fill="#f97316" stroke="#ffffff" stroke-width="0.5"/>
<text x="599.7017422961402" y="116.0" text-anchor="middle" font-size="10" fill="#0f172a">mid-comm</text>
<text x="599.7017422961402" y="129.0" text-anchor="middle" font-size="10" fill="#0f172a">0.563s</text>
<rect x="701.49" y="100.00" width="81.74" height="36.00" fill="#22c55e" stroke="#ffffff" stroke-width="0.5"/>
<text x="742.3624818153473" y="116.0" text-anchor="middle" font-size="10" fill="#0f172a">wait-recv</text>
<text x="742.3624818153473" y="129.0" text-anchor="middle" font-size="10" fill="#0f172a">0.226s</text>
<rect x="783.23" y="100.00" width="1.29" height="36.00" fill="#16a34a" stroke="#ffffff" stroke-width="0.5"/>
<rect x="784.52" y="100.00" width="203.00" height="36.00" fill="#a3a3a3" stroke="#ffffff" stroke-width="0.5"/>
<text x="886.0215001509429" y="116.0" text-anchor="middle" font-size="10" fill="#0f172a">post-comm</text>
<text x="886.0215001509429" y="129.0" text-anchor="middle" font-size="10" fill="#0f172a">0.561s</text>
<text x="995.5208403289759" y="122.0" font-size="11" fill="#374151">with compute  2.219s</text>
<rect x="220.00" y="142.00" width="180.86" height="36.00" fill="#94a3b8" stroke="#ffffff" stroke-width="0.5"/>
<text x="310.42788572702614" y="158.0" text-anchor="middle" font-size="10" fill="#0f172a">pre-comm</text>
<text x="310.42788572702614" y="171.0" text-anchor="middle" font-size="10" fill="#0f172a">0.500s</text>
<rect x="400.86" y="142.00" width="0.05" height="36.00" fill="#38bdf8" stroke="#ffffff" stroke-width="0.5"/>
<rect x="400.91" y="142.00" width="96.42" height="36.00" fill="#0ea5e9" stroke="#ffffff" stroke-width="0.5"/>
<text x="449.11688413773317" y="158.0" text-anchor="middle" font-size="10" fill="#0f172a">post-send</text>
<text x="449.11688413773317" y="171.0" text-anchor="middle" font-size="10" fill="#0f172a">0.267s</text>
<rect x="497.33" y="142.00" width="80.53" height="36.00" fill="#22c55e" stroke="#ffffff" stroke-width="0.5"/>
<text x="537.5880359849907" y="158.0" text-anchor="middle" font-size="10" fill="#0f172a">wait-recv</text>
<text x="537.5880359849907" y="171.0" text-anchor="middle" font-size="10" fill="#0f172a">0.223s</text>
<rect x="577.85" y="142.00" width="1.33" height="36.00" fill="#16a34a" stroke="#ffffff" stroke-width="0.5"/>
<rect x="579.19" y="142.00" width="199.91" height="36.00" fill="#a3a3a3" stroke="#ffffff" stroke-width="0.5"/>
<text x="679.141973322111" y="158.0" text-anchor="middle" font-size="10" fill="#0f172a">post-comm</text>
<text x="679.141973322111" y="171.0" text-anchor="middle" font-size="10" fill="#0f172a">0.553s</text>
<text x="787.0988213251544" y="164.0" font-size="11" fill="#374151">no midcomm    1.622s</text>
<text x="208" y="229.0" text-anchor="end" font-size="14" font-weight="700">mock omp</text>
<text x="208" y="247.0" text-anchor="end" font-size="11" fill="#374151">compute 0.559s  |  comm-window 0.223s  |  fixed mock 0.000s</text>
<text x="208" y="263.0" text-anchor="end" font-size="11" fill="#6b7280">measured-window 0.785s | ideal 0.559s / serial 0.782s | serialized Δ 0.223s → ratio 1.014x</text>
<rect x="220.00" y="200.00" width="183.39" height="36.00" fill="#94a3b8" stroke="#ffffff" stroke-width="0.5"/>
<text x="311.6966498315771" y="216.0" text-anchor="middle" font-size="10" fill="#0f172a">pre-comm</text>
<text x="311.6966498315771" y="229.0" text-anchor="middle" font-size="10" fill="#0f172a">0.507s</text>
<rect x="403.39" y="200.00" width="0.05" height="36.00" fill="#38bdf8" stroke="#ffffff" stroke-width="0.5"/>
<rect x="403.45" y="200.00" width="92.63" height="36.00" fill="#0ea5e9" stroke="#ffffff" stroke-width="0.5"/>
<text x="449.75993590900134" y="216.0" text-anchor="middle" font-size="10" fill="#0f172a">post-send</text>
<text x="449.75993590900134" y="229.0" text-anchor="middle" font-size="10" fill="#0f172a">0.256s</text>
<rect x="496.07" y="200.00" width="202.25" height="36.00" fill="#f97316" stroke="#ffffff" stroke-width="0.5"/>
<text x="597.1976300227138" y="216.0" text-anchor="middle" font-size="10" fill="#0f172a">mid-comm</text>
<text x="597.1976300227138" y="229.0" text-anchor="middle" font-size="10" fill="#0f172a">0.559s</text>
<rect x="698.32" y="200.00" width="81.61" height="36.00" fill="#22c55e" stroke="#ffffff" stroke-width="0.5"/>
<text x="739.1274127867132" y="216.0" text-anchor="middle" font-size="10" fill="#0f172a">wait-recv</text>
<text x="739.1274127867132" y="229.0" text-anchor="middle" font-size="10" fill="#0f172a">0.226s</text>
<rect x="779.93" y="200.00" width="1.44" height="36.00" fill="#16a34a" stroke="#ffffff" stroke-width="0.5"/>
<rect x="781.37" y="200.00" width="201.73" height="36.00" fill="#a3a3a3" stroke="#ffffff" stroke-width="0.5"/>
<text x="882.2373757392108" y="216.0" text-anchor="middle" font-size="10" fill="#0f172a">post-comm</text>
<text x="882.2373757392108" y="229.0" text-anchor="middle" font-size="10" fill="#0f172a">0.558s</text>
<text x="991.1019903307434" y="222.0" font-size="11" fill="#374151">with compute  2.204s</text>
<rect x="220.00" y="242.00" width="182.88" height="36.00" fill="#94a3b8" stroke="#ffffff" stroke-width="0.5"/>
<text x="311.43923692471134" y="258.0" text-anchor="middle" font-size="10" fill="#0f172a">pre-comm</text>
<text x="311.43923692471134" y="271.0" text-anchor="middle" font-size="10" fill="#0f172a">0.506s</text>
<rect x="402.88" y="242.00" width="0.29" height="36.00" fill="#38bdf8" stroke="#ffffff" stroke-width="0.5"/>
<rect x="403.16" y="242.00" width="96.48" height="36.00" fill="#0ea5e9" stroke="#ffffff" stroke-width="0.5"/>
<text x="451.4032924445479" y="258.0" text-anchor="middle" font-size="10" fill="#0f172a">post-send</text>
<text x="451.4032924445479" y="271.0" text-anchor="middle" font-size="10" fill="#0f172a">0.267s</text>
<rect x="499.64" y="242.00" width="80.49" height="36.00" fill="#22c55e" stroke="#ffffff" stroke-width="0.5"/>
<text x="539.8869814829411" y="258.0" text-anchor="middle" font-size="10" fill="#0f172a">wait-recv</text>
<text x="539.8869814829411" y="271.0" text-anchor="middle" font-size="10" fill="#0f172a">0.223s</text>
<rect x="580.13" y="242.00" width="1.35" height="36.00" fill="#16a34a" stroke="#ffffff" stroke-width="0.5"/>
<rect x="581.49" y="242.00" width="199.61" height="36.00" fill="#a3a3a3" stroke="#ffffff" stroke-width="0.5"/>
<text x="681.2906885913793" y="258.0" text-anchor="middle" font-size="10" fill="#0f172a">post-comm</text>
<text x="681.2906885913793" y="271.0" text-anchor="middle" font-size="10" fill="#0f172a">0.552s</text>
<text x="789.0954657455251" y="264.0" font-size="11" fill="#374151">no midcomm    1.632s</text>
<text x="208" y="329.0" text-anchor="end" font-size="14" font-weight="700">mpi  seq</text>
<text x="208" y="347.0" text-anchor="end" font-size="11" fill="#374151">compute 0.587s  |  comm-window 0.128s  |  fixed mock 0.223s</text>
<text x="208" y="363.0" text-anchor="end" font-size="11" fill="#6b7280">measured-window 0.735s | ideal 0.587s / serial 0.715s | serialized Δ 0.128s → ratio 1.155x</text>
<rect x="220.00" y="300.00" width="187.34" height="36.00" fill="#94a3b8" stroke="#ffffff" stroke-width="0.5"/>
<text x="313.66792515347277" y="316.0" text-anchor="middle" font-size="10" fill="#0f172a">pre-comm</text>
<text x="313.66792515347277" y="329.0" text-anchor="middle" font-size="10" fill="#0f172a">0.518s</text>
<rect x="407.34" y="300.00" width="0.05" height="36.00" fill="#38bdf8" stroke="#ffffff" stroke-width="0.5"/>
<rect x="407.38" y="300.00" width="90.53" height="36.00" fill="#0ea5e9" stroke="#ffffff" stroke-width="0.5"/>
<text x="452.64984163723136" y="316.0" text-anchor="middle" font-size="10" fill="#0f172a">post-send</text>
<text x="452.64984163723136" y="329.0" text-anchor="middle" font-size="10" fill="#0f172a">0.250s</text>
<rect x="497.92" y="300.00" width="212.18" height="36.00" fill="#f97316" stroke="#ffffff" stroke-width="0.5"/>
<text x="604.0046883670623" y="316.0" text-anchor="middle" font-size="10" fill="#0f172a">mid-comm</text>
<text x="604.0046883670623" y="329.0" text-anchor="middle" font-size="10" fill="#0f172a">0.587s</text>
<rect x="710.09" y="300.00" width="135.40" height="36.00" fill="#22c55e" stroke="#ffffff" stroke-width="0.5"/>
<text x="777.7927692925975" y="316.0" text-anchor="middle" font-size="10" fill="#0f172a">wait-recv</text>
<text x="777.7927692925975" y="329.0" text-anchor="middle" font-size="10" fill="#0f172a">0.374s</text>
<rect x="845.49" y="300.00" width="25.72" height="36.00" fill="#16a34a" stroke="#ffffff" stroke-width="0.5"/>
<rect x="871.21" y="300.00" width="205.93" height="36.00" fill="#a3a3a3" stroke="#ffffff" stroke-width="0.5"/>
<text x="974.1769160203127" y="316.0" text-anchor="middle" font-size="10" fill="#0f172a">post-comm</text>
<text x="974.1769160203127" y="329.0" text-anchor="middle" font-size="10" fill="#0f172a">0.569s</text>
<text x="1085.1428571428569" y="322.0" font-size="11" fill="#374151">with compute  2.407s</text>
<rect x="220.00" y="342.00" width="169.88" height="36.00" fill="#94a3b8" stroke="#ffffff" stroke-width="0.5"/>
<text x="304.93848002358845" y="358.0" text-anchor="middle" font-size="10" fill="#0f172a">pre-comm</text>
<text x="304.93848002358845" y="371.0" text-anchor="middle" font-size="10" fill="#0f172a">0.470s</text>
<rect x="389.88" y="342.00" width="0.04" height="36.00" fill="#38bdf8" stroke="#ffffff" stroke-width="0.5"/>
<rect x="389.92" y="342.00" width="88.36" height="36.00" fill="#0ea5e9" stroke="#ffffff" stroke-width="0.5"/>
<text x="434.10107910440365" y="358.0" text-anchor="middle" font-size="10" fill="#0f172a">post-send</text>
<text x="434.10107910440365" y="371.0" text-anchor="middle" font-size="10" fill="#0f172a">0.244s</text>
<rect x="478.28" y="342.00" width="126.99" height="36.00" fill="#22c55e" stroke="#ffffff" stroke-width="0.5"/>
<text x="541.7776446908779" y="358.0" text-anchor="middle" font-size="10" fill="#0f172a">wait-recv</text>
<text x="541.7776446908779" y="371.0" text-anchor="middle" font-size="10" fill="#0f172a">0.351s</text>
<rect x="605.27" y="342.00" width="0.57" height="36.00" fill="#16a34a" stroke="#ffffff" stroke-width="0.5"/>
<rect x="605.84" y="342.00" width="187.89" height="36.00" fill="#a3a3a3" stroke="#ffffff" stroke-width="0.5"/>
<text x="699.7856491443929" y="358.0" text-anchor="middle" font-size="10" fill="#0f172a">post-comm</text>
<text x="699.7856491443929" y="371.0" text-anchor="middle" font-size="10" fill="#0f172a">0.520s</text>
<text x="801.7294123916753" y="364.0" font-size="11" fill="#374151">no midcomm    1.591s</text>
<text x="208" y="429.0" text-anchor="end" font-size="14" font-weight="700">mpi  omp</text>
<text x="208" y="447.0" text-anchor="end" font-size="11" fill="#374151">compute 0.540s  |  comm-window 0.132s  |  fixed mock 0.223s</text>
<text x="208" y="463.0" text-anchor="end" font-size="11" fill="#6b7280">measured-window 0.671s | ideal 0.540s / serial 0.672s | serialized Δ 0.132s → ratio 0.988x</text>
<rect x="220.00" y="400.00" width="176.04" height="36.00" fill="#94a3b8" stroke="#ffffff" stroke-width="0.5"/>
<text x="308.01888632800126" y="416.0" text-anchor="middle" font-size="10" fill="#0f172a">pre-comm</text>
<text x="308.01888632800126" y="429.0" text-anchor="middle" font-size="10" fill="#0f172a">0.487s</text>
<rect x="396.04" y="400.00" width="0.04" height="36.00" fill="#38bdf8" stroke="#ffffff" stroke-width="0.5"/>
<rect x="396.08" y="400.00" width="84.95" height="36.00" fill="#0ea5e9" stroke="#ffffff" stroke-width="0.5"/>
<text x="438.55277459069083" y="416.0" text-anchor="middle" font-size="10" fill="#0f172a">post-send</text>
<text x="438.55277459069083" y="429.0" text-anchor="middle" font-size="10" fill="#0f172a">0.235s</text>
<rect x="481.03" y="400.00" width="195.32" height="36.00" fill="#f97316" stroke="#ffffff" stroke-width="0.5"/>
<text x="578.6831151400011" y="416.0" text-anchor="middle" font-size="10" fill="#0f172a">mid-comm</text>
<text x="578.6831151400011" y="429.0" text-anchor="middle" font-size="10" fill="#0f172a">0.540s</text>
<rect x="676.34" y="400.00" width="128.79" height="36.00" fill="#22c55e" stroke="#ffffff" stroke-width="0.5"/>
<text x="740.7379889249002" y="416.0" text-anchor="middle" font-size="10" fill="#0f172a">wait-recv</text>
<text x="740.7379889249002" y="429.0" text-anchor="middle" font-size="10" fill="#0f172a">0.356s</text>
<rect x="805.14" y="400.00" width="0.68" height="36.00" fill="#16a34a" stroke="#ffffff" stroke-width="0.5"/>
<rect x="805.81" y="400.00" width="194.19" height="36.00" fill="#a3a3a3" stroke="#ffffff" stroke-width="0.5"/>
<text x="902.9044209291636" y="416.0" text-anchor="middle" font-size="10" fill="#0f172a">post-comm</text>
<text x="902.9044209291636" y="429.0" text-anchor="middle" font-size="10" fill="#0f172a">0.537s</text>
<text x="1007.9984969835234" y="422.0" font-size="11" fill="#374151">with compute  2.176s</text>
<rect x="220.00" y="442.00" width="174.43" height="36.00" fill="#94a3b8" stroke="#ffffff" stroke-width="0.5"/>
<text x="307.2168803668122" y="458.0" text-anchor="middle" font-size="10" fill="#0f172a">pre-comm</text>
<text x="307.2168803668122" y="471.0" text-anchor="middle" font-size="10" fill="#0f172a">0.482s</text>
<rect x="394.43" y="442.00" width="0.04" height="36.00" fill="#38bdf8" stroke="#ffffff" stroke-width="0.5"/>
<rect x="394.48" y="442.00" width="88.05" height="36.00" fill="#0ea5e9" stroke="#ffffff" stroke-width="0.5"/>
<text x="438.50219098414215" y="458.0" text-anchor="middle" font-size="10" fill="#0f172a">post-send</text>
<text x="438.50219098414215" y="471.0" text-anchor="middle" font-size="10" fill="#0f172a">0.243s</text>
<rect x="482.53" y="442.00" width="128.23" height="36.00" fill="#22c55e" stroke="#ffffff" stroke-width="0.5"/>
<text x="546.6393473706029" y="458.0" text-anchor="middle" font-size="10" fill="#0f172a">wait-recv</text>
<text x="546.6393473706029" y="471.0" text-anchor="middle" font-size="10" fill="#0f172a">0.355s</text>
<rect x="610.75" y="442.00" width="0.57" height="36.00" fill="#16a34a" stroke="#ffffff" stroke-width="0.5"/>
<rect x="611.33" y="442.00" width="191.82" height="36.00" fill="#a3a3a3" stroke="#ffffff" stroke-width="0.5"/>
<text x="707.2340090435372" y="458.0" text-anchor="middle" font-size="10" fill="#0f172a">post-comm</text>
<text x="707.2340090435372" y="471.0" text-anchor="middle" font-size="10" fill="#0f172a">0.530s</text>
<text x="811.1423459832164" y="464.0" font-size="11" fill="#374151">no midcomm    1.620s</text>
<rect x="220.00" y="534.00" width="14.00" height="14.00" fill="#94a3b8" stroke="#ffffff" stroke-width="0.5"/>
<text x="240" y="546" font-size="12">pre-comm</text>
<rect x="335.00" y="534.00" width="14.00" height="14.00" fill="#38bdf8" stroke="#ffffff" stroke-width="0.5"/>
<text x="355" y="546" font-size="12">post-recv</text>
<rect x="450.00" y="534.00" width="14.00" height="14.00" fill="#0ea5e9" stroke="#ffffff" stroke-width="0.5"/>
<text x="470" y="546" font-size="12">post-send</text>
<rect x="565.00" y="534.00" width="14.00" height="14.00" fill="#f97316" stroke="#ffffff" stroke-width="0.5"/>
<text x="585" y="546" font-size="12">mid-comm</text>
<rect x="680.00" y="534.00" width="14.00" height="14.00" fill="#22c55e" stroke="#ffffff" stroke-width="0.5"/>
<text x="700" y="546" font-size="12">wait-recv</text>
<rect x="795.00" y="534.00" width="14.00" height="14.00" fill="#16a34a" stroke="#ffffff" stroke-width="0.5"/>
<text x="815" y="546" font-size="12">wait-send</text>
<rect x="910.00" y="534.00" width="14.00" height="14.00" fill="#a3a3a3" stroke="#ffffff" stroke-width="0.5"/>
<text x="930" y="546" font-size="12">post-comm</text>
<text x="220" y="574" font-size="11" fill="#6b7280">paper overhead ratio on overlap window: for mpi rows, comm-window = wait-recv(mpi) − wait-recv(mock), measured-window = mid-comm(with) + residual wait-recv(with). 0 = perfect overlap, 1 = serialized.</text>
</svg>