<svg xmlns="http://www.w3.org/2000/svg" width="1240" height="638">
<style>text{font-family:-apple-system,Segoe UI,Roboto,sans-serif;fill:#111827;}</style>
<text x="620.0" y="36" text-anchor="middle" font-size="20" font-weight="700">cm4_inter / run_2_samll_mess_inter / case 07 (async1_c4_testall)</text>
<text x="620.0" y="62" text-anchor="middle" font-size="13" fill="#4b5563">size 512_512_512  |  cutoff 500000  |  num_cycles 5</text>
<line x1="220.0" y1="92" x2="220.0" y2="488" stroke="#e5e7eb" stroke-dasharray="4 4"/>
<text x="220.0" y="506" text-anchor="middle" font-size="12">0.000s</text>
<line x1="412.0" y1="92" x2="412.0" y2="488" stroke="#e5e7eb" stroke-dasharray="4 4"/>
<text x="412.0" y="506" text-anchor="middle" font-size="12">0.760s</text>
<line x1="604.0" y1="92" x2="604.0" y2="488" stroke="#e5e7eb" stroke-dasharray="4 4"/>
<text x="604.0" y="506" text-anchor="middle" font-size="12">1.520s</text>
<line x1="796.0" y1="92" x2="796.0" y2="488" stroke="#e5e7eb" stroke-dasharray="4 4"/>
<text x="796.0" y="506" text-anchor="middle" font-size="12">2.280s</text>
<line x1="988.0" y1="92" x2="988.0" y2="488" stroke="#e5e7eb" stroke-dasharray="4 4"/>
<text x="988.0" y="506" text-anchor="middle" font-size="12">3.039s</text>
<line x1="1180.0" y1="92" x2="1180.0" y2="488" stroke="#e5e7eb" stroke-dasharray="4 4"/>
<text x="1180.0" y="506" text-anchor="middle" font-size="12">3.799s</text>
<line x1="220" y1="488" x2="1180" y2="488" stroke="#374151"/>
<text x="208" y="129.0" text-anchor="end" font-size="14" font-weight="700">mock seq</text>
<text x="208" y="147.0" text-anchor="end" font-size="11" fill="#374151">compute 1.084s  |  comm-window 0.246s  |  fixed mock 0.000s</text>
<text x="208" y="163.0" text-anchor="end" font-size="11" fill="#6b7280">measured-window 1.379s | ideal 1.084s / serial 1.330s | serialized Δ 0.246s → ratio 1.200x</text>
<rect x="220.00" y="100.00" width="179.30" height="36.00" fill="#94a3b8" stroke="#ffffff" stroke-width="0.5"/>
<text x="309.6524254697103" y="116.0" text-anchor="middle" font-size="10" fill="#0f172a">pre-comm</text>
<text x="309.6524254697103" y="129.0" text-anchor="middle" font-size="10" fill="#0f172a">0.710s</text>
<rect x="399.30" y="100.00" width="0.06" height="36.00" fill="#38bdf8" stroke="#ffffff" stroke-width="0.5"/>
<rect x="399.37" y="100.00" width="106.16" height="36.00" fill="#0ea5e9" stroke="#ffffff" stroke-width="0.5"/>
<text x="452.4458151688792" y="116.0" text-anchor="middle" font-size="10" fill="#0f172a">post-send</text>
<text x="452.4458151688792" y="129.0" text-anchor="middle" font-size="10" fill="#0f172a">0.420s</text>
<rect x="505.52" y="100.00" width="274.00" height="36.00" fill="#f97316" stroke="#ffffff" stroke-width="0.5"/>
<text x="642.5229443592232" y="116.0" text-anchor="middle" font-size="10" fill="#0f172a">mid-comm</text>
<text x="642.5229443592232" y="129.0" text-anchor="middle" font-size="10" fill="#0f172a">1.084s</text>
<rect x="779.52" y="100.00" width="74.58" height="36.00" fill="#22c55e" stroke="#ffffff" stroke-width="0.5"/>
<text x="816.8096528992386" y="116.0" text-anchor="middle" font-size="10" fill="#0f172a">wait-recv</text>
<text x="816.8096528992386" y="129.0" text-anchor="middle" font-size="10" fill="#0f172a">0.295s</text>
<rect x="854.10" y="100.00" width="2.10" height="36.00" fill="#16a34a" stroke="#ffffff" stroke-width="0.5"/>
<rect x="856.20" y="100.00" width="197.26" height="36.00" fill="#a3a3a3" stroke="#ffffff" stroke-width="0.5"/>
<text x="954.8296491300475" y="116.0" text-anchor="middle" font-size="10" fill="#0f172a">post-comm</text>
<text x="954.8296491300475" y="129.0" text-anchor="middle" font-size="10" fill="#0f172a">0.781s</text>
<text x="1061.4603584670178" y="122.0" font-size="11" fill="#374151">with compute  3.507s</text>
<rect x="220.00" y="142.00" width="145.23" height="36.00" fill="#94a3b8" stroke="#ffffff" stroke-width="0.5"/>
<text x="292.61271093364746" y="158.0" text-anchor="middle" font-size="10" fill="#0f172a">pre-comm</text>
<text x="292.61271093364746" y="171.0" text-anchor="middle" font-size="10" fill="#0f172a">0.575s</text>
<rect x="365.23" y="142.00" width="0.23" height="36.00" fill="#38bdf8" stroke="#ffffff" stroke-width="0.5"/>
<rect x="365.45" y="142.00" width="78.28" height="36.00" fill="#0ea5e9" stroke="#ffffff" stroke-width="0.5"/>
<text x="404.5932554933051" y="158.0" text-anchor="middle" font-size="10" fill="#0f172a">post-send</text>
<text x="404.5932554933051" y="171.0" text-anchor="middle" font-size="10" fill="#0f172a">0.310s</text>
<rect x="443.73" y="142.00" width="62.13" height="36.00" fill="#22c55e" stroke="#ffffff" stroke-width="0.5"/>
<text x="474.7960312320793" y="158.0" text-anchor="middle" font-size="10" fill="#0f172a">wait-recv</text>
<text x="474.7960312320793" y="171.0" text-anchor="middle" font-size="10" fill="#0f172a">0.246s</text>
<rect x="505.86" y="142.00" width="1.03" height="36.00" fill="#16a34a" stroke="#ffffff" stroke-width="0.5"/>
<rect x="506.89" y="142.00" width="155.83" height="36.00" fill="#a3a3a3" stroke="#ffffff" stroke-width="0.5"/>
<text x="584.8025422440123" y="158.0" text-anchor="middle" font-size="10" fill="#0f172a">post-comm</text>
<text x="584.8025422440123" y="171.0" text-anchor="middle" font-size="10" fill="#0f172a">0.617s</text>
<text x="670.7171382749752" y="164.0" font-size="11" fill="#374151">no midcomm    1.888s</text>
<text x="208" y="229.0" text-anchor="end" font-size="14" font-weight="700">mock omp</text>
<text x="208" y="247.0" text-anchor="end" font-size="11" fill="#374151">compute 0.275s  |  comm-window 0.149s  |  fixed mock 0.000s</text>
<text x="208" y="263.0" text-anchor="end" font-size="11" fill="#6b7280">measured-window 0.450s | ideal 0.275s / serial 0.424s | serialized Δ 0.149s → ratio 1.171x</text>
<rect x="220.00" y="200.00" width="59.20" height="36.00" fill="#94a3b8" stroke="#ffffff" stroke-width="0.5"/>
<text x="249.59825765193236" y="216.0" text-anchor="middle" font-size="10" fill="#0f172a">pre-comm</text>
<text x="249.59825765193236" y="229.0" text-anchor="middle" font-size="10" fill="#0f172a">0.234s</text>
<rect x="279.20" y="200.00" width="0.05" height="36.00" fill="#38bdf8" stroke="#ffffff" stroke-width="0.5"/>
<rect x="279.24" y="200.00" width="54.44" height="36.00" fill="#0ea5e9" stroke="#ffffff" stroke-width="0.5"/>
<text x="306.464294004283" y="216.0" text-anchor="middle" font-size="10" fill="#0f172a">post-send</text>
<text x="306.464294004283" y="229.0" text-anchor="middle" font-size="10" fill="#0f172a">0.215s</text>
<rect x="333.69" y="200.00" width="69.56" height="36.00" fill="#f97316" stroke="#ffffff" stroke-width="0.5"/>
<text x="368.4679530739638" y="216.0" text-anchor="middle" font-size="10" fill="#0f172a">mid-comm</text>
<text x="368.4679530739638" y="229.0" text-anchor="middle" font-size="10" fill="#0f172a">0.275s</text>
<rect x="403.25" y="200.00" width="44.04" height="36.00" fill="#22c55e" stroke="#ffffff" stroke-width="0.5"/>
<text x="425.267447720439" y="216.0" text-anchor="middle" font-size="10" fill="#0f172a">wait-recv</text>
<text x="425.267447720439" y="229.0" text-anchor="middle" font-size="10" fill="#0f172a">0.174s</text>
<rect x="447.29" y="200.00" width="1.61" height="36.00" fill="#16a34a" stroke="#ffffff" stroke-width="0.5"/>
<rect x="448.89" y="200.00" width="64.79" height="36.00" fill="#a3a3a3" stroke="#ffffff" stroke-width="0.5"/>
<text x="481.28841382054736" y="216.0" text-anchor="middle" font-size="10" fill="#0f172a">post-comm</text>
<text x="481.28841382054736" y="229.0" text-anchor="middle" font-size="10" fill="#0f172a">0.256s</text>
<text x="521.6836460823375" y="222.0" font-size="11" fill="#374151">with compute  1.169s</text>
<rect x="220.00" y="242.00" width="64.88" height="36.00" fill="#94a3b8" stroke="#ffffff" stroke-width="0.5"/>
<text x="252.43819501901976" y="258.0" text-anchor="middle" font-size="10" fill="#0f172a">pre-comm</text>
<text x="252.43819501901976" y="271.0" text-anchor="middle" font-size="10" fill="#0f172a">0.257s</text>
<rect x="284.88" y="242.00" width="0.16" height="36.00" fill="#38bdf8" stroke="#ffffff" stroke-width="0.5"/>
<rect x="285.03" y="242.00" width="49.08" height="36.00" fill="#0ea5e9" stroke="#ffffff" stroke-width="0.5"/>
<text x="309.574123347853" y="258.0" text-anchor="middle" font-size="10" fill="#0f172a">post-send</text>
<text x="309.574123347853" y="271.0" text-anchor="middle" font-size="10" fill="#0f172a">0.194s</text>
<rect x="334.11" y="242.00" width="37.60" height="36.00" fill="#22c55e" stroke="#ffffff" stroke-width="0.5"/>
<rect x="371.71" y="242.00" width="2.09" height="36.00" fill="#16a34a" stroke="#ffffff" stroke-width="0.5"/>
<rect x="373.81" y="242.00" width="69.90" height="36.00" fill="#a3a3a3" stroke="#ffffff" stroke-width="0.5"/>
<text x="408.7599070105039" y="258.0" text-anchor="middle" font-size="10" fill="#0f172a">post-comm</text>
<text x="408.7599070105039" y="271.0" text-anchor="middle" font-size="10" fill="#0f172a">0.277s</text>
<text x="451.7099732530668" y="264.0" font-size="11" fill="#374151">no midcomm    0.942s</text>
<text x="208" y="329.0" text-anchor="end" font-size="14" font-weight="700">mpi  seq</text>
<text x="208" y="347.0" text-anchor="end" font-size="11" fill="#374151">compute 1.283s  |  comm-window 0.290s  |  fixed mock 0.246s</text>
<text x="208" y="363.0" text-anchor="end" font-size="11" fill="#6b7280">measured-window 1.286s | ideal 1.283s / serial 1.573s | serialized Δ 0.290s → ratio 0.011x</text>
<rect x="220.00" y="300.00" width="169.71" height="36.00" fill="#94a3b8" stroke="#ffffff" stroke-width="0.5"/>
<text x="304.85700830565315" y="316.0" text-anchor="middle" font-size="10" fill="#0f172a">pre-comm</text>
<text x="304.85700830565315" y="329.0" text-anchor="middle" font-size="10" fill="#0f172a">0.672s</text>
<rect x="389.71" y="300.00" width="0.06" height="36.00" fill="#38bdf8" stroke="#ffffff" stroke-width="0.5"/>
<rect x="389.78" y="300.00" width="98.77" height="36.00" fill="#0ea5e9" stroke="#ffffff" stroke-width="0.5"/>
<text x="439.16121213161136" y="316.0" text-anchor="middle" font-size="10" fill="#0f172a">post-send</text>
<text x="439.16121213161136" y="329.0" text-anchor="middle" font-size="10" fill="#0f172a">0.391s</text>
<rect x="488.55" y="300.00" width="324.23" height="36.00" fill="#f97316" stroke="#ffffff" stroke-width="0.5"/>
<text x="650.6593575502708" y="316.0" text-anchor="middle" font-size="10" fill="#0f172a">mid-comm</text>
<text x="650.6593575502708" y="329.0" text-anchor="middle" font-size="10" fill="#0f172a">1.283s</text>
<rect x="812.77" y="300.00" width="75.40" height="36.00" fill="#22c55e" stroke="#ffffff" stroke-width="0.5"/>
<text x="850.472522440397" y="316.0" text-anchor="middle" font-size="10" fill="#0f172a">wait-recv</text>
<text x="850.472522440397" y="329.0" text-anchor="middle" font-size="10" fill="#0f172a">0.298s</text>
<rect x="888.17" y="300.00" width="1.96" height="36.00" fill="#16a34a" stroke="#ffffff" stroke-width="0.5"/>
<rect x="890.13" y="300.00" width="187.01" height="36.00" fill="#a3a3a3" stroke="#ffffff" stroke-width="0.5"/>
<text x="983.6363499915774" y="316.0" text-anchor="middle" font-size="10" fill="#0f172a">post-comm</text>
<text x="983.6363499915774" y="329.0" text-anchor="middle" font-size="10" fill="#0f172a">0.740s</text>
<text x="1085.142857142857" y="322.0" font-size="11" fill="#374151">with compute  3.400s</text>
<rect x="220.00" y="342.00" width="130.01" height="36.00" fill="#94a3b8" stroke="#ffffff" stroke-width="0.5"/>
<text x="285.00445962255463" y="358.0" text-anchor="middle" font-size="10" fill="#0f172a">pre-comm</text>
<text x="285.00445962255463" y="371.0" text-anchor="middle" font-size="10" fill="#0f172a">0.515s</text>
<rect x="350.01" y="342.00" width="0.20" height="36.00" fill="#38bdf8" stroke="#ffffff" stroke-width="0.5"/>
<rect x="350.21" y="342.00" width="69.01" height="36.00" fill="#0ea5e9" stroke="#ffffff" stroke-width="0.5"/>
<text x="384.7151329432779" y="358.0" text-anchor="middle" font-size="10" fill="#0f172a">post-send</text>
<text x="384.7151329432779" y="371.0" text-anchor="middle" font-size="10" fill="#0f172a">0.273s</text>
<rect x="419.22" y="342.00" width="135.46" height="36.00" fill="#22c55e" stroke="#ffffff" stroke-width="0.5"/>
<text x="486.95394384149677" y="358.0" text-anchor="middle" font-size="10" fill="#0f172a">wait-recv</text>
<text x="486.95394384149677" y="371.0" text-anchor="middle" font-size="10" fill="#0f172a">0.536s</text>
<rect x="554.69" y="342.00" width="0.87" height="36.00" fill="#16a34a" stroke="#ffffff" stroke-width="0.5"/>
<rect x="555.55" y="342.00" width="144.44" height="36.00" fill="#a3a3a3" stroke="#ffffff" stroke-width="0.5"/>
<text x="627.7707213810253" y="358.0" text-anchor="middle" font-size="10" fill="#0f172a">post-comm</text>
<text x="627.7707213810253" y="371.0" text-anchor="middle" font-size="10" fill="#0f172a">0.572s</text>
<text x="707.9885970521493" y="364.0" font-size="11" fill="#374151">no midcomm    1.922s</text>
<text x="208" y="429.0" text-anchor="end" font-size="14" font-weight="700">mpi  omp</text>
<text x="208" y="447.0" text-anchor="end" font-size="11" fill="#374151">compute 0.281s  |  comm-window 0.248s  |  fixed mock 0.149s</text>
<text x="208" y="463.0" text-anchor="end" font-size="11" fill="#6b7280">measured-window 0.296s | ideal 0.281s / serial 0.529s | serialized Δ 0.248s → ratio 0.058x</text>
<rect x="220.00" y="400.00" width="59.16" height="36.00" fill="#94a3b8" stroke="#ffffff" stroke-width="0.5"/>
<text x="249.58186432566362" y="416.0" text-anchor="middle" font-size="10" fill="#0f172a">pre-comm</text>
<text x="249.58186432566362" y="429.0" text-anchor="middle" font-size="10" fill="#0f172a">0.234s</text>
<rect x="279.16" y="400.00" width="0.06" height="36.00" fill="#38bdf8" stroke="#ffffff" stroke-width="0.5"/>
<rect x="279.22" y="400.00" width="54.71" height="36.00" fill="#0ea5e9" stroke="#ffffff" stroke-width="0.5"/>
<text x="306.579119934017" y="416.0" text-anchor="middle" font-size="10" fill="#0f172a">post-send</text>
<text x="306.579119934017" y="429.0" text-anchor="middle" font-size="10" fill="#0f172a">0.217s</text>
<rect x="333.93" y="400.00" width="71.08" height="36.00" fill="#f97316" stroke="#ffffff" stroke-width="0.5"/>
<text x="369.474292065361" y="416.0" text-anchor="middle" font-size="10" fill="#0f172a">mid-comm</text>
<text x="369.474292065361" y="429.0" text-anchor="middle" font-size="10" fill="#0f172a">0.281s</text>
<rect x="405.01" y="400.00" width="47.69" height="36.00" fill="#22c55e" stroke="#ffffff" stroke-width="0.5"/>
<text x="428.85732338482404" y="416.0" text-anchor="middle" font-size="10" fill="#0f172a">wait-recv</text>
<text x="428.85732338482404" y="429.0" text-anchor="middle" font-size="10" fill="#0f172a">0.189s</text>
<rect x="452.70" y="400.00" width="1.60" height="36.00" fill="#16a34a" stroke="#ffffff" stroke-width="0.5"/>
<rect x="454.30" y="400.00" width="64.91" height="36.00" fill="#a3a3a3" stroke="#ffffff" stroke-width="0.5"/>
<text x="486.7497300327983" y="416.0" text-anchor="middle" font-size="10" fill="#0f172a">post-comm</text>
<text x="486.7497300327983" y="429.0" text-anchor="middle" font-size="10" fill="#0f172a">0.257s</text>
<text x="527.2033436602559" y="422.0" font-size="11" fill="#374151">with compute  1.194s</text>
<rect x="220.00" y="442.00" width="59.09" height="36.00" fill="#94a3b8" stroke="#ffffff" stroke-width="0.5"/>
<text x="249.54317124945788" y="458.0" text-anchor="middle" font-size="10" fill="#0f172a">pre-comm</text>
<text x="249.54317124945788" y="471.0" text-anchor="middle" font-size="10" fill="#0f172a">0.234s</text>
<rect x="279.09" y="442.00" width="0.16" height="36.00" fill="#38bdf8" stroke="#ffffff" stroke-width="0.5"/>
<rect x="279.25" y="442.00" width="57.55" height="36.00" fill="#0ea5e9" stroke="#ffffff" stroke-width="0.5"/>
<text x="308.0243232599428" y="458.0" text-anchor="middle" font-size="10" fill="#0f172a">post-send</text>
<text x="308.0243232599428" y="471.0" text-anchor="middle" font-size="10" fill="#0f172a">0.228s</text>
<rect x="336.80" y="442.00" width="100.25" height="36.00" fill="#22c55e" stroke="#ffffff" stroke-width="0.5"/>
<text x="386.9238347045185" y="458.0" text-anchor="middle" font-size="10" fill="#0f172a">wait-recv</text>
<text x="386.9238347045185" y="471.0" text-anchor="middle" font-size="10" fill="#0f172a">0.397s</text>
<rect x="437.05" y="442.00" width="1.62" height="36.00" fill="#16a34a" stroke="#ffffff" stroke-width="0.5"/>
<rect x="438.67" y="442.00" width="65.99" height="36.00" fill="#a3a3a3" stroke="#ffffff" stroke-width="0.5"/>
<text x="471.664796630114" y="458.0" text-anchor="middle" font-size="10" fill="#0f172a">post-comm</text>
<text x="471.664796630114" y="471.0" text-anchor="middle" font-size="10" fill="#0f172a">0.261s</text>
<text x="512.6596528129164" y="464.0" font-size="11" fill="#374151">no midcomm    1.137s</text>
<rect x="220.00" y="534.00" width="14.00" height="14.00" fill="#94a3b8" stroke="#ffffff" stroke-width="0.5"/>
<text x="240" y="546" font-size="12">pre-comm</text>
<rect x="335.00" y="534.00" width="14.00" height="14.00" fill="#38bdf8" stroke="#ffffff" stroke-width="0.5"/>
<text x="355" y="546" font-size="12">post-recv</text>
<rect x="450.00" y="534.00" width="14.00" height="14.00" fill="#0ea5e9" stroke="#ffffff" stroke-width="0.5"/>
<text x="470" y="546" font-size="12">post-send</text>
<rect x="565.00" y="534.00" width="14.00" height="14.00" fill="#f97316" stroke="#ffffff" stroke-width="0.5"/>
<text x="585" y="546" font-size="12">mid-comm</text>
<rect x="680.00" y="534.00" width="14.00" height="14.00" fill="#22c55e" stroke="#ffffff" stroke-width="0.5"/>
<text x="700" y="546" font-size="12">wait-recv</text>
<rect x="795.00" y="534.00" width="14.00" height="14.00" fill="#16a34a" stroke="#ffffff" stroke-width="0.5"/>
<text x="815" y="546" font-size="12">wait-send</text>
<rect x="910.00" y="534.00" width="14.00" height="14.00" fill="#a3a3a3" stroke="#ffffff" stroke-width="0.5"/>
<text x="930" y="546" font-size="12">post-comm</text>
<text x="220" y="574" font-size="11" fill="#6b7280">paper overhead ratio on overlap window: for mpi rows, comm-window = wait-recv(mpi) − wait-recv(mock), measured-window = mid-comm(with) + residual wait-recv(with). 0 = perfect overlap, 1 = serialized.</text>
</svg>