<svg xmlns="http://www.w3.org/2000/svg" width="1240" height="638">
<style>text{font-family:-apple-system,Segoe UI,Roboto,sans-serif;fill:#111827;}</style>
<text x="620.0" y="36" text-anchor="middle" font-size="20" font-weight="700">cm4_inter / run_1_big_mes_inter / case 01 (async0_c4_waitall)</text>
<text x="620.0" y="62" text-anchor="middle" font-size="13" fill="#4b5563">size 512_512_512  |  cutoff 250  |  num_cycles 5</text>
<line x1="220.0" y1="92" x2="220.0" y2="488" stroke="#e5e7eb" stroke-dasharray="4 4"/>
<text x="220.0" y="506" text-anchor="middle" font-size="12">0.000s</text>
<line x1="412.0" y1="92" x2="412.0" y2="488" stroke="#e5e7eb" stroke-dasharray="4 4"/>
<text x="412.0" y="506" text-anchor="middle" font-size="12">0.492s</text>
<line x1="604.0" y1="92" x2="604.0" y2="488" stroke="#e5e7eb" stroke-dasharray="4 4"/>
<text x="604.0" y="506" text-anchor="middle" font-size="12">0.983s</text>
<line x1="796.0" y1="92" x2="796.0" y2="488" stroke="#e5e7eb" stroke-dasharray="4 4"/>
<text x="796.0" y="506" text-anchor="middle" font-size="12">1.475s</text>
<line x1="988.0" y1="92" x2="988.0" y2="488" stroke="#e5e7eb" stroke-dasharray="4 4"/>
<text x="988.0" y="506" text-anchor="middle" font-size="12">1.966s</text>
<line x1="1180.0" y1="92" x2="1180.0" y2="488" stroke="#e5e7eb" stroke-dasharray="4 4"/>
<text x="1180.0" y="506" text-anchor="middle" font-size="12">2.458s</text>
<line x1="220" y1="488" x2="1180" y2="488" stroke="#374151"/>
<text x="208" y="129.0" text-anchor="end" font-size="14" font-weight="700">mock seq</text>
<text x="208" y="147.0" text-anchor="end" font-size="11" fill="#374151">compute 0.542s  |  comm-window 0.230s  |  fixed mock 0.000s</text>
<text x="208" y="163.0" text-anchor="end" font-size="11" fill="#6b7280">measured-window 0.759s | ideal 0.542s / serial 0.772s | serialized Δ 0.230s → ratio 0.942x</text>
<rect x="220.00" y="100.00" width="192.34" height="36.00" fill="#94a3b8" stroke="#ffffff" stroke-width="0.5"/>
<text x="316.16953398524726" y="116.0" text-anchor="middle" font-size="10" fill="#0f172a">pre-comm</text>
<text x="316.16953398524726" y="129.0" text-anchor="middle" font-size="10" fill="#0f172a">0.492s</text>
<rect x="412.34" y="100.00" width="0.18" height="36.00" fill="#38bdf8" stroke="#ffffff" stroke-width="0.5"/>
<rect x="412.52" y="100.00" width="94.53" height="36.00" fill="#0ea5e9" stroke="#ffffff" stroke-width="0.5"/>
<text x="459.7793612937942" y="116.0" text-anchor="middle" font-size="10" fill="#0f172a">post-send</text>
<text x="459.7793612937942" y="129.0" text-anchor="middle" font-size="10" fill="#0f172a">0.242s</text>
<rect x="507.04" y="100.00" width="211.83" height="36.00" fill="#f97316" stroke="#ffffff" stroke-width="0.5"/>
<text x="612.9594516930964" y="116.0" text-anchor="middle" font-size="10" fill="#0f172a">mid-comm</text>
<text x="612.9594516930964" y="129.0" text-anchor="middle" font-size="10" fill="#0f172a">0.542s</text>
<rect x="718.88" y="100.00" width="84.49" height="36.00" fill="#22c55e" stroke="#ffffff" stroke-width="0.5"/>
<text x="761.1195488497074" y="116.0" text-anchor="middle" font-size="10" fill="#0f172a">wait-recv</text>
<text x="761.1195488497074" y="129.0" text-anchor="middle" font-size="10" fill="#0f172a">0.216s</text>
<rect x="803.36" y="100.00" width="1.24" height="36.00" fill="#16a34a" stroke="#ffffff" stroke-width="0.5"/>
<rect x="804.61" y="100.00" width="210.17" height="36.00" fill="#a3a3a3" stroke="#ffffff" stroke-width="0.5"/>
<text x="909.6898195026492" y="116.0" text-anchor="middle" font-size="10" fill="#0f172a">post-comm</text>
<text x="909.6898195026492" y="129.0" text-anchor="middle" font-size="10" fill="#0f172a">0.538s</text>
<text x="1022.7740969935268" y="122.0" font-size="11" fill="#374151">with compute  2.055s</text>
<rect x="220.00" y="142.00" width="198.31" height="36.00" fill="#94a3b8" stroke="#ffffff" stroke-width="0.5"/>
<text x="319.1566802824248" y="158.0" text-anchor="middle" font-size="10" fill="#0f172a">pre-comm</text>
<text x="319.1566802824248" y="171.0" text-anchor="middle" font-size="10" fill="#0f172a">0.508s</text>
<rect x="418.31" y="142.00" width="0.07" height="36.00" fill="#38bdf8" stroke="#ffffff" stroke-width="0.5"/>
<rect x="418.38" y="142.00" width="104.17" height="36.00" fill="#0ea5e9" stroke="#ffffff" stroke-width="0.5"/>
<text x="470.46908219895766" y="158.0" text-anchor="middle" font-size="10" fill="#0f172a">post-send</text>
<text x="470.46908219895766" y="171.0" text-anchor="middle" font-size="10" fill="#0f172a">0.267s</text>
<rect x="522.56" y="142.00" width="89.74" height="36.00" fill="#22c55e" stroke="#ffffff" stroke-width="0.5"/>
<text x="567.4233976912719" y="158.0" text-anchor="middle" font-size="10" fill="#0f172a">wait-recv</text>
<text x="567.4233976912719" y="171.0" text-anchor="middle" font-size="10" fill="#0f172a">0.230s</text>
<rect x="612.29" y="142.00" width="1.41" height="36.00" fill="#16a34a" stroke="#ffffff" stroke-width="0.5"/>
<rect x="613.70" y="142.00" width="218.74" height="36.00" fill="#a3a3a3" stroke="#ffffff" stroke-width="0.5"/>
<text x="723.067890401967" y="158.0" text-anchor="middle" font-size="10" fill="#0f172a">post-comm</text>
<text x="723.067890401967" y="171.0" text-anchor="middle" font-size="10" fill="#0f172a">0.560s</text>
<text x="840.4356541184159" y="164.0" font-size="11" fill="#374151">no midcomm    1.680s</text>
<text x="208" y="229.0" text-anchor="end" font-size="14" font-weight="700">mock omp</text>
<text x="208" y="247.0" text-anchor="end" font-size="11" fill="#374151">compute 0.213s  |  comm-window 0.155s  |  fixed mock 0.000s</text>
<text x="208" y="263.0" text-anchor="end" font-size="11" fill="#6b7280">measured-window 0.343s | ideal 0.213s / serial 0.367s | serialized Δ 0.155s → ratio 0.841x</text>
<rect x="220.00" y="200.00" width="71.85" height="36.00" fill="#94a3b8" stroke="#ffffff" stroke-width="0.5"/>
<text x="255.9245779556598" y="216.0" text-anchor="middle" font-size="10" fill="#0f172a">pre-comm</text>
<text x="255.9245779556598" y="229.0" text-anchor="middle" font-size="10" fill="#0f172a">0.184s</text>
<rect x="291.85" y="200.00" width="0.51" height="36.00" fill="#38bdf8" stroke="#ffffff" stroke-width="0.5"/>
<rect x="292.36" y="200.00" width="64.83" height="36.00" fill="#0ea5e9" stroke="#ffffff" stroke-width="0.5"/>
<text x="324.7744137225403" y="216.0" text-anchor="middle" font-size="10" fill="#0f172a">post-send</text>
<text x="324.7744137225403" y="229.0" text-anchor="middle" font-size="10" fill="#0f172a">0.166s</text>
<rect x="357.19" y="200.00" width="83.03" height="36.00" fill="#f97316" stroke="#ffffff" stroke-width="0.5"/>
<text x="398.70635220474435" y="216.0" text-anchor="middle" font-size="10" fill="#0f172a">mid-comm</text>
<text x="398.70635220474435" y="229.0" text-anchor="middle" font-size="10" fill="#0f172a">0.213s</text>
<rect x="440.22" y="200.00" width="50.81" height="36.00" fill="#22c55e" stroke="#ffffff" stroke-width="0.5"/>
<text x="465.6283333786529" y="216.0" text-anchor="middle" font-size="10" fill="#0f172a">wait-recv</text>
<text x="465.6283333786529" y="229.0" text-anchor="middle" font-size="10" fill="#0f172a">0.130s</text>
<rect x="491.04" y="200.00" width="1.57" height="36.00" fill="#16a34a" stroke="#ffffff" stroke-width="0.5"/>
<rect x="492.61" y="200.00" width="78.90" height="36.00" fill="#a3a3a3" stroke="#ffffff" stroke-width="0.5"/>
<text x="532.062078433521" y="216.0" text-anchor="middle" font-size="10" fill="#0f172a">post-comm</text>
<text x="532.062078433521" y="229.0" text-anchor="middle" font-size="10" fill="#0f172a">0.202s</text>
<text x="579.5143963095768" y="222.0" font-size="11" fill="#374151">with compute  0.917s</text>
<rect x="220.00" y="242.00" width="77.98" height="36.00" fill="#94a3b8" stroke="#ffffff" stroke-width="0.5"/>
<text x="258.9921306292314" y="258.0" text-anchor="middle" font-size="10" fill="#0f172a">pre-comm</text>
<text x="258.9921306292314" y="271.0" text-anchor="middle" font-size="10" fill="#0f172a">0.200s</text>
<rect x="297.98" y="242.00" width="0.23" height="36.00" fill="#38bdf8" stroke="#ffffff" stroke-width="0.5"/>
<rect x="298.22" y="242.00" width="69.35" height="36.00" fill="#0ea5e9" stroke="#ffffff" stroke-width="0.5"/>
<text x="332.88993233902454" y="258.0" text-anchor="middle" font-size="10" fill="#0f172a">post-send</text>
<text x="332.88993233902454" y="271.0" text-anchor="middle" font-size="10" fill="#0f172a">0.178s</text>
<rect x="367.56" y="242.00" width="60.44" height="36.00" fill="#22c55e" stroke="#ffffff" stroke-width="0.5"/>
<text x="397.7809298515984" y="258.0" text-anchor="middle" font-size="10" fill="#0f172a">wait-recv</text>
<text x="397.7809298515984" y="271.0" text-anchor="middle" font-size="10" fill="#0f172a">0.155s</text>
<rect x="428.00" y="242.00" width="2.71" height="36.00" fill="#16a34a" stroke="#ffffff" stroke-width="0.5"/>
<rect x="430.71" y="242.00" width="87.31" height="36.00" fill="#a3a3a3" stroke="#ffffff" stroke-width="0.5"/>
<text x="474.3682709454363" y="258.0" text-anchor="middle" font-size="10" fill="#0f172a">post-comm</text>
<text x="474.3682709454363" y="271.0" text-anchor="middle" font-size="10" fill="#0f172a">0.224s</text>
<text x="526.0253376186052" y="264.0" font-size="11" fill="#374151">no midcomm    0.828s</text>
<text x="208" y="329.0" text-anchor="end" font-size="14" font-weight="700">mpi  seq</text>
<text x="208" y="347.0" text-anchor="end" font-size="11" fill="#374151">compute 0.566s  |  comm-window 0.246s  |  fixed mock 0.230s</text>
<text x="208" y="363.0" text-anchor="end" font-size="11" fill="#6b7280">measured-window 0.706s | ideal 0.566s / serial 0.812s | serialized Δ 0.246s → ratio 0.571x</text>
<rect x="220.00" y="300.00" width="193.91" height="36.00" fill="#94a3b8" stroke="#ffffff" stroke-width="0.5"/>
<text x="316.95730084856956" y="316.0" text-anchor="middle" font-size="10" fill="#0f172a">pre-comm</text>
<text x="316.95730084856956" y="329.0" text-anchor="middle" font-size="10" fill="#0f172a">0.496s</text>
<rect x="413.91" y="300.00" width="0.05" height="36.00" fill="#38bdf8" stroke="#ffffff" stroke-width="0.5"/>
<rect x="413.97" y="300.00" width="90.12" height="36.00" fill="#0ea5e9" stroke="#ffffff" stroke-width="0.5"/>
<text x="459.0272214396003" y="316.0" text-anchor="middle" font-size="10" fill="#0f172a">post-send</text>
<text x="459.0272214396003" y="329.0" text-anchor="middle" font-size="10" fill="#0f172a">0.231s</text>
<rect x="504.09" y="300.00" width="220.90" height="36.00" fill="#f97316" stroke="#ffffff" stroke-width="0.5"/>
<text x="614.5359834681849" y="316.0" text-anchor="middle" font-size="10" fill="#0f172a">mid-comm</text>
<text x="614.5359834681849" y="329.0" text-anchor="middle" font-size="10" fill="#0f172a">0.566s</text>
<rect x="724.99" y="300.00" width="139.39" height="36.00" fill="#22c55e" stroke="#ffffff" stroke-width="0.5"/>
<text x="794.6830088360186" y="316.0" text-anchor="middle" font-size="10" fill="#0f172a">wait-recv</text>
<text x="794.6830088360186" y="329.0" text-anchor="middle" font-size="10" fill="#0f172a">0.357s</text>
<rect x="864.38" y="300.00" width="0.51" height="36.00" fill="#16a34a" stroke="#ffffff" stroke-width="0.5"/>
<rect x="864.89" y="300.00" width="212.25" height="36.00" fill="#a3a3a3" stroke="#ffffff" stroke-width="0.5"/>
<text x="971.0154725435275" y="316.0" text-anchor="middle" font-size="10" fill="#0f172a">post-comm</text>
<text x="971.0154725435275" y="329.0" text-anchor="middle" font-size="10" fill="#0f172a">0.543s</text>
<text x="1085.1428571428569" y="322.0" font-size="11" fill="#374151">with compute  2.222s</text>
<rect x="220.00" y="342.00" width="195.44" height="36.00" fill="#94a3b8" stroke="#ffffff" stroke-width="0.5"/>
<text x="317.71945536694335" y="358.0" text-anchor="middle" font-size="10" fill="#0f172a">pre-comm</text>
<text x="317.71945536694335" y="371.0" text-anchor="middle" font-size="10" fill="#0f172a">0.500s</text>
<rect x="415.44" y="342.00" width="0.06" height="36.00" fill="#38bdf8" stroke="#ffffff" stroke-width="0.5"/>
<rect x="415.50" y="342.00" width="100.99" height="36.00" fill="#0ea5e9" stroke="#ffffff" stroke-width="0.5"/>
<text x="465.99652731680675" y="358.0" text-anchor="middle" font-size="10" fill="#0f172a">post-send</text>
<text x="465.99652731680675" y="371.0" text-anchor="middle" font-size="10" fill="#0f172a">0.259s</text>
<rect x="516.49" y="342.00" width="185.96" height="36.00" fill="#22c55e" stroke="#ffffff" stroke-width="0.5"/>
<text x="609.4735458228362" y="358.0" text-anchor="middle" font-size="10" fill="#0f172a">wait-recv</text>
<text x="609.4735458228362" y="371.0" text-anchor="middle" font-size="10" fill="#0f172a">0.476s</text>
<rect x="702.45" y="342.00" width="0.66" height="36.00" fill="#16a34a" stroke="#ffffff" stroke-width="0.5"/>
<rect x="703.11" y="342.00" width="216.03" height="36.00" fill="#a3a3a3" stroke="#ffffff" stroke-width="0.5"/>
<text x="811.1272339041055" y="358.0" text-anchor="middle" font-size="10" fill="#0f172a">post-comm</text>
<text x="811.1272339041055" y="371.0" text-anchor="middle" font-size="10" fill="#0f172a">0.553s</text>
<text x="927.1442982317109" y="364.0" font-size="11" fill="#374151">no midcomm    1.816s</text>
<text x="208" y="429.0" text-anchor="end" font-size="14" font-weight="700">mpi  omp</text>
<text x="208" y="447.0" text-anchor="end" font-size="11" fill="#374151">compute 0.227s  |  comm-window 0.200s  |  fixed mock 0.155s</text>
<text x="208" y="463.0" text-anchor="end" font-size="11" fill="#6b7280">measured-window 0.407s | ideal 0.227s / serial 0.426s | serialized Δ 0.200s → ratio 0.903x</text>
<rect x="220.00" y="400.00" width="77.61" height="36.00" fill="#94a3b8" stroke="#ffffff" stroke-width="0.5"/>
<text x="258.80360982507545" y="416.0" text-anchor="middle" font-size="10" fill="#0f172a">pre-comm</text>
<text x="258.80360982507545" y="429.0" text-anchor="middle" font-size="10" fill="#0f172a">0.199s</text>
<rect x="297.61" y="400.00" width="0.07" height="36.00" fill="#38bdf8" stroke="#ffffff" stroke-width="0.5"/>
<rect x="297.68" y="400.00" width="70.80" height="36.00" fill="#0ea5e9" stroke="#ffffff" stroke-width="0.5"/>
<text x="333.0801845912146" y="416.0" text-anchor="middle" font-size="10" fill="#0f172a">post-send</text>
<text x="333.0801845912146" y="429.0" text-anchor="middle" font-size="10" fill="#0f172a">0.181s</text>
<rect x="368.48" y="400.00" width="88.59" height="36.00" fill="#f97316" stroke="#ffffff" stroke-width="0.5"/>
<text x="412.7773137765781" y="416.0" text-anchor="middle" font-size="10" fill="#0f172a">mid-comm</text>
<text x="412.7773137765781" y="429.0" text-anchor="middle" font-size="10" fill="#0f172a">0.227s</text>
<rect x="457.07" y="400.00" width="121.24" height="36.00" fill="#22c55e" stroke="#ffffff" stroke-width="0.5"/>
<text x="517.693188658987" y="416.0" text-anchor="middle" font-size="10" fill="#0f172a">wait-recv</text>
<text x="517.693188658987" y="429.0" text-anchor="middle" font-size="10" fill="#0f172a">0.310s</text>
<rect x="578.31" y="400.00" width="30.05" height="36.00" fill="#16a34a" stroke="#ffffff" stroke-width="0.5"/>
<rect x="608.36" y="400.00" width="84.92" height="36.00" fill="#a3a3a3" stroke="#ffffff" stroke-width="0.5"/>
<text x="650.823259259609" y="416.0" text-anchor="middle" font-size="10" fill="#0f172a">post-comm</text>
<text x="650.823259259609" y="429.0" text-anchor="middle" font-size="10" fill="#0f172a">0.217s</text>
<text x="701.2821072523749" y="422.0" font-size="11" fill="#374151">with compute  1.240s</text>
<rect x="220.00" y="442.00" width="75.15" height="36.00" fill="#94a3b8" stroke="#ffffff" stroke-width="0.5"/>
<text x="257.57725731138527" y="458.0" text-anchor="middle" font-size="10" fill="#0f172a">pre-comm</text>
<text x="257.57725731138527" y="471.0" text-anchor="middle" font-size="10" fill="#0f172a">0.192s</text>
<rect x="295.15" y="442.00" width="0.06" height="36.00" fill="#38bdf8" stroke="#ffffff" stroke-width="0.5"/>
<rect x="295.22" y="442.00" width="70.89" height="36.00" fill="#0ea5e9" stroke="#ffffff" stroke-width="0.5"/>
<text x="330.66412317612327" y="458.0" text-anchor="middle" font-size="10" fill="#0f172a">post-send</text>
<text x="330.66412317612327" y="471.0" text-anchor="middle" font-size="10" fill="#0f172a">0.181s</text>
<rect x="366.11" y="442.00" width="138.39" height="36.00" fill="#22c55e" stroke="#ffffff" stroke-width="0.5"/>
<text x="435.3015112926426" y="458.0" text-anchor="middle" font-size="10" fill="#0f172a">wait-recv</text>
<text x="435.3015112926426" y="471.0" text-anchor="middle" font-size="10" fill="#0f172a">0.354s</text>
<rect x="504.49" y="442.00" width="1.08" height="36.00" fill="#16a34a" stroke="#ffffff" stroke-width="0.5"/>
<rect x="505.58" y="442.00" width="85.26" height="36.00" fill="#a3a3a3" stroke="#ffffff" stroke-width="0.5"/>
<text x="548.2101506923235" y="458.0" text-anchor="middle" font-size="10" fill="#0f172a">post-comm</text>
<text x="548.2101506923235" y="471.0" text-anchor="middle" font-size="10" fill="#0f172a">0.218s</text>
<text x="598.8423368481916" y="464.0" font-size="11" fill="#374151">no midcomm    0.970s</text>
<rect x="220.00" y="534.00" width="14.00" height="14.00" fill="#94a3b8" stroke="#ffffff" stroke-width="0.5"/>
<text x="240" y="546" font-size="12">pre-comm</text>
<rect x="335.00" y="534.00" width="14.00" height="14.00" fill="#38bdf8" stroke="#ffffff" stroke-width="0.5"/>
<text x="355" y="546" font-size="12">post-recv</text>
<rect x="450.00" y="534.00" width="14.00" height="14.00" fill="#0ea5e9" stroke="#ffffff" stroke-width="0.5"/>
<text x="470" y="546" font-size="12">post-send</text>
<rect x="565.00" y="534.00" width="14.00" height="14.00" fill="#f97316" stroke="#ffffff" stroke-width="0.5"/>
<text x="585" y="546" font-size="12">mid-comm</text>
<rect x="680.00" y="534.00" width="14.00" height="14.00" fill="#22c55e" stroke="#ffffff" stroke-width="0.5"/>
<text x="700" y="546" font-size="12">wait-recv</text>
<rect x="795.00" y="534.00" width="14.00" height="14.00" fill="#16a34a" stroke="#ffffff" stroke-width="0.5"/>
<text x="815" y="546" font-size="12">wait-send</text>
<rect x="910.00" y="534.00" width="14.00" height="14.00" fill="#a3a3a3" stroke="#ffffff" stroke-width="0.5"/>
<text x="930" y="546" font-size="12">post-comm</text>
<text x="220" y="574" font-size="11" fill="#6b7280">paper overhead ratio on overlap window: for mpi rows, comm-window = wait-recv(mpi) − wait-recv(mock), measured-window = mid-comm(with) + residual wait-recv(with). 0 = perfect overlap, 1 = serialized.</text>
</svg>