<svg xmlns="http://www.w3.org/2000/svg" width="1240" height="638">
<style>text{font-family:-apple-system,Segoe UI,Roboto,sans-serif;fill:#111827;}</style>
<text x="620.0" y="36" text-anchor="middle" font-size="20" font-weight="700">cm4_inter / run_5_more_omp8_big_mes / case 05 (async1_c8_waitall)</text>
<text x="620.0" y="62" text-anchor="middle" font-size="13" fill="#4b5563">size 512_512_512  |  cutoff 250  |  num_cycles 5</text>
<line x1="220.0" y1="92" x2="220.0" y2="488" stroke="#e5e7eb" stroke-dasharray="4 4"/>
<text x="220.0" y="506" text-anchor="middle" font-size="12">0.000s</text>
<line x1="412.0" y1="92" x2="412.0" y2="488" stroke="#e5e7eb" stroke-dasharray="4 4"/>
<text x="412.0" y="506" text-anchor="middle" font-size="12">0.773s</text>
<line x1="604.0" y1="92" x2="604.0" y2="488" stroke="#e5e7eb" stroke-dasharray="4 4"/>
<text x="604.0" y="506" text-anchor="middle" font-size="12">1.546s</text>
<line x1="796.0" y1="92" x2="796.0" y2="488" stroke="#e5e7eb" stroke-dasharray="4 4"/>
<text x="796.0" y="506" text-anchor="middle" font-size="12">2.319s</text>
<line x1="988.0" y1="92" x2="988.0" y2="488" stroke="#e5e7eb" stroke-dasharray="4 4"/>
<text x="988.0" y="506" text-anchor="middle" font-size="12">3.091s</text>
<line x1="1180.0" y1="92" x2="1180.0" y2="488" stroke="#e5e7eb" stroke-dasharray="4 4"/>
<text x="1180.0" y="506" text-anchor="middle" font-size="12">3.864s</text>
<line x1="220" y1="488" x2="1180" y2="488" stroke="#374151"/>
<text x="208" y="129.0" text-anchor="end" font-size="14" font-weight="700">mock seq</text>
<text x="208" y="147.0" text-anchor="end" font-size="11" fill="#374151">compute 1.066s  |  comm-window 0.235s  |  fixed mock 0.000s</text>
<text x="208" y="163.0" text-anchor="end" font-size="11" fill="#6b7280">measured-window 1.348s | ideal 1.066s / serial 1.302s | serialized Δ 0.235s → ratio 1.196x</text>
<rect x="220.00" y="100.00" width="166.14" height="36.00" fill="#94a3b8" stroke="#ffffff" stroke-width="0.5"/>
<text x="303.07096611808385" y="116.0" text-anchor="middle" font-size="10" fill="#0f172a">pre-comm</text>
<text x="303.07096611808385" y="129.0" text-anchor="middle" font-size="10" fill="#0f172a">0.669s</text>
<rect x="386.14" y="100.00" width="0.06" height="36.00" fill="#38bdf8" stroke="#ffffff" stroke-width="0.5"/>
<rect x="386.20" y="100.00" width="96.71" height="36.00" fill="#0ea5e9" stroke="#ffffff" stroke-width="0.5"/>
<text x="434.5570362193969" y="116.0" text-anchor="middle" font-size="10" fill="#0f172a">post-send</text>
<text x="434.5570362193969" y="129.0" text-anchor="middle" font-size="10" fill="#0f172a">0.389s</text>
<rect x="482.91" y="100.00" width="264.90" height="36.00" fill="#f97316" stroke="#ffffff" stroke-width="0.5"/>
<text x="615.3620627448578" y="116.0" text-anchor="middle" font-size="10" fill="#0f172a">mid-comm</text>
<text x="615.3620627448578" y="129.0" text-anchor="middle" font-size="10" fill="#0f172a">1.066s</text>
<rect x="747.81" y="100.00" width="69.91" height="36.00" fill="#22c55e" stroke="#ffffff" stroke-width="0.5"/>
<text x="782.7686044692538" y="116.0" text-anchor="middle" font-size="10" fill="#0f172a">wait-recv</text>
<text x="782.7686044692538" y="129.0" text-anchor="middle" font-size="10" fill="#0f172a">0.281s</text>
<rect x="817.72" y="100.00" width="1.95" height="36.00" fill="#16a34a" stroke="#ffffff" stroke-width="0.5"/>
<rect x="819.67" y="100.00" width="182.18" height="36.00" fill="#a3a3a3" stroke="#ffffff" stroke-width="0.5"/>
<text x="910.7608781525691" y="116.0" text-anchor="middle" font-size="10" fill="#0f172a">post-comm</text>
<text x="910.7608781525691" y="129.0" text-anchor="middle" font-size="10" fill="#0f172a">0.733s</text>
<text x="1009.8512956850315" y="122.0" font-size="11" fill="#374151">with compute  3.235s</text>
<rect x="220.00" y="142.00" width="126.01" height="36.00" fill="#94a3b8" stroke="#ffffff" stroke-width="0.5"/>
<text x="283.00408213387175" y="158.0" text-anchor="middle" font-size="10" fill="#0f172a">pre-comm</text>
<text x="283.00408213387175" y="171.0" text-anchor="middle" font-size="10" fill="#0f172a">0.507s</text>
<rect x="346.01" y="142.00" width="0.11" height="36.00" fill="#38bdf8" stroke="#ffffff" stroke-width="0.5"/>
<rect x="346.12" y="142.00" width="65.00" height="36.00" fill="#0ea5e9" stroke="#ffffff" stroke-width="0.5"/>
<text x="378.61572324627645" y="158.0" text-anchor="middle" font-size="10" fill="#0f172a">post-send</text>
<text x="378.61572324627645" y="171.0" text-anchor="middle" font-size="10" fill="#0f172a">0.262s</text>
<rect x="411.12" y="142.00" width="58.45" height="36.00" fill="#22c55e" stroke="#ffffff" stroke-width="0.5"/>
<text x="440.3414283785083" y="158.0" text-anchor="middle" font-size="10" fill="#0f172a">wait-recv</text>
<text x="440.3414283785083" y="171.0" text-anchor="middle" font-size="10" fill="#0f172a">0.235s</text>
<rect x="469.57" y="142.00" width="0.85" height="36.00" fill="#16a34a" stroke="#ffffff" stroke-width="0.5"/>
<rect x="470.41" y="142.00" width="136.46" height="36.00" fill="#a3a3a3" stroke="#ffffff" stroke-width="0.5"/>
<text x="538.6427367965177" y="158.0" text-anchor="middle" font-size="10" fill="#0f172a">post-comm</text>
<text x="538.6427367965177" y="171.0" text-anchor="middle" font-size="10" fill="#0f172a">0.549s</text>
<text x="614.870983784043" y="164.0" font-size="11" fill="#374151">no midcomm    1.898s</text>
<text x="208" y="229.0" text-anchor="end" font-size="14" font-weight="700">mock omp</text>
<text x="208" y="247.0" text-anchor="end" font-size="11" fill="#374151">compute 0.132s  |  comm-window 0.157s  |  fixed mock 0.000s</text>
<text x="208" y="263.0" text-anchor="end" font-size="11" fill="#6b7280">measured-window 0.327s | ideal 0.157s / serial 0.289s | serialized Δ 0.132s → ratio 1.282x</text>
<rect x="220.00" y="200.00" width="27.66" height="36.00" fill="#94a3b8" stroke="#ffffff" stroke-width="0.5"/>
<rect x="247.66" y="200.00" width="0.06" height="36.00" fill="#38bdf8" stroke="#ffffff" stroke-width="0.5"/>
<rect x="247.72" y="200.00" width="57.03" height="36.00" fill="#0ea5e9" stroke="#ffffff" stroke-width="0.5"/>
<text x="276.2355000218954" y="216.0" text-anchor="middle" font-size="10" fill="#0f172a">post-send</text>
<text x="276.2355000218954" y="229.0" text-anchor="middle" font-size="10" fill="#0f172a">0.230s</text>
<rect x="304.75" y="200.00" width="32.86" height="36.00" fill="#f97316" stroke="#ffffff" stroke-width="0.5"/>
<rect x="337.61" y="200.00" width="48.31" height="36.00" fill="#22c55e" stroke="#ffffff" stroke-width="0.5"/>
<text x="361.7675829098627" y="216.0" text-anchor="middle" font-size="10" fill="#0f172a">wait-recv</text>
<text x="361.7675829098627" y="229.0" text-anchor="middle" font-size="10" fill="#0f172a">0.194s</text>
<rect x="385.92" y="200.00" width="1.55" height="36.00" fill="#16a34a" stroke="#ffffff" stroke-width="0.5"/>
<rect x="387.47" y="200.00" width="30.25" height="36.00" fill="#a3a3a3" stroke="#ffffff" stroke-width="0.5"/>
<text x="425.7257942681912" y="222.0" font-size="11" fill="#374151">with compute  0.808s</text>
<rect x="220.00" y="242.00" width="26.96" height="36.00" fill="#94a3b8" stroke="#ffffff" stroke-width="0.5"/>
<rect x="246.96" y="242.00" width="0.24" height="36.00" fill="#38bdf8" stroke="#ffffff" stroke-width="0.5"/>
<rect x="247.19" y="242.00" width="41.74" height="36.00" fill="#0ea5e9" stroke="#ffffff" stroke-width="0.5"/>
<text x="268.06143285465083" y="258.0" text-anchor="middle" font-size="10" fill="#0f172a">post-send</text>
<text x="268.06143285465083" y="271.0" text-anchor="middle" font-size="10" fill="#0f172a">0.168s</text>
<rect x="288.93" y="242.00" width="39.06" height="36.00" fill="#22c55e" stroke="#ffffff" stroke-width="0.5"/>
<rect x="327.99" y="242.00" width="1.83" height="36.00" fill="#16a34a" stroke="#ffffff" stroke-width="0.5"/>
<rect x="329.82" y="242.00" width="31.33" height="36.00" fill="#a3a3a3" stroke="#ffffff" stroke-width="0.5"/>
<text x="369.1517793693431" y="264.0" font-size="11" fill="#374151">no midcomm    0.575s</text>
<text x="208" y="329.0" text-anchor="end" font-size="14" font-weight="700">mpi  seq</text>
<text x="208" y="347.0" text-anchor="end" font-size="11" fill="#374151">compute 1.323s  |  comm-window 0.485s  |  fixed mock 0.235s</text>
<text x="208" y="363.0" text-anchor="end" font-size="11" fill="#6b7280">measured-window 1.353s | ideal 1.323s / serial 1.808s | serialized Δ 0.485s → ratio 0.060x</text>
<rect x="220.00" y="300.00" width="166.17" height="36.00" fill="#94a3b8" stroke="#ffffff" stroke-width="0.5"/>
<text x="303.08663103545064" y="316.0" text-anchor="middle" font-size="10" fill="#0f172a">pre-comm</text>
<text x="303.08663103545064" y="329.0" text-anchor="middle" font-size="10" fill="#0f172a">0.669s</text>
<rect x="386.17" y="300.00" width="0.07" height="36.00" fill="#38bdf8" stroke="#ffffff" stroke-width="0.5"/>
<rect x="386.25" y="300.00" width="100.28" height="36.00" fill="#0ea5e9" stroke="#ffffff" stroke-width="0.5"/>
<text x="436.38455235863523" y="316.0" text-anchor="middle" font-size="10" fill="#0f172a">post-send</text>
<text x="436.38455235863523" y="329.0" text-anchor="middle" font-size="10" fill="#0f172a">0.404s</text>
<rect x="486.52" y="300.00" width="328.78" height="36.00" fill="#f97316" stroke="#ffffff" stroke-width="0.5"/>
<text x="650.9126772346247" y="316.0" text-anchor="middle" font-size="10" fill="#0f172a">mid-comm</text>
<text x="650.9126772346247" y="329.0" text-anchor="middle" font-size="10" fill="#0f172a">1.323s</text>
<rect x="815.30" y="300.00" width="77.16" height="36.00" fill="#22c55e" stroke="#ffffff" stroke-width="0.5"/>
<text x="853.8816383446874" y="316.0" text-anchor="middle" font-size="10" fill="#0f172a">wait-recv</text>
<text x="853.8816383446874" y="329.0" text-anchor="middle" font-size="10" fill="#0f172a">0.311s</text>
<rect x="892.46" y="300.00" width="2.15" height="36.00" fill="#16a34a" stroke="#ffffff" stroke-width="0.5"/>
<rect x="894.61" y="300.00" width="182.53" height="36.00" fill="#a3a3a3" stroke="#ffffff" stroke-width="0.5"/>
<text x="985.8785249923577" y="316.0" text-anchor="middle" font-size="10" fill="#0f172a">post-comm</text>
<text x="985.8785249923577" y="329.0" text-anchor="middle" font-size="10" fill="#0f172a">0.735s</text>
<text x="1085.1428571428569" y="322.0" font-size="11" fill="#374151">with compute  3.487s</text>
<rect x="220.00" y="342.00" width="137.81" height="36.00" fill="#94a3b8" stroke="#ffffff" stroke-width="0.5"/>
<text x="288.9030060674995" y="358.0" text-anchor="middle" font-size="10" fill="#0f172a">pre-comm</text>
<text x="288.9030060674995" y="371.0" text-anchor="middle" font-size="10" fill="#0f172a">0.555s</text>
<rect x="357.81" y="342.00" width="0.22" height="36.00" fill="#38bdf8" stroke="#ffffff" stroke-width="0.5"/>
<rect x="358.02" y="342.00" width="78.41" height="36.00" fill="#0ea5e9" stroke="#ffffff" stroke-width="0.5"/>
<text x="397.2281660477713" y="358.0" text-anchor="middle" font-size="10" fill="#0f172a">post-send</text>
<text x="397.2281660477713" y="371.0" text-anchor="middle" font-size="10" fill="#0f172a">0.316s</text>
<rect x="436.43" y="342.00" width="178.89" height="36.00" fill="#22c55e" stroke="#ffffff" stroke-width="0.5"/>
<text x="525.8781637879249" y="358.0" text-anchor="middle" font-size="10" fill="#0f172a">wait-recv</text>
<text x="525.8781637879249" y="371.0" text-anchor="middle" font-size="10" fill="#0f172a">0.720s</text>
<rect x="615.32" y="342.00" width="1.02" height="36.00" fill="#16a34a" stroke="#ffffff" stroke-width="0.5"/>
<rect x="616.35" y="342.00" width="149.30" height="36.00" fill="#a3a3a3" stroke="#ffffff" stroke-width="0.5"/>
<text x="690.9999752648085" y="358.0" text-anchor="middle" font-size="10" fill="#0f172a">post-comm</text>
<text x="690.9999752648085" y="371.0" text-anchor="middle" font-size="10" fill="#0f172a">0.601s</text>
<text x="773.6520320913353" y="364.0" font-size="11" fill="#374151">no midcomm    2.237s</text>
<text x="208" y="429.0" text-anchor="end" font-size="14" font-weight="700">mpi  omp</text>
<text x="208" y="447.0" text-anchor="end" font-size="11" fill="#374151">compute 0.127s  |  comm-window 0.226s  |  fixed mock 0.157s</text>
<text x="208" y="463.0" text-anchor="end" font-size="11" fill="#6b7280">measured-window 0.245s | ideal 0.226s / serial 0.353s | serialized Δ 0.127s → ratio 0.145x</text>
<rect x="220.00" y="400.00" width="27.28" height="36.00" fill="#94a3b8" stroke="#ffffff" stroke-width="0.5"/>
<rect x="247.28" y="400.00" width="0.07" height="36.00" fill="#38bdf8" stroke="#ffffff" stroke-width="0.5"/>
<rect x="247.35" y="400.00" width="58.55" height="36.00" fill="#0ea5e9" stroke="#ffffff" stroke-width="0.5"/>
<text x="276.62579073626637" y="416.0" text-anchor="middle" font-size="10" fill="#0f172a">post-send</text>
<text x="276.62579073626637" y="429.0" text-anchor="middle" font-size="10" fill="#0f172a">0.236s</text>
<rect x="305.90" y="400.00" width="31.45" height="36.00" fill="#f97316" stroke="#ffffff" stroke-width="0.5"/>
<rect x="337.35" y="400.00" width="77.69" height="36.00" fill="#22c55e" stroke="#ffffff" stroke-width="0.5"/>
<text x="376.1990746689877" y="416.0" text-anchor="middle" font-size="10" fill="#0f172a">wait-recv</text>
<text x="376.1990746689877" y="429.0" text-anchor="middle" font-size="10" fill="#0f172a">0.313s</text>
<rect x="415.05" y="400.00" width="2.09" height="36.00" fill="#16a34a" stroke="#ffffff" stroke-width="0.5"/>
<rect x="417.13" y="400.00" width="30.23" height="36.00" fill="#a3a3a3" stroke="#ffffff" stroke-width="0.5"/>
<text x="455.36187518321617" y="422.0" font-size="11" fill="#374151">with compute  0.929s</text>
<rect x="220.00" y="442.00" width="27.15" height="36.00" fill="#94a3b8" stroke="#ffffff" stroke-width="0.5"/>
<rect x="247.15" y="442.00" width="0.23" height="36.00" fill="#38bdf8" stroke="#ffffff" stroke-width="0.5"/>
<rect x="247.38" y="442.00" width="40.11" height="36.00" fill="#0ea5e9" stroke="#ffffff" stroke-width="0.5"/>
<text x="267.4305500766104" y="458.0" text-anchor="middle" font-size="10" fill="#0f172a">post-send</text>
<text x="267.4305500766104" y="471.0" text-anchor="middle" font-size="10" fill="#0f172a">0.161s</text>
<rect x="287.48" y="442.00" width="95.33" height="36.00" fill="#22c55e" stroke="#ffffff" stroke-width="0.5"/>
<text x="335.1481388935585" y="458.0" text-anchor="middle" font-size="10" fill="#0f172a">wait-recv</text>
<text x="335.1481388935585" y="471.0" text-anchor="middle" font-size="10" fill="#0f172a">0.384s</text>
<rect x="382.81" y="442.00" width="1.51" height="36.00" fill="#16a34a" stroke="#ffffff" stroke-width="0.5"/>
<rect x="384.33" y="442.00" width="31.27" height="36.00" fill="#a3a3a3" stroke="#ffffff" stroke-width="0.5"/>
<text x="423.5975107217804" y="464.0" font-size="11" fill="#374151">no midcomm    0.796s</text>
<rect x="220.00" y="534.00" width="14.00" height="14.00" fill="#94a3b8" stroke="#ffffff" stroke-width="0.5"/>
<text x="240" y="546" font-size="12">pre-comm</text>
<rect x="335.00" y="534.00" width="14.00" height="14.00" fill="#38bdf8" stroke="#ffffff" stroke-width="0.5"/>
<text x="355" y="546" font-size="12">post-recv</text>
<rect x="450.00" y="534.00" width="14.00" height="14.00" fill="#0ea5e9" stroke="#ffffff" stroke-width="0.5"/>
<text x="470" y="546" font-size="12">post-send</text>
<rect x="565.00" y="534.00" width="14.00" height="14.00" fill="#f97316" stroke="#ffffff" stroke-width="0.5"/>
<text x="585" y="546" font-size="12">mid-comm</text>
<rect x="680.00" y="534.00" width="14.00" height="14.00" fill="#22c55e" stroke="#ffffff" stroke-width="0.5"/>
<text x="700" y="546" font-size="12">wait-recv</text>
<rect x="795.00" y="534.00" width="14.00" height="14.00" fill="#16a34a" stroke="#ffffff" stroke-width="0.5"/>
<text x="815" y="546" font-size="12">wait-send</text>
<rect x="910.00" y="534.00" width="14.00" height="14.00" fill="#a3a3a3" stroke="#ffffff" stroke-width="0.5"/>
<text x="930" y="546" font-size="12">post-comm</text>
<text x="220" y="574" font-size="11" fill="#6b7280">paper overhead ratio on overlap window: for mpi rows, comm-window = wait-recv(mpi) − wait-recv(mock), measured-window = mid-comm(with) + residual wait-recv(with). 0 = perfect overlap, 1 = serialized.</text>
</svg>